{
.appVersion = "1192";
DisplayStrings = (
"/_part.new.haa",
"/lee-ethiopic",
"/laa-ethiopic",
"/le-ethiopic",
"/lo-ethiopic",
"/hhu-ethiopic",
"/hhi-ethiopic",
"/hhaa-ethiopic",
"/mu-ethiopic",
"/mi-ethiopic",
"/maa-ethiopic",
"/mee-ethiopic",
"/me-ethiopic",
"/mo-ethiopic",
"/mwa-ethiopic",
"/szu-ethiopic",
"/sza-ethiopic",
"/szaa-ethiopic",
"/szi-ethiopic",
"/szee-ethiopic",
"/szo-ethiopic",
"/sa-ethiopic",
"/su-ethiopic",
"/saa-ethiopic",
"/see-ethiopic",
"/sha-ethiopic",
"/shu-ethiopic",
"/si-ethiopic/shi-ethiopic",
"/si-ethiopic",
"/shaa-ethiopic",
"/shee-ethiopic",
"/sho-ethiopic",
"/shwa-ethiopic",
"/qa-ethiopic",
"/qu-ethiopic",
"/qi-ethiopic",
"/qaa-ethiopic",
"/qee-ethiopic",
"/qe-ethiopic",
"/qo-ethiopic",
"/qoa-ethiopic",
"/qwaa-ethiopic",
"/bi-ethiopic",
"/baa-ethiopic",
"/bee-ethiopic",
"/va-ethiopic",
"/vu-ethiopic",
"/bu-ethiopic",
"/_part.vtop/vi-ethiopic",
"/vi-ethiopic",
"/vaa-ethiopic",
"/vee-ethiopic",
"/ve-ethiopic",
"/vo-ethiopic",
"/vwa-ethiopic",
"/ta-ethiopic",
"/xu-ethiopic",
"/xi-ethiopic",
"/xee-ethiopic",
"/xo-ethiopic",
"/nu-ethiopic",
"/ni-ethiopic",
"/naa-ethiopic",
"/nee-ethiopic",
"/no-ethiopic",
"/nya-ethiopic",
"/nyu-ethiopic",
"/nyi-ethiopic",
"/aaGlottal-ethiopic",
"/eeGlottal-ethiopic",
"/oGlottal-ethiopic",
"/kaa-ethiopic",
"/ko-ethiopic",
"/koa-ethiopic",
"/kxa-ethiopic",
"/kxu-ethiopic",
"/kxi-ethiopic",
"/kxaa-ethiopic",
"/kxee-ethiopic",
"/kxe-ethiopic",
"/kxo-ethiopic",
"/kxwa-ethiopic",
"/kxwaa-ethiopic",
"/we-ethiopic",
"/wo-ethiopic",
"/uPharyngeal-ethiopic",
"/iPharyngeal-ethiopic",
"/aaPharyngeal-ethiopic",
"/eePharyngeal-ethiopic",
"/ePharyngeal-ethiopic",
"/zu-ethiopic",
"/zi-ethiopic",
"/zaa-ethiopic",
"/zee-ethiopic",
"/zha-ethiopic",
"/zhu-ethiopic",
"/zhi-ethiopic",
"/zhaa-ethiopic",
"/zhee-ethiopic",
"/zhe-ethiopic",
"/ze-ethiopic",
"/zho-ethiopic",
"/zhwa-ethiopic",
"/yu-ethiopic",
"/yi-ethiopic",
"/yaa-ethiopic",
"/ye-ethiopic",
"/yo-ethiopic",
"/yoa-ethiopic",
"/do-ethiopic",
"/dee-ethiopic",

glyphs = (
{
glyphname = A;
lastChange = "2019-03-09 00:11:00 +0000";
layers = (
{
layerId = "994FE389-9D54-4FAA-B055-C46A67020E78";
paths = (
{
closed = 1;
nodes = (
"165 0 LINE",
"239 203 LINE",
"509 203 LINE",
"578 0 LINE",
"680 0 LINE",
"431 682 LINE",
"327 682 LINE",
"70 0 LINE"
);
},
{
closed = 1;
nodes = (
"377 579 LINE",
"479 278 LINE",
"265 278 LINE"
);
}
);
width = 750;
},
{
layerId = "070DF6F6-38EC-45CA-8FD7-ED5C2C5DB7AE";
paths = (
{
closed = 1;
nodes = (
"130 0 LINE",
"189 203 LINE",
"403 203 LINE",
"457 0 LINE",
"539 0 LINE",
"341 682 LINE",
"258 682 LINE",
"55 0 LINE"
);
},
{
closed = 1;
nodes = (
"298 579 LINE",
"379 278 LINE",
"209 278 LINE"
);
}
);
userData = {
RMXScaler = {
adjustSpace = -10;
weight = -10;
width = 90;
};
};
width = 594;
}
);
note = A;
unicode = 0041;
},
{
glyphname = B;
lastChange = "2019-03-09 00:11:00 +0000";
layers = (
{
layerId = "994FE389-9D54-4FAA-B055-C46A67020E78";
paths = (
{
closed = 1;
nodes = (
"358 0 LINE SMOOTH",
"448 0 OFFCURVE",
"513 24 OFFCURVE",
"553 77 CURVE SMOOTH",
"581 115 OFFCURVE",
"596 153 OFFCURVE",
"596 198 CURVE SMOOTH",
"596 250 OFFCURVE",
"580 291 OFFCURVE",
"549 321 CURVE SMOOTH",
"532 337 OFFCURVE",
"507 352 OFFCURVE",
"472 366 CURVE",
"495 378 OFFCURVE",
"513 392 OFFCURVE",
"526 406 CURVE SMOOTH",
"551 433 OFFCURVE",
"563 468 OFFCURVE",
"563 511 CURVE SMOOTH",
"563 547 OFFCURVE",
"555 580 OFFCURVE",
"532 608 CURVE SMOOTH",
"496 653 OFFCURVE",
"442 679 OFFCURVE",
"363 679 CURVE SMOOTH",
"70 679 LINE",
"70 0 LINE"
);
},
{
closed = 1;
nodes = (
"161 318 LINE",
"343 318 LINE SMOOTH",
"382 318 OFFCURVE",
"414 313 OFFCURVE",
"437 304 CURVE SMOOTH",
"481 286 OFFCURVE",
"503 252 OFFCURVE",
"503 202 CURVE SMOOTH",
"503 173 OFFCURVE",
"496 147 OFFCURVE",
"479 127 CURVE SMOOTH",
"450 92 OFFCURVE",
"412 77 OFFCURVE",
"358 77 CURVE SMOOTH",
"161 77 LINE"
);
},
{
closed = 1;
nodes = (
"161 603 LINE",
"327 603 LINE SMOOTH",
"365 603 OFFCURVE",
"396 598 OFFCURVE",
"417 590 CURVE SMOOTH",
"453 576 OFFCURVE",
"471 545 OFFCURVE",
"471 500 CURVE SMOOTH",
"471 456 OFFCURVE",
"452 425 OFFCURVE",
"419 408 CURVE SMOOTH",
"398 397 OFFCURVE",
"367 392 OFFCURVE",
"329 392 CURVE SMOOTH",
"161 392 LINE"
);
}
);
width = 666;
},
{
layerId = "070DF6F6-38EC-45CA-8FD7-ED5C2C5DB7AE";
paths = (
{
closed = 1;
nodes = (
"283 0 LINE SMOOTH",
"356 0 OFFCURVE",
"408 26 OFFCURVE",
"437 75 CURVE SMOOTH",
"460 114 OFFCURVE",
"472 153 OFFCURVE",
"472 198 CURVE SMOOTH",
"472 251 OFFCURVE",
"459 291 OFFCURVE",
"434 322 CURVE SMOOTH",
"419 340 OFFCURVE",
"401 352 OFFCURVE",
"374 366 CURVE",
"391 379 OFFCURVE",
"402 386 OFFCURVE",
"419 410 CURVE SMOOTH",
"436 433 OFFCURVE",
"446 473 OFFCURVE",
"446 511 CURVE SMOOTH",
"446 552 OFFCURVE",
"438 584 OFFCURVE",
"421 609 CURVE SMOOTH",
"392 653 OFFCURVE",
"350 679 OFFCURVE",
"288 679 CURVE SMOOTH",
"55 679 LINE",
"55 0 LINE"
);
},
{
closed = 1;
nodes = (
"127 318 LINE",
"272 318 LINE SMOOTH",
"302 318 OFFCURVE",
"325 314 OFFCURVE",
"345 304 CURVE SMOOTH",
"381 286 OFFCURVE",
"399 253 OFFCURVE",
"399 202 CURVE SMOOTH",
"399 169 OFFCURVE",
"392 147 OFFCURVE",
"379 126 CURVE SMOOTH",
"349 77 OFFCURVE",
"312 77 OFFCURVE",
"283 77 CURVE SMOOTH",
"127 77 LINE"
);
},
{
closed = 1;
nodes = (
"127 603 LINE",
"258 603 LINE SMOOTH",
"290 603 OFFCURVE",
"313 598 OFFCURVE",
"330 590 CURVE SMOOTH",
"359 576 OFFCURVE",
"373 544 OFFCURVE",
"373 500 CURVE SMOOTH",
"373 457 OFFCURVE",
"358 425 OFFCURVE",
"333 409 CURVE SMOOTH",
"312 395 OFFCURVE",
"286 392 OFFCURVE",
"260 392 CURVE SMOOTH",
"127 392 LINE"
);
}
);
userData = {
RMXScaler = {
adjustSpace = -10;
weight = -10;
width = 90;
};
};
width = 527;
}
);
note = B;
unicode = 0042;
userData = {
RMXScaler = {
source = B;
};
};
},
{
glyphname = C;
lastChange = "2019-03-09 00:11:00 +0000";
layers = (
{
layerId = "994FE389-9D54-4FAA-B055-C46A67020E78";
paths = (
{
closed = 1;
nodes = (
"455 -7 OFFCURVE",
"526 22 OFFCURVE",
"579 77 CURVE SMOOTH",
"623 124 OFFCURVE",
"648 183 OFFCURVE",
"655 253 CURVE",
"569 253 LINE",
"560 209 OFFCURVE",
"546 174 OFFCURVE",
"527 147 CURVE SMOOTH",
"491 97 OFFCURVE",
"443 71 OFFCURVE",
"377 71 CURVE SMOOTH",
"306 71 OFFCURVE",
"253 96 OFFCURVE",
"216 144 CURVE SMOOTH",
"180 191 OFFCURVE",
"161 254 OFFCURVE",
"161 332 CURVE SMOOTH",
"161 426 OFFCURVE",
"182 496 OFFCURVE",
"222 542 CURVE SMOOTH",
"262 587 OFFCURVE",
"314 609 OFFCURVE",
"378 609 CURVE SMOOTH",
"433 609 OFFCURVE",
"473 597 OFFCURVE",
"503 573 CURVE SMOOTH",
"532 549 OFFCURVE",
"553 514 OFFCURVE",
"563 471 CURVE",
"650 471 LINE",
"644 527 OFFCURVE",
"620 577 OFFCURVE",
"573 622 CURVE SMOOTH",
"525 667 OFFCURVE",
"458 687 OFFCURVE",
"377 687 CURVE SMOOTH",
"283 687 OFFCURVE",
"208 658 OFFCURVE",
"147 586 CURVE SMOOTH",
"91 520 OFFCURVE",
"70 439 OFFCURVE",
"70 347 CURVE SMOOTH",
"70 218 OFFCURVE",
"105 124 OFFCURVE",
"173 63 CURVE SMOOTH",
"225 16 OFFCURVE",
"290 -7 OFFCURVE",
"366 -7 CURVE SMOOTH"
);
}
);
width = 725;
},
{
layerId = "070DF6F6-38EC-45CA-8FD7-ED5C2C5DB7AE";
paths = (
{
closed = 1;
nodes = (
"362 -7 OFFCURVE",
"418 24 OFFCURVE",
"459 78 CURVE SMOOTH",
"494 125 OFFCURVE",
"513 185 OFFCURVE",
"519 253 CURVE",
"450 253 LINE",
"443 209 OFFCURVE",
"433 176 OFFCURVE",
"418 149 CURVE SMOOTH",
"386 93 OFFCURVE",
"348 71 OFFCURVE",
"298 71 CURVE SMOOTH",
"242 71 OFFCURVE",
"200 96 OFFCURVE",
"171 143 CURVE SMOOTH",
"142 191 OFFCURVE",
"127 255 OFFCURVE",
"127 332 CURVE SMOOTH",
"127 429 OFFCURVE",
"144 496 OFFCURVE",
"175 541 CURVE SMOOTH",
"207 587 OFFCURVE",
"248 609 OFFCURVE",
"299 609 CURVE SMOOTH",
"341 609 OFFCURVE",
"375 597 OFFCURVE",
"399 573 CURVE SMOOTH",
"419 553 OFFCURVE",
"439 512 OFFCURVE",
"446 471 CURVE",
"515 471 LINE",
"510 530 OFFCURVE",
"487 585 OFFCURVE",
"454 622 CURVE SMOOTH",
"419 661 OFFCURVE",
"368 687 OFFCURVE",
"298 687 CURVE SMOOTH",
"225 687 OFFCURVE",
"164 658 OFFCURVE",
"117 588 CURVE SMOOTH",
"72 520 OFFCURVE",
"55 443 OFFCURVE",
"55 347 CURVE SMOOTH",
"55 213 OFFCURVE",
"83 124 OFFCURVE",
"137 63 CURVE SMOOTH",
"180 14 OFFCURVE",
"229 -7 OFFCURVE",
"289 -7 CURVE SMOOTH"
);
}
);
userData = {
RMXScaler = {
adjustSpace = -10;
weight = -10;
width = 90;
};
};
width = 574;
}
);
note = C;
unicode = 0043;
userData = {
RMXScaler = {
source = C;
};
};
},
{
glyphname = D;
lastChange = "2019-03-09 00:11:00 +0000";
layers = (
{
layerId = "994FE389-9D54-4FAA-B055-C46A67020E78";
paths = (
{
closed = 1;
nodes = (
"346 1 LINE SMOOTH",
"461 1 OFFCURVE",
"543 53 OFFCURVE",
"592 156 CURVE SMOOTH",
"620 213 OFFCURVE",
"633 279 OFFCURVE",
"633 351 CURVE SMOOTH",
"633 449 OFFCURVE",
"609 523 OFFCURVE",
"562 581 CURVE SMOOTH",
"501 657 OFFCURVE",
"427 681 OFFCURVE",
"347 681 CURVE SMOOTH",
"70 681 LINE",
"70 1 LINE"
);
},
{
closed = 1;
nodes = (
"163 603 LINE",
"327 603 LINE SMOOTH",
"400 603 OFFCURVE",
"457 579 OFFCURVE",
"489 533 CURVE SMOOTH",
"521 486 OFFCURVE",
"539 420 OFFCURVE",
"539 336 CURVE SMOOTH",
"539 314 OFFCURVE",
"537 290 OFFCURVE",
"532 265 CURVE SMOOTH",
"524 220 OFFCURVE",
"510 186 OFFCURVE",
"492 159 CURVE SMOOTH",
"469 124 OFFCURVE",
"440 101 OFFCURVE",
"404 89 CURVE SMOOTH",
"385 83 OFFCURVE",
"357 78 OFFCURVE",
"328 78 CURVE SMOOTH",
"163 78 LINE"
);
}
);
width = 703;
},
{
layerId = "070DF6F6-38EC-45CA-8FD7-ED5C2C5DB7AE";
paths = (
{
closed = 1;
nodes = (
"273 1 LINE SMOOTH",
"364 1 OFFCURVE",
"429 51 OFFCURVE",
"469 156 CURVE SMOOTH",
"491 213 OFFCURVE",
"502 281 OFFCURVE",
"502 351 CURVE SMOOTH",
"502 449 OFFCURVE",
"482 523 OFFCURVE",
"446 580 CURVE SMOOTH",
"397 657 OFFCURVE",
"338 681 OFFCURVE",
"274 681 CURVE SMOOTH",
"55 681 LINE",
"55 1 LINE"
);
},
{
closed = 1;
nodes = (
"129 603 LINE",
"258 603 LINE SMOOTH",
"319 603 OFFCURVE",
"362 578 OFFCURVE",
"387 533 CURVE SMOOTH",
"413 486 OFFCURVE",
"427 418 OFFCURVE",
"427 336 CURVE SMOOTH",
"427 311 OFFCURVE",
"425 290 OFFCURVE",
"421 263 CURVE SMOOTH",
"415 224 OFFCURVE",
"402 182 OFFCURVE",
"390 159 CURVE SMOOTH",
"372 125 OFFCURVE",
"346 99 OFFCURVE",
"320 89 CURVE SMOOTH",
"305 83 OFFCURVE",
"282 78 OFFCURVE",
"259 78 CURVE SMOOTH",
"129 78 LINE"
);
}
);
userData = {
RMXScaler = {
adjustSpace = -10;
weight = -10;
width = 90;
};
};
width = 557;
}
);
note = D;
unicode = 0044;
userData = {
RMXScaler = {
source = D;
};
};
},
{
glyphname = E;
lastChange = "2019-03-09 00:11:00 +0000";
layers = (
{
layerId = "994FE389-9D54-4FAA-B055-C46A67020E78";
paths = (
{
closed = 1;
nodes = (
"575 0 LINE",
"575 80 LINE",
"160 80 LINE",
"160 313 LINE",
"536 313 LINE",
"536 391 LINE",
"160 391 LINE",
"160 598 LINE",
"568 598 LINE",
"568 682 LINE",
"70 682 LINE",
"70 0 LINE"
);
}
);
width = 645;
},
{
layerId = "070DF6F6-38EC-45CA-8FD7-ED5C2C5DB7AE";
paths = (
{
closed = 1;
nodes = (
"456 0 LINE",
"456 80 LINE",
"126 80 LINE",
"126 313 LINE",
"424 313 LINE",
"424 391 LINE",
"126 391 LINE",
"126 598 LINE",
"450 598 LINE",
"450 682 LINE",
"55 682 LINE",
"55 0 LINE"
);
}
);
userData = {
RMXScaler = {
adjustSpace = -10;
weight = -10;
width = 90;
};
};
width = 511;
}
);
note = E;
unicode = 0045;
userData = {
RMXScaler = {
source = E;
};
};
},
{
glyphname = F;
lastChange = "2019-03-09 00:11:00 +0000";
layers = (
{
layerId = "994FE389-9D54-4FAA-B055-C46A67020E78";
paths = (
{
closed = 1;
nodes = (
"162 0 LINE",
"162 309 LINE",
"496 309 LINE",
"496 391 LINE",
"162 391 LINE",
"162 597 LINE",
"542 597 LINE",
"542 681 LINE",
"70 681 LINE",
"70 0 LINE"
);
}
);
width = 612;
},
{
layerId = "070DF6F6-38EC-45CA-8FD7-ED5C2C5DB7AE";
paths = (
{
closed = 1;
nodes = (
"128 0 LINE",
"128 309 LINE",
"392 309 LINE",
"392 391 LINE",
"128 391 LINE",
"128 597 LINE",
"429 597 LINE",
"429 681 LINE",
"55 681 LINE",
"55 0 LINE"
);
}
);
userData = {
RMXScaler = {
adjustSpace = -10;
weight = -10;
width = 90;
};
};
width = 484;
}
);
note = F;
unicode = 0046;
userData = {
RMXScaler = {
source = F;
};
};
},
{
glyphname = G;
lastChange = "2019-03-09 00:11:00 +0000";
layers = (
{
layerId = "994FE389-9D54-4FAA-B055-C46A67020E78";
paths = (
{
closed = 1;
nodes = (
"429 -11 OFFCURVE",
"478 -2 OFFCURVE",
"520 23 CURVE SMOOTH",
"541 36 OFFCURVE",
"569 59 OFFCURVE",
"600 92 CURVE",
"622 6 LINE",
"680 6 LINE",
"680 364 LINE",
"386 364 LINE",
"386 288 LINE",
"595 288 LINE",
"594 210 OFFCURVE",
"574 155 OFFCURVE",
"535 118 CURVE SMOOTH",
"496 82 OFFCURVE",
"445 66 OFFCURVE",
"385 66 CURVE SMOOTH",
"306 66 OFFCURVE",
"249 93 OFFCURVE",
"215 142 CURVE SMOOTH",
"180 192 OFFCURVE",
"162 256 OFFCURVE",
"162 336 CURVE SMOOTH",
"162 430 OFFCURVE",
"184 499 OFFCURVE",
"226 543 CURVE SMOOTH",
"269 588 OFFCURVE",
"324 613 OFFCURVE",
"382 613 CURVE SMOOTH",
"434 613 OFFCURVE",
"477 601 OFFCURVE",
"511 579 CURVE SMOOTH",
"546 557 OFFCURVE",
"568 521 OFFCURVE",
"580 472 CURVE",
"669 472 LINE",
"654 560 OFFCURVE",
"614 621 OFFCURVE",
"548 655 CURVE SMOOTH",
"501 679 OFFCURVE",
"450 692 OFFCURVE",
"385 692 CURVE SMOOTH",
"292 692 OFFCURVE",
"218 661 OFFCURVE",
"161 597 CURVE SMOOTH",
"101 530 OFFCURVE",
"70 443 OFFCURVE",
"70 331 CURVE SMOOTH",
"70 217 OFFCURVE",
"101 130 OFFCURVE",
"163 66 CURVE",
"220 15 OFFCURVE",
"288 -11 OFFCURVE",
"368 -11 CURVE SMOOTH"
);
}
);
width = 750;
},
{
layerId = "070DF6F6-38EC-45CA-8FD7-ED5C2C5DB7AE";
paths = (
{
closed = 1;
nodes = (
"339 -11 OFFCURVE",
"378 -2 OFFCURVE",
"412 23 CURVE SMOOTH",
"427 34 OFFCURVE",
"454 64 OFFCURVE",
"475 92 CURVE",
"493 6 LINE",
"539 6 LINE",
"539 364 LINE",
"305 364 LINE",
"305 288 LINE",
"472 288 LINE",
"471 212 OFFCURVE",
"452 149 OFFCURVE",
"424 118 CURVE SMOOTH",
"397 88 OFFCURVE",
"354 66 OFFCURVE",
"305 66 CURVE SMOOTH",
"242 66 OFFCURVE",
"197 93 OFFCURVE",
"169 144 CURVE SMOOTH",
"142 192 OFFCURVE",
"128 259 OFFCURVE",
"128 336 CURVE SMOOTH",
"128 430 OFFCURVE",
"146 501 OFFCURVE",
"179 544 CURVE SMOOTH",
"213 588 OFFCURVE",
"258 613 OFFCURVE",
"303 613 CURVE SMOOTH",
"344 613 OFFCURVE",
"377 601 OFFCURVE",
"405 579 CURVE SMOOTH",
"432 557 OFFCURVE",
"450 521 OFFCURVE",
"459 472 CURVE",
"530 472 LINE",
"518 558 OFFCURVE",
"487 621 OFFCURVE",
"434 655 CURVE SMOOTH",
"397 679 OFFCURVE",
"355 692 OFFCURVE",
"305 692 CURVE SMOOTH",
"232 692 OFFCURVE",
"172 661 OFFCURVE",
"128 598 CURVE SMOOTH",
"80 530 OFFCURVE",
"55 447 OFFCURVE",
"55 331 CURVE SMOOTH",
"55 216 OFFCURVE",
"80 130 OFFCURVE",
"129 66 CURVE",
"174 15 OFFCURVE",
"229 -11 OFFCURVE",
"291 -11 CURVE SMOOTH"
);
}
);
userData = {
RMXScaler = {
adjustSpace = -10;
weight = -10;
width = 90;
};
};
width = 594;
}
);
note = G;
unicode = 0047;
userData = {
RMXScaler = {
source = G;
};
};
},
{
glyphname = H;
lastChange = "2019-03-09 00:11:00 +0000";
layers = (
{
layerId = "994FE389-9D54-4FAA-B055-C46A67020E78";
paths = (
{
closed = 1;
nodes = (
"163 0 LINE",
"163 317 LINE",
"516 317 LINE",
"516 0 LINE",
"610 0 LINE",
"610 680 LINE",
"516 680 LINE",
"516 399 LINE",
"163 399 LINE",
"163 680 LINE",
"70 680 LINE",
"70 0 LINE"
);
}
);
width = 680;
},
{
layerId = "070DF6F6-38EC-45CA-8FD7-ED5C2C5DB7AE";
paths = (
{
closed = 1;
nodes = (
"129 0 LINE",
"129 317 LINE",
"408 317 LINE",
"408 0 LINE",
"483 0 LINE",
"483 680 LINE",
"408 680 LINE",
"408 399 LINE",
"129 399 LINE",
"129 680 LINE",
"55 680 LINE",
"55 0 LINE"
);
}
);
userData = {
RMXScaler = {
adjustSpace = -10;
weight = -10;
width = 90;
};
};
width = 538;
}
);
note = H;
unicode = 0048;
userData = {
RMXScaler = {
source = H;
};
};
},
{
glyphname = I;
lastChange = "2019-03-09 00:11:00 +0000";
layers = (
{
layerId = "994FE389-9D54-4FAA-B055-C46A67020E78";
paths = (
{
closed = 1;
nodes = (
"163 0 LINE",
"163 683 LINE",
"70 683 LINE",
"70 0 LINE"
);
}
);
width = 233;
},
{
layerId = "070DF6F6-38EC-45CA-8FD7-ED5C2C5DB7AE";
paths = (
{
closed = 1;
nodes = (
"129 0 LINE",
"129 683 LINE",
"55 683 LINE",
"55 0 LINE"
);
}
);
userData = {
RMXScaler = {
adjustSpace = -10;
weight = -10;
width = 90;
};
};
width = 184;
}
);
note = I;
unicode = 0049;
userData = {
RMXScaler = {
source = I;
};
};
},
{
glyphname = J;
lastChange = "2019-03-09 00:11:00 +0000";
layers = (
{
layerId = "994FE389-9D54-4FAA-B055-C46A67020E78";
paths = (
{
closed = 1;
nodes = (
"335 -8 OFFCURVE",
"395 16 OFFCURVE",
"430 77 CURVE SMOOTH",
"450 112 OFFCURVE",
"456 156 OFFCURVE",
"456 210 CURVE SMOOTH",
"456 682 LINE",
"366 682 LINE",
"366 234 LINE SMOOTH",
"366 177 OFFCURVE",
"360 137 OFFCURVE",
"352 118 CURVE SMOOTH",
"338 84 OFFCURVE",
"305 67 OFFCURVE",
"257 67 CURVE SMOOTH",
"222 67 OFFCURVE",
"197 77 OFFCURVE",
"180 96 CURVE SMOOTH",
"163 115 OFFCURVE",
"156 142 OFFCURVE",
"156 179 CURVE SMOOTH",
"156 227 LINE",
"70 227 LINE",
"70 179 LINE SMOOTH",
"70 109 OFFCURVE",
"89 61 OFFCURVE",
"124 33 CURVE SMOOTH",
"160 5 OFFCURVE",
"202 -8 OFFCURVE",
"252 -8 CURVE SMOOTH"
);
}
);
width = 526;
},
{
layerId = "070DF6F6-38EC-45CA-8FD7-ED5C2C5DB7AE";
paths = (
{
closed = 1;
nodes = (
"266 -8 OFFCURVE",
"313 18 OFFCURVE",
"340 76 CURVE SMOOTH",
"357 113 OFFCURVE",
"361 160 OFFCURVE",
"361 210 CURVE SMOOTH",
"361 682 LINE",
"289 682 LINE",
"289 234 LINE SMOOTH",
"289 180 OFFCURVE",
"285 137 OFFCURVE",
"279 120 CURVE SMOOTH",
"267 84 OFFCURVE",
"243 67 OFFCURVE",
"203 67 CURVE SMOOTH",
"177 67 OFFCURVE",
"155 77 OFFCURVE",
"142 96 CURVE SMOOTH",
"129 115 OFFCURVE",
"123 143 OFFCURVE",
"123 179 CURVE SMOOTH",
"123 227 LINE",
"55 227 LINE",
"55 179 LINE SMOOTH",
"55 101 OFFCURVE",
"73 57 OFFCURVE",
"99 31 CURVE SMOOTH",
"122 8 OFFCURVE",
"158 -8 OFFCURVE",
"199 -8 CURVE SMOOTH"
);
}
);
userData = {
RMXScaler = {
adjustSpace = -10;
weight = -10;
width = 90;
};
};
width = 416;
}
);
note = J;
unicode = 004A;
userData = {
RMXScaler = {
source = J;
};
};
},
{
glyphname = K;
lastChange = "2019-03-09 00:11:00 +0000";
layers = (
{
layerId = "994FE389-9D54-4FAA-B055-C46A67020E78";
paths = (
{
closed = 1;
nodes = (
"160 0 LINE",
"160 237 LINE",
"268 342 LINE",
"508 0 LINE",
"628 0 LINE",
"337 406 LINE",
"620 681 LINE",
"493 681 LINE",
"160 349 LINE",
"160 681 LINE",
"70 681 LINE",
"70 0 LINE"
);
}
);
width = 698;
},
{
layerId = "070DF6F6-38EC-45CA-8FD7-ED5C2C5DB7AE";
paths = (
{
closed = 1;
nodes = (
"126 0 LINE",
"126 237 LINE",
"212 342 LINE",
"402 0 LINE",
"497 0 LINE",
"266 406 LINE",
"491 681 LINE",
"391 681 LINE",
"126 349 LINE",
"126 681 LINE",
"55 681 LINE",
"55 0 LINE"
);
}
);
userData = {
RMXScaler = {
adjustSpace = -10;
weight = -10;
width = 90;
};
};
width = 552;
}
);
note = K;
unicode = 004B;
userData = {
RMXScaler = {
source = K;
};
};
},
{
glyphname = L;
lastChange = "2019-03-09 00:11:00 +0000";
layers = (
{
layerId = "994FE389-9D54-4FAA-B055-C46A67020E78";
paths = (
{
closed = 1;
nodes = (
"506 0 LINE",
"506 82 LINE",
"162 82 LINE",
"162 679 LINE",
"70 679 LINE",
"70 0 LINE"
);
}
);
width = 576;
},
{
layerId = "070DF6F6-38EC-45CA-8FD7-ED5C2C5DB7AE";
paths = (
{
closed = 1;
nodes = (
"400 0 LINE",
"400 82 LINE",
"128 82 LINE",
"128 679 LINE",
"55 679 LINE",
"55 0 LINE"
);
}
);
userData = {
RMXScaler = {
adjustSpace = -10;
weight = -10;
width = 90;
};
};
width = 455;
}
);
note = L;
unicode = 004C;
userData = {
RMXScaler = {
source = L;
};
};
},
{
glyphname = M;
lastChange = "2019-03-09 00:11:00 +0000";
layers = (
{
layerId = "994FE389-9D54-4FAA-B055-C46A67020E78";
paths = (
{
closed = 1;
nodes = (
"158 1 LINE",
"158 402 LINE SMOOTH",
"158 418 OFFCURVE",
"158 444 OFFCURVE",
"157 478 CURVE SMOOTH",
"156 512 OFFCURVE",
"155 537 OFFCURVE",
"155 554 CURVE SMOOTH",
"155 576 LINE",
"352 1 LINE",
"443 1 LINE",
"638 576 LINE",
"638 472 LINE SMOOTH",
"638 439 OFFCURVE",
"637 416 OFFCURVE",
"637 402 CURVE SMOOTH",
"637 1 LINE",
"723 1 LINE",
"723 681 LINE",
"593 681 LINE",
"398 106 LINE",
"202 681 LINE",
"70 681 LINE",
"70 1 LINE"
);
}
);
width = 793;
},
{
layerId = "070DF6F6-38EC-45CA-8FD7-ED5C2C5DB7AE";
paths = (
{
closed = 1;
nodes = (
"125 1 LINE",
"125 402 LINE SMOOTH",
"125 418 OFFCURVE",
"125 445 OFFCURVE",
"124 475 CURVE SMOOTH",
"123 507 OFFCURVE",
"123 543 OFFCURVE",
"123 554 CURVE SMOOTH",
"123 576 LINE",
"279 1 LINE",
"351 1 LINE",
"505 576 LINE",
"505 472 LINE SMOOTH",
"505 439 OFFCURVE",
"504 416 OFFCURVE",
"504 402 CURVE SMOOTH",
"504 1 LINE",
"573 1 LINE",
"573 681 LINE",
"470 681 LINE",
"315 106 LINE",
"160 681 LINE",
"55 681 LINE",
"55 1 LINE"
);
}
);
userData = {
RMXScaler = {
adjustSpace = -10;
weight = -10;
width = 90;
};
};
width = 628;
}
);
note = M;
unicode = 004D;
userData = {
RMXScaler = {
source = M;
};
};
},
{
glyphname = N;
lastChange = "2019-03-09 00:11:00 +0000";
layers = (
{
layerId = "994FE389-9D54-4FAA-B055-C46A67020E78";
paths = (
{
closed = 1;
nodes = (
"159 -2 LINE",
"159 551 LINE",
"509 -2 LINE",
"612 -2 LINE",
"612 682 LINE",
"525 682 LINE",
"525 128 LINE",
"180 682 LINE",
"70 682 LINE",
"70 -2 LINE"
);
}
);
width = 682;
},
{
layerId = "070DF6F6-38EC-45CA-8FD7-ED5C2C5DB7AE";
paths = (
{
closed = 1;
nodes = (
"125 -2 LINE",
"125 551 LINE",
"403 -2 LINE",
"485 -2 LINE",
"485 682 LINE",
"416 682 LINE",
"416 128 LINE",
"142 682 LINE",
"55 682 LINE",
"55 -2 LINE"
);
}
);
userData = {
RMXScaler = {
adjustSpace = -10;
weight = -10;
width = 90;
};
};
width = 540;
}
);
note = N;
unicode = 004E;
userData = {
RMXScaler = {
source = N;
};
};
},
{
glyphname = O;
lastChange = "2019-03-09 00:11:00 +0000";
layers = (
{
layerId = "994FE389-9D54-4FAA-B055-C46A67020E78";
paths = (
{
closed = 1;
nodes = (
"492 -10 OFFCURVE",
"576 29 OFFCURVE",
"634 104 CURVE SMOOTH",
"686 171 OFFCURVE",
"709 252 OFFCURVE",
"710 349 CURVE SMOOTH",
"711 423 OFFCURVE",
"688 515 OFFCURVE",
"645 572 CURVE SMOOTH",
"588 646 OFFCURVE",
"503 685 OFFCURVE",
"387 685 CURVE SMOOTH",
"279 685 OFFCURVE",
"193 644 OFFCURVE",
"135 562 CURVE SMOOTH",
"91 499 OFFCURVE",
"70 423 OFFCURVE",
"70 335 CURVE SMOOTH",
"70 236 OFFCURVE",
"95 156 OFFCURVE",
"147 90 CURVE",
"205 24 OFFCURVE",
"285 -10 OFFCURVE",
"385 -10 CURVE SMOOTH"
);
},
{
closed = 1;
nodes = (
"314 70 OFFCURVE",
"255 95 OFFCURVE",
"217 144 CURVE SMOOTH",
"179 194 OFFCURVE",
"162 254 OFFCURVE",
"162 328 CURVE SMOOTH",
"162 415 OFFCURVE",
"182 488 OFFCURVE",
"226 536 CURVE SMOOTH",
"269 583 OFFCURVE",
"328 606 OFFCURVE",
"393 606 CURVE SMOOTH",
"463 606 OFFCURVE",
"517 581 OFFCURVE",
"558 535 CURVE SMOOTH",
"599 488 OFFCURVE",
"618 426 OFFCURVE",
"618 348 CURVE SMOOTH",
"618 275 OFFCURVE",
"601 211 OFFCURVE",
"566 155 CURVE SMOOTH",
"531 97 OFFCURVE",
"474 70 OFFCURVE",
"396 70 CURVE SMOOTH"
);
}
);
width = 780;
},
{
layerId = "070DF6F6-38EC-45CA-8FD7-ED5C2C5DB7AE";
paths = (
{
closed = 1;
nodes = (
"390 -10 OFFCURVE",
"456 29 OFFCURVE",
"501 102 CURVE SMOOTH",
"544 173 OFFCURVE",
"561 245 OFFCURVE",
"562 349 CURVE SMOOTH",
"563 423 OFFCURVE",
"546 514 OFFCURVE",
"511 571 CURVE SMOOTH",
"465 646 OFFCURVE",
"399 685 OFFCURVE",
"306 685 CURVE SMOOTH",
"219 685 OFFCURVE",
"153 644 OFFCURVE",
"106 560 CURVE SMOOTH",
"72 499 OFFCURVE",
"55 425 OFFCURVE",
"55 335 CURVE SMOOTH",
"55 233 OFFCURVE",
"75 155 OFFCURVE",
"116 90 CURVE",
"159 30 OFFCURVE",
"222 -10 OFFCURVE",
"305 -10 CURVE SMOOTH"
);
},
{
closed = 1;
nodes = (
"252 70 OFFCURVE",
"202 93 OFFCURVE",
"173 141 CURVE SMOOTH",
"141 194 OFFCURVE",
"128 254 OFFCURVE",
"128 328 CURVE SMOOTH",
"128 412 OFFCURVE",
"142 484 OFFCURVE",
"178 534 CURVE SMOOTH",
"213 583 OFFCURVE",
"258 606 OFFCURVE",
"311 606 CURVE SMOOTH",
"367 606 OFFCURVE",
"409 581 OFFCURVE",
"441 536 CURVE SMOOTH",
"474 488 OFFCURVE",
"489 430 OFFCURVE",
"489 348 CURVE SMOOTH",
"489 276 OFFCURVE",
"476 211 OFFCURVE",
"448 154 CURVE SMOOTH",
"419 94 OFFCURVE",
"372 70 OFFCURVE",
"313 70 CURVE SMOOTH"
);
}
);
userData = {
RMXScaler = {
adjustSpace = -10;
weight = -10;
width = 90;
};
};
width = 617;
}
);
note = O;
unicode = 004F;
userData = {
RMXScaler = {
source = O;
};
};
},
{
glyphname = P;
lastChange = "2019-03-09 00:11:00 +0000";
layers = (
{
layerId = "994FE389-9D54-4FAA-B055-C46A67020E78";
paths = (
{
closed = 1;
nodes = (
"162 0 LINE",
"162 288 LINE",
"377 288 LINE SMOOTH",
"446 288 OFFCURVE",
"497 307 OFFCURVE",
"530 347 CURVE SMOOTH",
"562 386 OFFCURVE",
"580 433 OFFCURVE",
"580 486 CURVE SMOOTH",
"580 548 OFFCURVE",
"561 596 OFFCURVE",
"524 631 CURVE SMOOTH",
"487 666 OFFCURVE",
"438 682 OFFCURVE",
"377 682 CURVE SMOOTH",
"70 682 LINE",
"70 0 LINE"
);
},
{
closed = 1;
nodes = (
"162 603 LINE",
"346 603 LINE SMOOTH",
"382 603 OFFCURVE",
"410 597 OFFCURVE",
"431 588 CURVE SMOOTH",
"468 572 OFFCURVE",
"486 536 OFFCURVE",
"486 486 CURVE SMOOTH",
"486 441 OFFCURVE",
"472 410 OFFCURVE",
"448 392 CURVE SMOOTH",
"423 374 OFFCURVE",
"388 366 OFFCURVE",
"346 366 CURVE SMOOTH",
"162 366 LINE"
);
}
);
width = 650;
},
{
layerId = "070DF6F6-38EC-45CA-8FD7-ED5C2C5DB7AE";
paths = (
{
closed = 1;
nodes = (
"128 0 LINE",
"128 288 LINE",
"298 288 LINE SMOOTH",
"353 288 OFFCURVE",
"393 307 OFFCURVE",
"419 346 CURVE SMOOTH",
"445 386 OFFCURVE",
"459 433 OFFCURVE",
"459 486 CURVE SMOOTH",
"459 545 OFFCURVE",
"444 596 OFFCURVE",
"416 630 CURVE SMOOTH",
"386 666 OFFCURVE",
"347 682 OFFCURVE",
"298 682 CURVE SMOOTH",
"55 682 LINE",
"55 0 LINE"
);
},
{
closed = 1;
nodes = (
"128 603 LINE",
"273 603 LINE SMOOTH",
"300 603 OFFCURVE",
"323 598 OFFCURVE",
"341 588 CURVE SMOOTH",
"370 572 OFFCURVE",
"384 537 OFFCURVE",
"384 486 CURVE SMOOTH",
"384 440 OFFCURVE",
"374 410 OFFCURVE",
"354 392 CURVE SMOOTH",
"332 372 OFFCURVE",
"305 366 OFFCURVE",
"273 366 CURVE SMOOTH",
"128 366 LINE"
);
}
);
userData = {
RMXScaler = {
adjustSpace = -10;
weight = -10;
width = 90;
};
};
width = 514;
}
);
note = P;
unicode = 0050;
userData = {
RMXScaler = {
source = P;
};
};
},
{
glyphname = Q;
lastChange = "2019-03-09 00:11:00 +0000";
layers = (
{
layerId = "994FE389-9D54-4FAA-B055-C46A67020E78";
paths = (
{
closed = 1;
nodes = (
"705 15 LINE",
"615 84 LINE",
"652 122 OFFCURVE",
"679 170 OFFCURVE",
"695 230 CURVE SMOOTH",
"705 268 OFFCURVE",
"709 307 OFFCURVE",
"709 352 CURVE SMOOTH",
"709 447 OFFCURVE",
"684 521 OFFCURVE",
"646 573 CURVE SMOOTH",
"589 651 OFFCURVE",
"504 686 OFFCURVE",
"387 686 CURVE SMOOTH",
"276 686 OFFCURVE",
"193 646 OFFCURVE",
"136 565 CURVE SMOOTH",
"92 501 OFFCURVE",
"70 426 OFFCURVE",
"70 337 CURVE SMOOTH",
"70 239 OFFCURVE",
"96 157 OFFCURVE",
"146 93 CURVE",
"204 26 OFFCURVE",
"285 -7 OFFCURVE",
"386 -7 CURVE SMOOTH",
"419 -7 OFFCURVE",
"451 -4 OFFCURVE",
"479 6 CURVE SMOOTH",
"506 15 OFFCURVE",
"534 24 OFFCURVE",
"558 37 CURVE",
"660 -40 LINE"
);
},
{
closed = 1;
nodes = (
"319 72 OFFCURVE",
"261 96 OFFCURVE",
"222 143 CURVE SMOOTH",
"183 190 OFFCURVE",
"162 252 OFFCURVE",
"163 331 CURVE SMOOTH",
"164 425 OFFCURVE",
"183 494 OFFCURVE",
"224 539 CURVE SMOOTH",
"266 585 OFFCURVE",
"322 607 OFFCURVE",
"393 607 CURVE SMOOTH",
"466 607 OFFCURVE",
"519 582 OFFCURVE",
"558 536 CURVE SMOOTH",
"598 490 OFFCURVE",
"619 427 OFFCURVE",
"619 350 CURVE SMOOTH",
"619 315 OFFCURVE",
"614 278 OFFCURVE",
"605 240 CURVE SMOOTH",
"595 201 OFFCURVE",
"576 166 OFFCURVE",
"549 136 CURVE",
"463 203 LINE",
"419 147 LINE",
"491 91 LINE",
"478 84 OFFCURVE",
"464 79 OFFCURVE",
"448 76 CURVE",
"433 74 OFFCURVE",
"414 72 OFFCURVE",
"396 72 CURVE SMOOTH"
);
}
);
width = 779;
},
{
layerId = "070DF6F6-38EC-45CA-8FD7-ED5C2C5DB7AE";
paths = (
{
closed = 1;
nodes = (
"559 15 LINE",
"488 84 LINE",
"514 118 OFFCURVE",
"538 169 OFFCURVE",
"550 227 CURVE SMOOTH",
"559 270 OFFCURVE",
"561 313 OFFCURVE",
"561 352 CURVE SMOOTH",
"561 443 OFFCURVE",
"542 521 OFFCURVE",
"512 572 CURVE SMOOTH",
"466 651 OFFCURVE",
"400 686 OFFCURVE",
"306 686 CURVE SMOOTH",
"218 686 OFFCURVE",
"153 648 OFFCURVE",
"107 563 CURVE SMOOTH",
"73 501 OFFCURVE",
"55 430 OFFCURVE",
"55 337 CURVE SMOOTH",
"55 242 OFFCURVE",
"75 157 OFFCURVE",
"115 93 CURVE",
"162 26 OFFCURVE",
"225 -7 OFFCURVE",
"305 -7 CURVE SMOOTH",
"332 -7 OFFCURVE",
"357 -4 OFFCURVE",
"379 6 CURVE SMOOTH",
"398 14 OFFCURVE",
"421 22 OFFCURVE",
"442 37 CURVE",
"523 -40 LINE"
);
},
{
closed = 1;
nodes = (
"249 72 OFFCURVE",
"206 97 OFFCURVE",
"174 146 CURVE SMOOTH",
"145 190 OFFCURVE",
"128 247 OFFCURVE",
"129 331 CURVE SMOOTH",
"130 426 OFFCURVE",
"144 492 OFFCURVE",
"175 535 CURVE SMOOTH",
"210 585 OFFCURVE",
"254 607 OFFCURVE",
"311 607 CURVE SMOOTH",
"369 607 OFFCURVE",
"411 582 OFFCURVE",
"443 534 CURVE SMOOTH",
"473 490 OFFCURVE",
"490 428 OFFCURVE",
"490 350 CURVE SMOOTH",
"490 322 OFFCURVE",
"487 278 OFFCURVE",
"478 234 CURVE SMOOTH",
"472 205 OFFCURVE",
"454 163 OFFCURVE",
"435 136 CURVE",
"367 203 LINE",
"332 147 LINE",
"389 91 LINE",
"377 83 OFFCURVE",
"370 82 OFFCURVE",
"354 76 CURVE",
"343 74 OFFCURVE",
"327 72 OFFCURVE",
"313 72 CURVE SMOOTH"
);
}
);
userData = {
RMXScaler = {
adjustSpace = -10;
weight = -10;
width = 90;
};
};
width = 616;
}
);
note = Q;
unicode = 0051;
userData = {
RMXScaler = {
source = Q;
};
};
},
{
glyphname = R;
lastChange = "2019-03-09 00:11:00 +0000";
layers = (
{
layerId = "994FE389-9D54-4FAA-B055-C46A67020E78";
paths = (
{
closed = 1;
nodes = (
"163 0 LINE",
"163 293 LINE",
"373 293 LINE SMOOTH",
"410 293 OFFCURVE",
"437 288 OFFCURVE",
"457 280 CURVE SMOOTH",
"489 267 OFFCURVE",
"504 234 OFFCURVE",
"506 190 CURVE SMOOTH",
"511 76 LINE SMOOTH",
"513 31 OFFCURVE",
"515 31 OFFCURVE",
"516 23 CURVE",
"517 14 OFFCURVE",
"520 6 OFFCURVE",
"523 0 CURVE",
"636 0 LINE",
"636 16 LINE",
"621 22 OFFCURVE",
"611 34 OFFCURVE",
"606 56 CURVE",
"602 69 OFFCURVE",
"600 89 OFFCURVE",
"599 116 CURVE SMOOTH",
"596 206 LINE",
"596 245 OFFCURVE",
"589 275 OFFCURVE",
"575 293 CURVE",
"561 309 OFFCURVE",
"541 324 OFFCURVE",
"514 334 CURVE",
"545 350 OFFCURVE",
"568 371 OFFCURVE",
"584 396 CURVE SMOOTH",
"601 423 OFFCURVE",
"610 457 OFFCURVE",
"610 496 CURVE SMOOTH",
"610 575 OFFCURVE",
"577 628 OFFCURVE",
"514 659 CURVE SMOOTH",
"480 676 OFFCURVE",
"433 680 OFFCURVE",
"386 680 CURVE SMOOTH",
"70 680 LINE",
"70 0 LINE"
);
},
{
closed = 1;
nodes = (
"163 601 LINE",
"388 601 LINE SMOOTH",
"419 601 OFFCURVE",
"445 596 OFFCURVE",
"465 587 CURVE",
"501 573 OFFCURVE",
"516 537 OFFCURVE",
"516 487 CURVE SMOOTH",
"516 444 OFFCURVE",
"504 412 OFFCURVE",
"479 394 CURVE SMOOTH",
"455 376 OFFCURVE",
"419 369 OFFCURVE",
"376 369 CURVE SMOOTH",
"163 369 LINE"
);
}
);
width = 706;
},
{
layerId = "070DF6F6-38EC-45CA-8FD7-ED5C2C5DB7AE";
paths = (
{
closed = 1;
nodes = (
"129 0 LINE",
"129 293 LINE",
"296 293 LINE SMOOTH",
"324 293 OFFCURVE",
"346 288 OFFCURVE",
"362 280 CURVE SMOOTH",
"386 268 OFFCURVE",
"398 236 OFFCURVE",
"400 190 CURVE SMOOTH",
"405 76 LINE SMOOTH",
"407 31 OFFCURVE",
"408 32 OFFCURVE",
"408 23 CURVE",
"410 7 OFFCURVE",
"413 3 OFFCURVE",
"414 0 CURVE",
"503 0 LINE",
"503 16 LINE",
"492 22 OFFCURVE",
"483 32 OFFCURVE",
"479 56 CURVE",
"477 67 OFFCURVE",
"475 87 OFFCURVE",
"474 116 CURVE SMOOTH",
"472 206 LINE",
"472 246 OFFCURVE",
"466 275 OFFCURVE",
"456 293 CURVE",
"444 309 OFFCURVE",
"428 323 OFFCURVE",
"407 334 CURVE",
"430 348 OFFCURVE",
"450 371 OFFCURVE",
"462 395 CURVE SMOOTH",
"476 423 OFFCURVE",
"483 456 OFFCURVE",
"483 496 CURVE SMOOTH",
"483 577 OFFCURVE",
"457 628 OFFCURVE",
"407 659 CURVE SMOOTH",
"374 680 OFFCURVE",
"339 680 OFFCURVE",
"305 680 CURVE SMOOTH",
"55 680 LINE",
"55 0 LINE"
);
},
{
closed = 1;
nodes = (
"129 601 LINE",
"307 601 LINE SMOOTH",
"334 601 OFFCURVE",
"355 594 OFFCURVE",
"369 587 CURVE",
"397 573 OFFCURVE",
"408 534 OFFCURVE",
"408 487 CURVE SMOOTH",
"408 438 OFFCURVE",
"398 412 OFFCURVE",
"379 394 CURVE SMOOTH",
"354 369 OFFCURVE",
"320 369 OFFCURVE",
"297 369 CURVE SMOOTH",
"129 369 LINE"
);
}
);
userData = {
RMXScaler = {
adjustSpace = -10;
weight = -10;
width = 90;
};
};
width = 558;
}
);
note = R;
unicode = 0052;
userData = {
RMXScaler = {
source = R;
};
};
},
{
glyphname = S;
lastChange = "2019-03-09 00:11:00 +0000";
layers = (
{
layerId = "994FE389-9D54-4FAA-B055-C46A67020E78";
paths = (
{
closed = 1;
nodes = (
"406 -9 OFFCURVE",
"468 7 OFFCURVE",
"522 37 CURVE SMOOTH",
"576 68 OFFCURVE",
"603 123 OFFCURVE",
"603 197 CURVE SMOOTH",
"603 257 OFFCURVE",
"582 302 OFFCURVE",
"539 333 CURVE SMOOTH",
"513 352 OFFCURVE",
"480 366 OFFCURVE",
"434 376 CURVE SMOOTH",
"341 397 LINE SMOOTH",
"278 411 OFFCURVE",
"237 424 OFFCURVE",
"220 433 CURVE SMOOTH",
"192 447 OFFCURVE",
"178 473 OFFCURVE",
"178 505 CURVE SMOOTH",
"178 536 OFFCURVE",
"189 561 OFFCURVE",
"213 583 CURVE SMOOTH",
"239 606 OFFCURVE",
"275 617 OFFCURVE",
"329 617 CURVE SMOOTH",
"394 617 OFFCURVE",
"441 598 OFFCURVE",
"469 566 CURVE",
"484 547 OFFCURVE",
"493 519 OFFCURVE",
"498 483 CURVE",
"583 483 LINE",
"583 557 OFFCURVE",
"559 612 OFFCURVE",
"510 645 CURVE",
"460 676 OFFCURVE",
"402 696 OFFCURVE",
"332 696 CURVE SMOOTH",
"255 696 OFFCURVE",
"196 676 OFFCURVE",
"155 638 CURVE SMOOTH",
"112 598 OFFCURVE",
"92 549 OFFCURVE",
"92 489 CURVE SMOOTH",
"92 435 OFFCURVE",
"114 392 OFFCURVE",
"157 366 CURVE",
"181 350 OFFCURVE",
"222 333 OFFCURVE",
"281 320 CURVE SMOOTH",
"372 300 LINE SMOOTH",
"415 291 OFFCURVE",
"447 283 OFFCURVE",
"482 259 CURVE SMOOTH",
"501 247 OFFCURVE",
"515 220 OFFCURVE",
"515 183 CURVE SMOOTH",
"515 134 OFFCURVE",
"487 102 OFFCURVE",
"434 83 CURVE SMOOTH",
"406 73 OFFCURVE",
"374 67 OFFCURVE",
"341 67 CURVE SMOOTH",
"264 67 OFFCURVE",
"211 88 OFFCURVE",
"182 133 CURVE SMOOTH",
"166 158 OFFCURVE",
"158 188 OFFCURVE",
"156 226 CURVE",
"70 226 LINE",
"70 155 OFFCURVE",
"92 96 OFFCURVE",
"140 55 CURVE SMOOTH",
"187 14 OFFCURVE",
"252 -9 OFFCURVE",
"334 -9 CURVE SMOOTH"
);
}
);
width = 673;
},
{
layerId = "070DF6F6-38EC-45CA-8FD7-ED5C2C5DB7AE";
paths = (
{
closed = 1;
nodes = (
"323 -9 OFFCURVE",
"370 7 OFFCURVE",
"415 39 CURVE SMOOTH",
"456 68 OFFCURVE",
"478 123 OFFCURVE",
"478 197 CURVE SMOOTH",
"478 256 OFFCURVE",
"461 302 OFFCURVE",
"427 333 CURVE SMOOTH",
"406 352 OFFCURVE",
"379 366 OFFCURVE",
"344 376 CURVE SMOOTH",
"270 397 LINE SMOOTH",
"220 411 OFFCURVE",
"188 424 OFFCURVE",
"174 433 CURVE SMOOTH",
"152 447 OFFCURVE",
"140 473 OFFCURVE",
"140 505 CURVE SMOOTH",
"140 538 OFFCURVE",
"149 561 OFFCURVE",
"169 583 CURVE SMOOTH",
"189 606 OFFCURVE",
"216 617 OFFCURVE",
"260 617 CURVE SMOOTH",
"311 617 OFFCURVE",
"349 598 OFFCURVE",
"371 566 CURVE",
"384 547 OFFCURVE",
"390 516 OFFCURVE",
"394 483 CURVE",
"462 483 LINE",
"462 562 OFFCURVE",
"440 614 OFFCURVE",
"404 645 CURVE",
"364 676 OFFCURVE",
"317 696 OFFCURVE",
"263 696 CURVE SMOOTH",
"205 696 OFFCURVE",
"155 677 OFFCURVE",
"122 638 CURVE SMOOTH",
"89 599 OFFCURVE",
"73 548 OFFCURVE",
"73 489 CURVE SMOOTH",
"73 436 OFFCURVE",
"90 392 OFFCURVE",
"124 366 CURVE",
"145 348 OFFCURVE",
"177 333 OFFCURVE",
"222 320 CURVE SMOOTH",
"295 300 LINE SMOOTH",
"328 291 OFFCURVE",
"353 283 OFFCURVE",
"382 259 CURVE SMOOTH",
"397 247 OFFCURVE",
"408 217 OFFCURVE",
"408 183 CURVE SMOOTH",
"408 134 OFFCURVE",
"385 102 OFFCURVE",
"344 83 CURVE SMOOTH",
"321 73 OFFCURVE",
"295 67 OFFCURVE",
"270 67 CURVE SMOOTH",
"206 67 OFFCURVE",
"164 92 OFFCURVE",
"145 129 CURVE SMOOTH",
"131 156 OFFCURVE",
"124 192 OFFCURVE",
"123 226 CURVE",
"55 226 LINE",
"55 152 OFFCURVE",
"73 96 OFFCURVE",
"111 54 CURVE SMOOTH",
"151 10 OFFCURVE",
"203 -9 OFFCURVE",
"265 -9 CURVE SMOOTH"
);
}
);
userData = {
RMXScaler = {
adjustSpace = -10;
weight = -10;
width = 90;
};
};
width = 533;
}
);
note = S;
unicode = 0053;
userData = {
RMXScaler = {
source = S;
};
};
},
{
glyphname = T;
lastChange = "2019-03-09 00:11:00 +0000";
layers = (
{
layerId = "994FE389-9D54-4FAA-B055-C46A67020E78";
paths = (
{
closed = 1;
nodes = (
"391 1 LINE",
"391 600 LINE",
"621 600 LINE",
"621 681 LINE",
"70 681 LINE",
"70 600 LINE",
"300 600 LINE",
"300 1 LINE"
);
}
);
width = 691;
},
{
layerId = "070DF6F6-38EC-45CA-8FD7-ED5C2C5DB7AE";
paths = (
{
closed = 1;
nodes = (
"310 1 LINE",
"310 600 LINE",
"492 600 LINE",
"492 681 LINE",
"55 681 LINE",
"55 600 LINE",
"237 600 LINE",
"237 1 LINE"
);
}
);
userData = {
RMXScaler = {
adjustSpace = -10;
weight = -10;
width = 90;
};
};
width = 547;
}
);
note = T;
unicode = 0054;
userData = {
RMXScaler = {
source = T;
};
};
},
{
glyphname = U;
lastChange = "2019-03-09 00:11:00 +0000";
layers = (
{
layerId = "994FE389-9D54-4FAA-B055-C46A67020E78";
paths = (
{
closed = 1;
nodes = (
"428 -5 OFFCURVE",
"502 34 OFFCURVE",
"540 110 CURVE SMOOTH",
"561 152 OFFCURVE",
"571 212 OFFCURVE",
"571 291 CURVE SMOOTH",
"571 648 LINE",
"484 648 LINE",
"484 255 LINE SMOOTH",
"484 208 OFFCURVE",
"476 172 OFFCURVE",
"462 146 CURVE SMOOTH",
"435 96 OFFCURVE",
"386 70 OFFCURVE",
"314 70 CURVE SMOOTH",
"253 70 OFFCURVE",
"208 93 OFFCURVE",
"183 140 CURVE SMOOTH",
"166 170 OFFCURVE",
"157 208 OFFCURVE",
"157 255 CURVE SMOOTH",
"157 648 LINE",
"70 648 LINE",
"70 291 LINE SMOOTH",
"70 235 OFFCURVE",
"70 174 OFFCURVE",
"101 110 CURVE SMOOTH",
"138 33 OFFCURVE",
"214 -5 OFFCURVE",
"320 -5 CURVE SMOOTH"
);
}
);
width = 641;
},
{
layerId = "070DF6F6-38EC-45CA-8FD7-ED5C2C5DB7AE";
paths = (
{
closed = 1;
nodes = (
"339 -5 OFFCURVE",
"398 34 OFFCURVE",
"428 111 CURVE SMOOTH",
"444 152 OFFCURVE",
"452 212 OFFCURVE",
"452 291 CURVE SMOOTH",
"452 648 LINE",
"384 648 LINE",
"384 255 LINE SMOOTH",
"384 211 OFFCURVE",
"376 169 OFFCURVE",
"366 146 CURVE SMOOTH",
"345 98 OFFCURVE",
"306 70 OFFCURVE",
"249 70 CURVE SMOOTH",
"196 70 OFFCURVE",
"162 98 OFFCURVE",
"145 139 CURVE SMOOTH",
"128 180 OFFCURVE",
"124 223 OFFCURVE",
"124 255 CURVE SMOOTH",
"124 648 LINE",
"55 648 LINE",
"55 291 LINE SMOOTH",
"55 234 OFFCURVE",
"55 176 OFFCURVE",
"80 109 CURVE SMOOTH",
"109 33 OFFCURVE",
"170 -5 OFFCURVE",
"253 -5 CURVE SMOOTH"
);
}
);
userData = {
RMXScaler = {
adjustSpace = -10;
weight = -10;
width = 90;
};
};
width = 507;
}
);
note = U;
unicode = 0055;
userData = {
RMXScaler = {
source = U;
};
};
},
{
glyphname = V;
lastChange = "2019-03-09 00:11:00 +0000";
layers = (
{
layerId = "994FE389-9D54-4FAA-B055-C46A67020E78";
paths = (
{
closed = 1;
nodes = (
"413 0 LINE",
"662 680 LINE",
"559 680 LINE",
"365 102 LINE",
"171 680 LINE",
"70 680 LINE",
"317 0 LINE"
);
}
);
width = 732;
},
{
layerId = "070DF6F6-38EC-45CA-8FD7-ED5C2C5DB7AE";
paths = (
{
closed = 1;
nodes = (
"327 0 LINE",
"525 680 LINE",
"443 680 LINE",
"289 102 LINE",
"135 680 LINE",
"55 680 LINE",
"250 0 LINE"
);
}
);
userData = {
RMXScaler = {
adjustSpace = -10;
weight = -10;
width = 90;
};
};
width = 580;
}
);
note = V;
unicode = 0056;
userData = {
RMXScaler = {
source = V;
};
};
},
{
glyphname = W;
lastChange = "2019-03-09 00:11:00 +0000";
layers = (
{
layerId = "994FE389-9D54-4FAA-B055-C46A67020E78";
paths = (
{
closed = 1;
nodes = (
"346 0 LINE",
"504 566 LINE",
"662 0 LINE",
"760 0 LINE",
"940 684 LINE",
"838 684 LINE",
"709 128 LINE",
"555 684 LINE",
"453 684 LINE",
"300 128 LINE",
"170 684 LINE",
"70 684 LINE",
"250 0 LINE"
);
}
);
width = 1010;
},
{
layerId = "070DF6F6-38EC-45CA-8FD7-ED5C2C5DB7AE";
paths = (
{
closed = 1;
nodes = (
"273 0 LINE",
"399 566 LINE",
"525 0 LINE",
"602 0 LINE",
"745 684 LINE",
"664 684 LINE",
"561 128 LINE",
"440 684 LINE",
"359 684 LINE",
"237 128 LINE",
"134 684 LINE",
"55 684 LINE",
"198 0 LINE"
);
}
);
userData = {
RMXScaler = {
adjustSpace = -10;
weight = -10;
width = 90;
};
};
width = 800;
}
);
note = W;
unicode = 0057;
userData = {
RMXScaler = {
source = W;
};
};
},
{
glyphname = X;
lastChange = "2019-03-09 00:11:00 +0000";
layers = (
{
layerId = "994FE389-9D54-4FAA-B055-C46A67020E78";
paths = (
{
closed = 1;
nodes = (
"182 0 LINE",
"373 283 LINE",
"557 0 LINE",
"673 0 LINE",
"431 351 LINE",
"661 686 LINE",
"551 686 LINE",
"377 424 LINE",
"201 686 LINE",
"85 686 LINE",
"317 351 LINE",
"70 0 LINE"
);
}
);
width = 743;
},
{
layerId = "070DF6F6-38EC-45CA-8FD7-ED5C2C5DB7AE";
paths = (
{
closed = 1;
nodes = (
"144 0 LINE",
"296 283 LINE",
"441 0 LINE",
"533 0 LINE",
"341 351 LINE",
"524 686 LINE",
"436 686 LINE",
"298 424 LINE",
"159 686 LINE",
"66 686 LINE",
"250 351 LINE",
"55 0 LINE"
);
}
);
userData = {
RMXScaler = {
adjustSpace = -10;
weight = -10;
width = 90;
};
};
width = 588;
}
);
note = X;
unicode = 0058;
userData = {
RMXScaler = {
source = X;
};
};
},
{
glyphname = Y;
lastChange = "2019-03-09 00:11:00 +0000";
layers = (
{
layerId = "994FE389-9D54-4FAA-B055-C46A67020E78";
paths = (
{
closed = 1;
nodes = (
"402 0 LINE",
"402 262 LINE",
"648 649 LINE",
"544 649 LINE",
"359 337 LINE",
"173 649 LINE",
"70 649 LINE",
"314 262 LINE",
"314 0 LINE"
);
}
);
width = 718;
},
{
layerId = "070DF6F6-38EC-45CA-8FD7-ED5C2C5DB7AE";
paths = (
{
closed = 1;
nodes = (
"318 0 LINE",
"318 262 LINE",
"513 649 LINE",
"431 649 LINE",
"284 337 LINE",
"137 649 LINE",
"55 649 LINE",
"249 262 LINE",
"249 0 LINE"
);
}
);
userData = {
RMXScaler = {
adjustSpace = -10;
weight = -10;
width = 90;
};
};
width = 568;
}
);
note = Y;
unicode = 0059;
userData = {
RMXScaler = {
source = Y;
};
};
},
{
glyphname = Z;
lastChange = "2019-03-09 00:11:00 +0000";
layers = (
{
layerId = "994FE389-9D54-4FAA-B055-C46A67020E78";
paths = (
{
closed = 1;
nodes = (
"606 1 LINE",
"606 83 LINE",
"186 83 LINE",
"606 602 LINE",
"606 681 LINE",
"100 681 LINE",
"100 600 LINE",
"487 600 LINE",
"70 78 LINE",
"70 1 LINE"
);
}
);
width = 676;
},
{
layerId = "070DF6F6-38EC-45CA-8FD7-ED5C2C5DB7AE";
paths = (
{
closed = 1;
nodes = (
"479 1 LINE",
"479 83 LINE",
"147 83 LINE",
"479 602 LINE",
"479 681 LINE",
"79 681 LINE",
"79 600 LINE",
"385 600 LINE",
"55 78 LINE",
"55 1 LINE"
);
}
);
userData = {
RMXScaler = {
adjustSpace = -10;
weight = -10;
width = 90;
};
};
width = 534;
}
);
note = Z;
unicode = 005A;
userData = {
RMXScaler = {
source = Z;
};
};
},
{
glyphname = a;
lastChange = "2019-03-09 00:11:00 +0000";
layers = (
{
layerId = "994FE389-9D54-4FAA-B055-C46A67020E78";
paths = (
{
closed = 1;
nodes = (
"273 -11 OFFCURVE",
"308 -1 OFFCURVE",
"344 17 CURVE SMOOTH",
"359 25 OFFCURVE",
"404 53 OFFCURVE",
"419 76 CURVE",
"422 56 OFFCURVE",
"428 40 OFFCURVE",
"435 29 CURVE SMOOTH",
"449 8 OFFCURVE",
"470 -3 OFFCURVE",
"500 -3 CURVE SMOOTH",
"513 -3 OFFCURVE",
"522 -3 OFFCURVE",
"529 -2 CURVE SMOOTH",
"536 -1 OFFCURVE",
"549 1 OFFCURVE",
"561 6 CURVE",
"561 70 LINE",
"545 67 LINE SMOOTH",
"540 66 OFFCURVE",
"537 66 OFFCURVE",
"533 66 CURVE SMOOTH",
"520 66 OFFCURVE",
"512 70 OFFCURVE",
"507 75 CURVE SMOOTH",
"501 81 OFFCURVE",
"502 87 OFFCURVE",
"502 96 CURVE SMOOTH",
"502 395 LINE SMOOTH",
"502 446 OFFCURVE",
"485 483 OFFCURVE",
"446 505 CURVE SMOOTH",
"408 526 OFFCURVE",
"359 541 OFFCURVE",
"298 541 CURVE SMOOTH",
"243 541 OFFCURVE",
"198 526 OFFCURVE",
"158 502 CURVE SMOOTH",
"118 478 OFFCURVE",
"97 433 OFFCURVE",
"95 369 CURVE",
"177 369 LINE",
"180 394 OFFCURVE",
"187 415 OFFCURVE",
"198 429 CURVE SMOOTH",
"217 454 OFFCURVE",
"248 466 OFFCURVE",
"296 466 CURVE SMOOTH",
"335 466 OFFCURVE",
"365 459 OFFCURVE",
"387 446 CURVE",
"408 435 OFFCURVE",
"418 410 OFFCURVE",
"418 382 CURVE SMOOTH",
"418 368 OFFCURVE",
"415 356 OFFCURVE",
"411 348 CURVE",
"407 331 OFFCURVE",
"393 324 OFFCURVE",
"373 321 CURVE SMOOTH",
"233 303 LINE SMOOTH",
"193 298 OFFCURVE",
"152 292 OFFCURVE",
"114 256 CURVE SMOOTH",
"86 230 OFFCURVE",
"70 196 OFFCURVE",
"70 142 CURVE SMOOTH",
"70 100 OFFCURVE",
"84 62 OFFCURVE",
"115 36 CURVE",
"148 6 OFFCURVE",
"185 -11 OFFCURVE",
"234 -11 CURVE SMOOTH"
);
},
{
closed = 1;
nodes = (
"229 64 OFFCURVE",
"207 70 OFFCURVE",
"188 86 CURVE SMOOTH",
"169 101 OFFCURVE",
"159 120 OFFCURVE",
"159 145 CURVE SMOOTH",
"159 179 OFFCURVE",
"175 203 OFFCURVE",
"201 216 CURVE",
"217 225 OFFCURVE",
"241 232 OFFCURVE",
"271 237 CURVE SMOOTH",
"327 246 LINE",
"341 247 OFFCURVE",
"358 251 OFFCURVE",
"375 255 CURVE",
"392 258 OFFCURVE",
"407 265 OFFCURVE",
"415 273 CURVE",
"415 203 LINE SMOOTH",
"415 147 OFFCURVE",
"391 111 OFFCURVE",
"343 85 CURVE SMOOTH",
"316 70 OFFCURVE",
"285 64 OFFCURVE",
"253 64 CURVE SMOOTH"
);
}
);
width = 631;
},
{
layerId = "070DF6F6-38EC-45CA-8FD7-ED5C2C5DB7AE";
paths = (
{
closed = 1;
nodes = (
"214 -11 OFFCURVE",
"247 1 OFFCURVE",
"273 17 CURVE SMOOTH",
"283 23 OFFCURVE",
"311 43 OFFCURVE",
"332 76 CURVE",
"335 54 OFFCURVE",
"338 42 OFFCURVE",
"344 31 CURVE SMOOTH",
"355 10 OFFCURVE",
"368 -3 OFFCURVE",
"396 -3 CURVE SMOOTH",
"405 -3 OFFCURVE",
"414 -3 OFFCURVE",
"419 -2 CURVE SMOOTH",
"424 -1 OFFCURVE",
"434 1 OFFCURVE",
"444 6 CURVE",
"444 70 LINE",
"431 67 LINE SMOOTH",
"428 66 OFFCURVE",
"424 66 OFFCURVE",
"422 66 CURVE SMOOTH",
"410 66 OFFCURVE",
"403 72 OFFCURVE",
"401 75 CURVE SMOOTH",
"397 80 OFFCURVE",
"398 90 OFFCURVE",
"398 96 CURVE SMOOTH",
"398 395 LINE SMOOTH",
"398 426 OFFCURVE",
"389 479 OFFCURVE",
"355 503 CURVE SMOOTH",
"323 526 OFFCURVE",
"285 541 OFFCURVE",
"236 541 CURVE SMOOTH",
"193 541 OFFCURVE",
"156 526 OFFCURVE",
"123 501 CURVE SMOOTH",
"94 480 OFFCURVE",
"76 430 OFFCURVE",
"74 369 CURVE",
"139 369 LINE",
"142 394 OFFCURVE",
"149 418 OFFCURVE",
"156 429 CURVE SMOOTH",
"171 454 OFFCURVE",
"198 466 OFFCURVE",
"234 466 CURVE SMOOTH",
"266 466 OFFCURVE",
"288 459 OFFCURVE",
"306 446 CURVE",
"323 435 OFFCURVE",
"331 409 OFFCURVE",
"331 382 CURVE SMOOTH",
"331 372 OFFCURVE",
"329 358 OFFCURVE",
"325 348 CURVE",
"322 327 OFFCURVE",
"308 323 OFFCURVE",
"296 321 CURVE SMOOTH",
"184 303 LINE SMOOTH",
"153 298 OFFCURVE",
"122 295 OFFCURVE",
"89 254 CURVE SMOOTH",
"64 222 OFFCURVE",
"55 188 OFFCURVE",
"55 142 CURVE SMOOTH",
"55 100 OFFCURVE",
"66 62 OFFCURVE",
"90 36 CURVE",
"117 6 OFFCURVE",
"147 -11 OFFCURVE",
"185 -11 CURVE SMOOTH"
);
},
{
closed = 1;
nodes = (
"183 64 OFFCURVE",
"163 70 OFFCURVE",
"148 86 CURVE SMOOTH",
"133 101 OFFCURVE",
"125 124 OFFCURVE",
"125 145 CURVE SMOOTH",
"125 181 OFFCURVE",
"139 203 OFFCURVE",
"159 216 CURVE",
"171 225 OFFCURVE",
"193 232 OFFCURVE",
"214 237 CURVE SMOOTH",
"258 246 LINE",
"270 247 OFFCURVE",
"284 252 OFFCURVE",
"297 255 CURVE",
"311 258 OFFCURVE",
"320 266 OFFCURVE",
"329 273 CURVE",
"329 203 LINE SMOOTH",
"329 150 OFFCURVE",
"310 111 OFFCURVE",
"272 85 CURVE SMOOTH",
"250 70 OFFCURVE",
"224 64 OFFCURVE",
"200 64 CURVE SMOOTH"
);
}
);
userData = {
RMXScaler = {
adjustSpace = -10;
weight = -10;
width = 90;
};
};
width = 499;
}
);
note = a;
unicode = 0061;
userData = {
RMXScaler = {
source = a;
};
};
},
{
glyphname = b;
lastChange = "2019-03-09 00:11:00 +0000";
layers = (
{
layerId = "994FE389-9D54-4FAA-B055-C46A67020E78";
paths = (
{
closed = 1;
nodes = (
"381 -16 OFFCURVE",
"436 10 OFFCURVE",
"476 67 CURVE SMOOTH",
"514 123 OFFCURVE",
"536 190 OFFCURVE",
"536 274 CURVE SMOOTH",
"536 366 OFFCURVE",
"516 433 OFFCURVE",
"476 475 CURVE SMOOTH",
"433 520 OFFCURVE",
"380 542 OFFCURVE",
"316 542 CURVE SMOOTH",
"285 542 OFFCURVE",
"255 535 OFFCURVE",
"227 522 CURVE SMOOTH",
"200 509 OFFCURVE",
"176 491 OFFCURVE",
"158 465 CURVE",
"158 727 LINE",
"70 727 LINE",
"70 0 LINE",
"152 0 LINE",
"152 69 LINE",
"172 43 OFFCURVE",
"190 24 OFFCURVE",
"206 12 CURVE",
"235 -8 OFFCURVE",
"268 -16 OFFCURVE",
"309 -16 CURVE SMOOTH"
);
},
{
closed = 1;
nodes = (
"239 63 OFFCURVE",
"195 91 OFFCURVE",
"171 148 CURVE SMOOTH",
"158 179 OFFCURVE",
"152 219 OFFCURVE",
"152 270 CURVE SMOOTH",
"152 338 OFFCURVE",
"169 387 OFFCURVE",
"198 418 CURVE SMOOTH",
"228 450 OFFCURVE",
"265 464 OFFCURVE",
"306 464 CURVE SMOOTH",
"353 464 OFFCURVE",
"387 446 OFFCURVE",
"412 408 CURVE SMOOTH",
"436 372 OFFCURVE",
"446 326 OFFCURVE",
"446 270 CURVE SMOOTH",
"446 207 OFFCURVE",
"435 156 OFFCURVE",
"412 117 CURVE SMOOTH",
"389 79 OFFCURVE",
"352 63 OFFCURVE",
"304 63 CURVE SMOOTH"
);
}
);
width = 606;
},
{
layerId = "070DF6F6-38EC-45CA-8FD7-ED5C2C5DB7AE";
paths = (
{
closed = 1;
nodes = (
"297 -16 OFFCURVE",
"343 4 OFFCURVE",
"378 69 CURVE SMOOTH",
"407 123 OFFCURVE",
"424 194 OFFCURVE",
"424 274 CURVE SMOOTH",
"424 361 OFFCURVE",
"409 433 OFFCURVE",
"377 476 CURVE SMOOTH",
"343 520 OFFCURVE",
"300 542 OFFCURVE",
"250 542 CURVE SMOOTH",
"222 542 OFFCURVE",
"197 531 OFFCURVE",
"179 522 CURVE SMOOTH",
"161 513 OFFCURVE",
"138 489 OFFCURVE",
"125 465 CURVE",
"125 727 LINE",
"55 727 LINE",
"55 0 LINE",
"120 0 LINE",
"120 69 LINE",
"136 43 OFFCURVE",
"150 24 OFFCURVE",
"162 12 CURVE",
"183 -4 OFFCURVE",
"207 -16 OFFCURVE",
"244 -16 CURVE SMOOTH"
);
},
{
closed = 1;
nodes = (
"186 63 OFFCURVE",
"153 95 OFFCURVE",
"135 148 CURVE SMOOTH",
"125 178 OFFCURVE",
"120 219 OFFCURVE",
"120 270 CURVE SMOOTH",
"120 335 OFFCURVE",
"133 387 OFFCURVE",
"157 419 CURVE SMOOTH",
"180 450 OFFCURVE",
"211 464 OFFCURVE",
"242 464 CURVE SMOOTH",
"280 464 OFFCURVE",
"306 446 OFFCURVE",
"326 408 CURVE SMOOTH",
"345 372 OFFCURVE",
"353 328 OFFCURVE",
"353 270 CURVE SMOOTH",
"353 213 OFFCURVE",
"346 158 OFFCURVE",
"326 117 CURVE SMOOTH",
"308 81 OFFCURVE",
"283 63 OFFCURVE",
"241 63 CURVE SMOOTH"
);
}
);
userData = {
RMXScaler = {
adjustSpace = -10;
weight = -10;
width = 90;
};
};
width = 479;
}
);
leftKerningGroup = b;
note = b;
rightKerningGroup = o;
unicode = 0062;
userData = {
RMXScaler = {
source = b;
};
};
},
{
glyphname = c;
lastChange = "2019-03-09 00:11:00 +0000";
layers = (
{
layerId = "994FE389-9D54-4FAA-B055-C46A67020E78";
paths = (
{
closed = 1;
nodes = (
"355 -9 OFFCURVE",
"404 6 OFFCURVE",
"442 38 CURVE SMOOTH",
"481 71 OFFCURVE",
"506 120 OFFCURVE",
"515 190 CURVE",
"430 190 LINE",
"422 152 OFFCURVE",
"406 121 OFFCURVE",
"386 99 CURVE SMOOTH",
"365 76 OFFCURVE",
"335 66 OFFCURVE",
"300 66 CURVE SMOOTH",
"258 66 OFFCURVE",
"217 81 OFFCURVE",
"195 118 CURVE SMOOTH",
"175 151 OFFCURVE",
"162 197 OFFCURVE",
"162 250 CURVE SMOOTH",
"162 302 OFFCURVE",
"171 346 OFFCURVE",
"186 381 CURVE SMOOTH",
"211 436 OFFCURVE",
"250 463 OFFCURVE",
"305 463 CURVE SMOOTH",
"345 463 OFFCURVE",
"375 451 OFFCURVE",
"395 430 CURVE SMOOTH",
"414 410 OFFCURVE",
"425 383 OFFCURVE",
"430 351 CURVE",
"515 351 LINE",
"508 421 OFFCURVE",
"484 469 OFFCURVE",
"448 499 CURVE SMOOTH",
"415 528 OFFCURVE",
"365 540 OFFCURVE",
"305 540 CURVE SMOOTH",
"239 540 OFFCURVE",
"181 517 OFFCURVE",
"135 466 CURVE SMOOTH",
"92 418 OFFCURVE",
"70 346 OFFCURVE",
"70 251 CURVE SMOOTH",
"70 176 OFFCURVE",
"89 114 OFFCURVE",
"130 66 CURVE SMOOTH",
"171 17 OFFCURVE",
"226 -9 OFFCURVE",
"294 -9 CURVE SMOOTH"
);
}
);
width = 585;
},
{
layerId = "070DF6F6-38EC-45CA-8FD7-ED5C2C5DB7AE";
paths = (
{
closed = 1;
nodes = (
"280 -9 OFFCURVE",
"320 6 OFFCURVE",
"350 38 CURVE SMOOTH",
"381 71 OFFCURVE",
"401 123 OFFCURVE",
"408 190 CURVE",
"340 190 LINE",
"334 152 OFFCURVE",
"321 121 OFFCURVE",
"308 103 CURVE SMOOTH",
"286 73 OFFCURVE",
"266 66 OFFCURVE",
"237 66 CURVE SMOOTH",
"206 66 OFFCURVE",
"171 81 OFFCURVE",
"155 116 CURVE SMOOTH",
"135 160 OFFCURVE",
"128 206 OFFCURVE",
"128 250 CURVE SMOOTH",
"128 307 OFFCURVE",
"135 346 OFFCURVE",
"148 384 CURVE SMOOTH",
"166 435 OFFCURVE",
"198 463 OFFCURVE",
"242 463 CURVE SMOOTH",
"272 463 OFFCURVE",
"297 451 OFFCURVE",
"314 429 CURVE SMOOTH",
"328 410 OFFCURVE",
"337 373 OFFCURVE",
"340 351 CURVE",
"408 351 LINE",
"402 421 OFFCURVE",
"385 464 OFFCURVE",
"354 499 CURVE SMOOTH",
"326 530 OFFCURVE",
"290 540 OFFCURVE",
"242 540 CURVE SMOOTH",
"191 540 OFFCURVE",
"143 517 OFFCURVE",
"109 470 CURVE SMOOTH",
"73 419 OFFCURVE",
"55 352 OFFCURVE",
"55 251 CURVE SMOOTH",
"55 176 OFFCURVE",
"70 114 OFFCURVE",
"102 67 CURVE SMOOTH",
"135 17 OFFCURVE",
"178 -9 OFFCURVE",
"233 -9 CURVE SMOOTH"
);
}
);
userData = {
RMXScaler = {
adjustSpace = -10;
weight = -10;
width = 90;
};
};
width = 463;
}
);
leftKerningGroup = o;
note = c;
rightKerningGroup = o;
unicode = 0063;
userData = {
RMXScaler = {
source = c;
};
};
},
{
glyphname = d;
lastChange = "2019-03-09 00:11:00 +0000";
layers = (
{
layerId = "994FE389-9D54-4FAA-B055-C46A67020E78";
paths = (
{
closed = 1;
nodes = (
"325 -17 OFFCURVE",
"357 -12 OFFCURVE",
"385 5 CURVE",
"413 20 OFFCURVE",
"436 42 OFFCURVE",
"459 76 CURVE",
"459 0 LINE",
"537 0 LINE",
"537 726 LINE",
"452 726 LINE",
"452 460 LINE",
"436 479 OFFCURVE",
"416 500 OFFCURVE",
"398 513 CURVE SMOOTH",
"374 531 OFFCURVE",
"334 536 OFFCURVE",
"296 536 CURVE SMOOTH",
"225 536 OFFCURVE",
"170 510 OFFCURVE",
"130 454 CURVE SMOOTH",
"89 396 OFFCURVE",
"70 332 OFFCURVE",
"70 255 CURVE SMOOTH",
"70 173 OFFCURVE",
"94 106 OFFCURVE",
"135 57 CURVE SMOOTH",
"177 7 OFFCURVE",
"229 -17 OFFCURVE",
"287 -17 CURVE SMOOTH"
);
},
{
closed = 1;
nodes = (
"262 60 OFFCURVE",
"223 79 OFFCURVE",
"201 117 CURVE SMOOTH",
"178 157 OFFCURVE",
"163 203 OFFCURVE",
"163 259 CURVE SMOOTH",
"163 324 OFFCURVE",
"178 376 OFFCURVE",
"204 409 CURVE SMOOTH",
"233 446 OFFCURVE",
"270 460 OFFCURVE",
"315 460 CURVE SMOOTH",
"354 460 OFFCURVE",
"386 444 OFFCURVE",
"414 413 CURVE SMOOTH",
"443 381 OFFCURVE",
"456 332 OFFCURVE",
"456 265 CURVE SMOOTH",
"456 200 OFFCURVE",
"441 148 OFFCURVE",
"416 114 CURVE SMOOTH",
"390 77 OFFCURVE",
"356 60 OFFCURVE",
"315 60 CURVE SMOOTH"
);
}
);
width = 607;
},
{
layerId = "070DF6F6-38EC-45CA-8FD7-ED5C2C5DB7AE";
paths = (
{
closed = 1;
nodes = (
"258 -17 OFFCURVE",
"282 -12 OFFCURVE",
"305 5 CURVE",
"327 20 OFFCURVE",
"345 45 OFFCURVE",
"363 76 CURVE",
"363 0 LINE",
"425 0 LINE",
"425 726 LINE",
"358 726 LINE",
"358 460 LINE",
"343 485 OFFCURVE",
"330 498 OFFCURVE",
"315 513 CURVE SMOOTH",
"297 531 OFFCURVE",
"262 536 OFFCURVE",
"234 536 CURVE SMOOTH",
"177 536 OFFCURVE",
"134 510 OFFCURVE",
"102 453 CURVE SMOOTH",
"70 396 OFFCURVE",
"55 332 OFFCURVE",
"55 255 CURVE SMOOTH",
"55 171 OFFCURVE",
"76 101 OFFCURVE",
"107 55 CURVE SMOOTH",
"137 10 OFFCURVE",
"181 -17 OFFCURVE",
"227 -17 CURVE SMOOTH"
);
},
{
closed = 1;
nodes = (
"206 60 OFFCURVE",
"177 79 OFFCURVE",
"159 117 CURVE SMOOTH",
"140 157 OFFCURVE",
"129 207 OFFCURVE",
"129 259 CURVE SMOOTH",
"129 319 OFFCURVE",
"139 373 OFFCURVE",
"161 408 CURVE SMOOTH",
"184 444 OFFCURVE",
"210 460 OFFCURVE",
"250 460 CURVE SMOOTH",
"282 460 OFFCURVE",
"305 444 OFFCURVE",
"327 413 CURVE SMOOTH",
"351 381 OFFCURVE",
"361 331 OFFCURVE",
"361 265 CURVE SMOOTH",
"361 202 OFFCURVE",
"349 148 OFFCURVE",
"329 112 CURVE SMOOTH",
"309 77 OFFCURVE",
"279 60 OFFCURVE",
"250 60 CURVE SMOOTH"
);
}
);
userData = {
RMXScaler = {
adjustSpace = -10;
weight = -10;
width = 90;
};
};
width = 480;
}
);
leftKerningGroup = o;
note = d;
rightKerningGroup = d;
unicode = 0064;
userData = {
RMXScaler = {
source = d;
};
};
},
{
glyphname = e;
lastChange = "2019-03-09 00:11:00 +0000";
layers = (
{
layerId = "994FE389-9D54-4FAA-B055-C46A67020E78";
paths = (
{
closed = 1;
nodes = (
"326 -9 OFFCURVE",
"349 -7 OFFCURVE",
"372 -2 CURVE SMOOTH",
"410 7 OFFCURVE",
"442 24 OFFCURVE",
"469 50 CURVE",
"484 66 OFFCURVE",
"499 84 OFFCURVE",
"511 106 CURVE SMOOTH",
"524 130 OFFCURVE",
"531 152 OFFCURVE",
"533 172 CURVE",
"448 172 LINE",
"442 148 OFFCURVE",
"431 127 OFFCURVE",
"416 110 CURVE SMOOTH",
"389 80 OFFCURVE",
"352 66 OFFCURVE",
"307 66 CURVE SMOOTH",
"259 66 OFFCURVE",
"222 82 OFFCURVE",
"200 113 CURVE SMOOTH",
"175 147 OFFCURVE",
"163 187 OFFCURVE",
"162 240 CURVE",
"540 240 LINE",
"540 291 OFFCURVE",
"538 329 OFFCURVE",
"532 353 CURVE",
"527 387 OFFCURVE",
"517 418 OFFCURVE",
"499 444 CURVE SMOOTH",
"480 472 OFFCURVE",
"455 495 OFFCURVE",
"420 511 CURVE SMOOTH",
"386 527 OFFCURVE",
"349 536 OFFCURVE",
"313 536 CURVE SMOOTH",
"240 536 OFFCURVE",
"182 511 OFFCURVE",
"137 459 CURVE SMOOTH",
"92 408 OFFCURVE",
"70 339 OFFCURVE",
"70 257 CURVE SMOOTH",
"70 173 OFFCURVE",
"92 106 OFFCURVE",
"136 61 CURVE SMOOTH",
"181 14 OFFCURVE",
"236 -9 OFFCURVE",
"300 -9 CURVE SMOOTH"
);
},
{
closed = 1;
nodes = (
"166 353 OFFCURVE",
"181 388 OFFCURVE",
"209 418 CURVE SMOOTH",
"236 447 OFFCURVE",
"268 460 OFFCURVE",
"308 460 CURVE SMOOTH",
"365 460 OFFCURVE",
"407 438 OFFCURVE",
"428 399 CURVE SMOOTH",
"438 381 OFFCURVE",
"448 347 OFFCURVE",
"452 309 CURVE",
"164 309 LINE"
);
}
);
width = 610;
},
{
layerId = "070DF6F6-38EC-45CA-8FD7-ED5C2C5DB7AE";
paths = (
{
closed = 1;
nodes = (
"255 -9 OFFCURVE",
"277 -7 OFFCURVE",
"295 -2 CURVE SMOOTH",
"322 6 OFFCURVE",
"351 26 OFFCURVE",
"371 50 CURVE",
"383 65 OFFCURVE",
"398 91 OFFCURVE",
"405 107 CURVE SMOOTH",
"414 128 OFFCURVE",
"420 150 OFFCURVE",
"422 172 CURVE",
"354 172 LINE",
"349 144 OFFCURVE",
"342 129 OFFCURVE",
"330 112 CURVE SMOOTH",
"308 80 OFFCURVE",
"280 66 OFFCURVE",
"243 66 CURVE SMOOTH",
"204 66 OFFCURVE",
"176 82 OFFCURVE",
"158 113 CURVE SMOOTH",
"138 148 OFFCURVE",
"129 187 OFFCURVE",
"128 240 CURVE",
"428 240 LINE",
"428 292 OFFCURVE",
"426 329 OFFCURVE",
"421 353 CURVE",
"417 391 OFFCURVE",
"409 418 OFFCURVE",
"395 444 CURVE SMOOTH",
"381 471 OFFCURVE",
"362 493 OFFCURVE",
"332 511 CURVE SMOOTH",
"305 527 OFFCURVE",
"278 536 OFFCURVE",
"248 536 CURVE SMOOTH",
"191 536 OFFCURVE",
"144 511 OFFCURVE",
"109 461 CURVE SMOOTH",
"73 408 OFFCURVE",
"55 343 OFFCURVE",
"55 257 CURVE SMOOTH",
"55 172 OFFCURVE",
"72 106 OFFCURVE",
"108 59 CURVE SMOOTH",
"143 14 OFFCURVE",
"187 -9 OFFCURVE",
"237 -9 CURVE SMOOTH"
);
},
{
closed = 1;
nodes = (
"131 350 OFFCURVE",
"143 388 OFFCURVE",
"165 418 CURVE SMOOTH",
"186 447 OFFCURVE",
"213 460 OFFCURVE",
"243 460 CURVE SMOOTH",
"289 460 OFFCURVE",
"322 438 OFFCURVE",
"338 400 CURVE SMOOTH",
"348 376 OFFCURVE",
"354 350 OFFCURVE",
"358 309 CURVE",
"130 309 LINE"
);
}
);
userData = {
RMXScaler = {
adjustSpace = -10;
weight = -10;
width = 90;
};
};
width = 483;
}
);
leftKerningGroup = o;
note = e;
rightKerningGroup = o;
unicode = 0065;
userData = {
RMXScaler = {
source = e;
};
};
},
{
glyphname = f;
lastChange = "2019-03-09 00:11:00 +0000";
layers = (
{
layerId = "994FE389-9D54-4FAA-B055-C46A67020E78";
paths = (
{
closed = 1;
nodes = (
"229 0 LINE",
"229 448 LINE",
"318 448 LINE",
"318 518 LINE",
"230 518 LINE",
"230 575 OFFCURVE",
"232 608 OFFCURVE",
"239 624 CURVE",
"247 639 OFFCURVE",
"259 646 OFFCURVE",
"286 646 CURVE SMOOTH",
"297 646 LINE SMOOTH",
"302 646 OFFCURVE",
"309 645 OFFCURVE",
"318 644 CURVE",
"318 724 LINE",
"309 725 OFFCURVE",
"303 724 OFFCURVE",
"297 726 CURVE",
"291 727 OFFCURVE",
"286 726 OFFCURVE",
"279 726 CURVE SMOOTH",
"221 726 OFFCURVE",
"182 710 OFFCURVE",
"162 680 CURVE SMOOTH",
"151 664 OFFCURVE",
"145 637 OFFCURVE",
"143 599 CURVE",
"143 518 LINE",
"70 518 LINE",
"70 448 LINE",
"143 448 LINE",
"143 0 LINE"
);
}
);
width = 388;
},
{
layerId = "070DF6F6-38EC-45CA-8FD7-ED5C2C5DB7AE";
paths = (
{
closed = 1;
nodes = (
"181 0 LINE",
"181 448 LINE",
"251 448 LINE",
"251 518 LINE",
"182 518 LINE",
"182 586 OFFCURVE",
"184 608 OFFCURVE",
"189 624 CURVE",
"195 639 OFFCURVE",
"205 646 OFFCURVE",
"226 646 CURVE SMOOTH",
"235 646 LINE SMOOTH",
"240 646 OFFCURVE",
"244 645 OFFCURVE",
"251 644 CURVE",
"251 724 LINE",
"244 725 OFFCURVE",
"240 724 OFFCURVE",
"235 726 CURVE",
"230 727 OFFCURVE",
"226 726 OFFCURVE",
"221 726 CURVE SMOOTH",
"174 726 OFFCURVE",
"144 710 OFFCURVE",
"128 680 CURVE SMOOTH",
"120 666 OFFCURVE",
"115 643 OFFCURVE",
"113 599 CURVE",
"113 518 LINE",
"55 518 LINE",
"55 448 LINE",
"113 448 LINE",
"113 0 LINE"
);
}
);
userData = {
RMXScaler = {
adjustSpace = -10;
weight = -10;
width = 90;
};
};
width = 306;
}
);
note = f;
unicode = 0066;
userData = {
RMXScaler = {
source = f;
};
};
},
{
glyphname = g;
lastChange = "2019-03-09 00:11:00 +0000";
layers = (
{
layerId = "994FE389-9D54-4FAA-B055-C46A67020E78";
paths = (
{
closed = 1;
nodes = (
"385 -189 OFFCURVE",
"450 -154 OFFCURVE",
"486 -84 CURVE SMOOTH",
"514 -30 OFFCURVE",
"514 25 OFFCURVE",
"514 66 CURVE SMOOTH",
"514 527 LINE",
"436 527 LINE",
"436 465 LINE",
"418 485 OFFCURVE",
"404 504 OFFCURVE",
"388 514 CURVE SMOOTH",
"358 533 OFFCURVE",
"322 541 OFFCURVE",
"284 541 CURVE SMOOTH",
"225 541 OFFCURVE",
"174 518 OFFCURVE",
"134 471 CURVE SMOOTH",
"94 423 OFFCURVE",
"70 356 OFFCURVE",
"70 272 CURVE SMOOTH",
"70 181 OFFCURVE",
"91 120 OFFCURVE",
"134 78 CURVE SMOOTH",
"174 38 OFFCURVE",
"222 19 OFFCURVE",
"276 19 CURVE SMOOTH",
"316 19 OFFCURVE",
"348 26 OFFCURVE",
"370 39 CURVE SMOOTH",
"393 53 OFFCURVE",
"416 72 OFFCURVE",
"434 98 CURVE",
"435 26 OFFCURVE",
"428 -21 OFFCURVE",
"417 -48 CURVE SMOOTH",
"398 -94 OFFCURVE",
"354 -119 OFFCURVE",
"286 -119 CURVE SMOOTH",
"247 -119 OFFCURVE",
"216 -110 OFFCURVE",
"196 -88 CURVE",
"185 -77 OFFCURVE",
"178 -60 OFFCURVE",
"173 -35 CURVE",
"87 -35 LINE",
"90 -88 OFFCURVE",
"112 -129 OFFCURVE",
"148 -152 CURVE SMOOTH",
"185 -175 OFFCURVE",
"229 -189 OFFCURVE",
"286 -189 CURVE SMOOTH"
);
},
{
closed = 1;
nodes = (
"247 90 OFFCURVE",
"215 104 OFFCURVE",
"193 133 CURVE SMOOTH",
"171 163 OFFCURVE",
"156 204 OFFCURVE",
"156 266 CURVE SMOOTH",
"156 313 OFFCURVE",
"163 353 OFFCURVE",
"176 382 CURVE SMOOTH",
"200 436 OFFCURVE",
"239 468 OFFCURVE",
"298 468 CURVE SMOOTH",
"337 468 OFFCURVE",
"369 451 OFFCURVE",
"398 421 CURVE SMOOTH",
"426 392 OFFCURVE",
"436 345 OFFCURVE",
"436 283 CURVE SMOOTH",
"436 241 OFFCURVE",
"429 203 OFFCURVE",
"416 172 CURVE SMOOTH",
"393 115 OFFCURVE",
"347 90 OFFCURVE",
"286 90 CURVE SMOOTH"
);
}
);
width = 584;
},
{
layerId = "070DF6F6-38EC-45CA-8FD7-ED5C2C5DB7AE";
paths = (
{
closed = 1;
nodes = (
"305 -189 OFFCURVE",
"356 -154 OFFCURVE",
"385 -83 CURVE SMOOTH",
"407 -29 OFFCURVE",
"407 25 OFFCURVE",
"407 66 CURVE SMOOTH",
"407 527 LINE",
"345 527 LINE",
"345 465 LINE",
"331 485 OFFCURVE",
"319 504 OFFCURVE",
"307 514 CURVE SMOOTH",
"283 533 OFFCURVE",
"256 541 OFFCURVE",
"225 541 CURVE SMOOTH",
"180 541 OFFCURVE",
"139 522 OFFCURVE",
"105 469 CURVE SMOOTH",
"75 423 OFFCURVE",
"55 360 OFFCURVE",
"55 272 CURVE SMOOTH",
"55 177 OFFCURVE",
"72 120 OFFCURVE",
"106 78 CURVE SMOOTH",
"138 38 OFFCURVE",
"174 19 OFFCURVE",
"218 19 CURVE SMOOTH",
"249 19 OFFCURVE",
"275 26 OFFCURVE",
"293 39 CURVE SMOOTH",
"311 53 OFFCURVE",
"330 76 OFFCURVE",
"344 98 CURVE",
"344 26 OFFCURVE",
"339 -21 OFFCURVE",
"330 -49 CURVE SMOOTH",
"315 -94 OFFCURVE",
"280 -119 OFFCURVE",
"226 -119 CURVE SMOOTH",
"197 -119 OFFCURVE",
"170 -110 OFFCURVE",
"154 -88 CURVE",
"146 -75 OFFCURVE",
"141 -62 OFFCURVE",
"137 -35 CURVE",
"68 -35 LINE",
"71 -88 OFFCURVE",
"89 -131 OFFCURVE",
"117 -152 CURVE SMOOTH",
"142 -171 OFFCURVE",
"178 -189 OFFCURVE",
"226 -189 CURVE SMOOTH"
);
},
{
closed = 1;
nodes = (
"195 90 OFFCURVE",
"171 102 OFFCURVE",
"151 136 CURVE SMOOTH",
"135 163 OFFCURVE",
"123 206 OFFCURVE",
"123 266 CURVE SMOOTH",
"123 316 OFFCURVE",
"129 353 OFFCURVE",
"139 381 CURVE SMOOTH",
"158 436 OFFCURVE",
"189 468 OFFCURVE",
"236 468 CURVE SMOOTH",
"267 468 OFFCURVE",
"292 451 OFFCURVE",
"316 419 CURVE SMOOTH",
"337 392 OFFCURVE",
"345 345 OFFCURVE",
"345 283 CURVE SMOOTH",
"345 242 OFFCURVE",
"341 208 OFFCURVE",
"329 171 CURVE SMOOTH",
"311 115 OFFCURVE",
"275 90 OFFCURVE",
"226 90 CURVE SMOOTH"
);
}
);
userData = {
RMXScaler = {
adjustSpace = -10;
weight = -10;
width = 90;
};
};
width = 462;
}
);
leftKerningGroup = o;
note = g;
unicode = 0067;
userData = {
RMXScaler = {
source = g;
};
};
},
{
glyphname = h;
lastChange = "2019-03-09 00:11:00 +0000";
layers = (
{
layerId = "994FE389-9D54-4FAA-B055-C46A67020E78";
paths = (
{
closed = 1;
nodes = (
"158 1 LINE",
"158 280 LINE SMOOTH",
"158 352 OFFCURVE",
"173 398 OFFCURVE",
"204 423 CURVE SMOOTH",
"234 446 OFFCURVE",
"265 461 OFFCURVE",
"303 461 CURVE SMOOTH",
"347 461 OFFCURVE",
"380 445 OFFCURVE",
"394 417 CURVE SMOOTH",
"404 398 OFFCURVE",
"409 372 OFFCURVE",
"409 334 CURVE SMOOTH",
"409 1 LINE",
"499 1 LINE",
"499 339 LINE SMOOTH",
"499 380 OFFCURVE",
"495 425 OFFCURVE",
"477 460 CURVE SMOOTH",
"448 516 OFFCURVE",
"397 540 OFFCURVE",
"322 540 CURVE SMOOTH",
"279 540 OFFCURVE",
"244 530 OFFCURVE",
"214 514 CURVE SMOOTH",
"198 505 OFFCURVE",
"179 483 OFFCURVE",
"158 456 CURVE",
"158 727 LINE",
"70 727 LINE",
"70 1 LINE"
);
}
);
width = 569;
},
{
layerId = "070DF6F6-38EC-45CA-8FD7-ED5C2C5DB7AE";
paths = (
{
closed = 1;
nodes = (
"125 1 LINE",
"125 280 LINE SMOOTH",
"125 350 OFFCURVE",
"136 398 OFFCURVE",
"161 423 CURVE SMOOTH",
"185 446 OFFCURVE",
"210 461 OFFCURVE",
"240 461 CURVE SMOOTH",
"274 461 OFFCURVE",
"301 445 OFFCURVE",
"312 416 CURVE SMOOTH",
"321 392 OFFCURVE",
"324 363 OFFCURVE",
"324 334 CURVE SMOOTH",
"324 1 LINE",
"395 1 LINE",
"395 339 LINE SMOOTH",
"395 382 OFFCURVE",
"392 427 OFFCURVE",
"377 462 CURVE SMOOTH",
"354 516 OFFCURVE",
"315 540 OFFCURVE",
"255 540 CURVE SMOOTH",
"221 540 OFFCURVE",
"193 530 OFFCURVE",
"171 515 CURVE SMOOTH",
"156 505 OFFCURVE",
"141 485 OFFCURVE",
"125 456 CURVE",
"125 727 LINE",
"55 727 LINE",
"55 1 LINE"
);
}
);
userData = {
RMXScaler = {
adjustSpace = -10;
weight = -10;
width = 90;
};
};
width = 450;
}
);
note = h;
unicode = 0068;
userData = {
RMXScaler = {
source = h;
};
};
},
{
glyphname = i;
lastChange = "2019-03-09 00:11:00 +0000";
layers = (
{
layerId = "994FE389-9D54-4FAA-B055-C46A67020E78";
paths = (
{
closed = 1;
nodes = (
"160 -1 LINE",
"160 526 LINE",
"70 526 LINE",
"70 -1 LINE"
);
},
{
closed = 1;
nodes = (
"160 626 LINE",
"160 727 LINE",
"70 727 LINE",
"70 626 LINE"
);
}
);
width = 230;
},
{
layerId = "070DF6F6-38EC-45CA-8FD7-ED5C2C5DB7AE";
paths = (
{
closed = 1;
nodes = (
"126 -1 LINE",
"126 526 LINE",
"55 526 LINE",
"55 -1 LINE"
);
},
{
closed = 1;
nodes = (
"126 626 LINE",
"126 727 LINE",
"55 727 LINE",
"55 626 LINE"
);
}
);
userData = {
RMXScaler = {
adjustSpace = -10;
weight = -10;
width = 90;
};
};
width = 181;
}
);
leftKerningGroup = b;
note = i;
rightKerningGroup = b;
unicode = 0069;
userData = {
RMXScaler = {
source = i;
};
};
},
{
glyphname = j;
lastChange = "2019-03-09 00:11:00 +0000";
layers = (
{
layerId = "994FE389-9D54-4FAA-B055-C46A67020E78";
paths = (
{
closed = 1;
nodes = (
"161 -182 OFFCURVE",
"199 -165 OFFCURVE",
"219 -134 CURVE SMOOTH",
"231 -114 OFFCURVE",
"238 -89 OFFCURVE",
"238 -50 CURVE SMOOTH",
"238 535 LINE",
"151 535 LINE",
"151 -42 LINE SMOOTH",
"151 -72 OFFCURVE",
"148 -89 OFFCURVE",
"140 -94 CURVE",
"132 -100 OFFCURVE",
"109 -104 OFFCURVE",
"70 -104 CURVE",
"70 -179 LINE",
"80 -180 OFFCURVE",
"88 -181 OFFCURVE",
"92 -181 CURVE SMOOTH",
"98 -181 OFFCURVE",
"102 -182 OFFCURVE",
"106 -182 CURVE SMOOTH"
);
},
{
closed = 1;
nodes = (
"238 627 LINE",
"238 727 LINE",
"151 727 LINE",
"151 627 LINE"
);
}
);
width = 308;
},
{
layerId = "070DF6F6-38EC-45CA-8FD7-ED5C2C5DB7AE";
paths = (
{
closed = 1;
nodes = (
"127 -182 OFFCURVE",
"157 -165 OFFCURVE",
"173 -134 CURVE SMOOTH",
"183 -114 OFFCURVE",
"188 -87 OFFCURVE",
"188 -50 CURVE SMOOTH",
"188 535 LINE",
"119 535 LINE",
"119 -42 LINE SMOOTH",
"119 -72 OFFCURVE",
"117 -89 OFFCURVE",
"110 -94 CURVE",
"104 -100 OFFCURVE",
"85 -104 OFFCURVE",
"55 -104 CURVE",
"55 -179 LINE",
"63 -180 OFFCURVE",
"69 -181 OFFCURVE",
"73 -181 CURVE SMOOTH",
"77 -181 OFFCURVE",
"81 -182 OFFCURVE",
"83 -182 CURVE SMOOTH"
);
},
{
closed = 1;
nodes = (
"188 627 LINE",
"188 727 LINE",
"119 727 LINE",
"119 627 LINE"
);
}
);
userData = {
RMXScaler = {
adjustSpace = -10;
weight = -10;
width = 90;
};
};
width = 243;
}
);
note = j;
unicode = 006A;
userData = {
RMXScaler = {
source = j;
};
};
},
{
glyphname = k;
lastChange = "2019-03-09 00:11:00 +0000";
layers = (
{
layerId = "994FE389-9D54-4FAA-B055-C46A67020E78";
paths = (
{
closed = 1;
nodes = (
"156 0 LINE",
"156 199 LINE",
"231 268 LINE",
"395 0 LINE",
"509 0 LINE",
"295 332 LINE",
"498 530 LINE",
"385 530 LINE",
"156 305 LINE",
"156 727 LINE",
"70 727 LINE",
"70 0 LINE"
);
}
);
width = 579;
},
{
layerId = "070DF6F6-38EC-45CA-8FD7-ED5C2C5DB7AE";
paths = (
{
closed = 1;
nodes = (
"123 0 LINE",
"123 199 LINE",
"183 268 LINE",
"313 0 LINE",
"403 0 LINE",
"234 332 LINE",
"394 530 LINE",
"305 530 LINE",
"123 305 LINE",
"123 727 LINE",
"55 727 LINE",
"55 0 LINE"
);
}
);
userData = {
RMXScaler = {
adjustSpace = -10;
weight = -10;
width = 90;
};
};
width = 458;
}
);
note = k;
rightKerningGroup = k;
unicode = 006B;
userData = {
RMXScaler = {
source = k;
};
};
},
{
glyphname = l;
lastChange = "2019-03-09 00:11:00 +0000";
layers = (
{
layerId = "994FE389-9D54-4FAA-B055-C46A67020E78";
paths = (
{
closed = 1;
nodes = (
"159 0 LINE",
"159 722 LINE",
"70 722 LINE",
"70 0 LINE"
);
}
);
width = 229;
},
{
layerId = "070DF6F6-38EC-45CA-8FD7-ED5C2C5DB7AE";
paths = (
{
closed = 1;
nodes = (
"125 0 LINE",
"125 722 LINE",
"55 722 LINE",
"55 0 LINE"
);
}
);
userData = {
RMXScaler = {
adjustSpace = -10;
weight = -10;
width = 90;
};
};
width = 180;
}
);
leftKerningGroup = b;
note = l;
unicode = 006C;
userData = {
RMXScaler = {
source = l;
};
};
},
{
glyphname = m;
lastChange = "2019-03-09 00:11:00 +0000";
layers = (
{
layerId = "994FE389-9D54-4FAA-B055-C46A67020E78";
paths = (
{
closed = 1;
nodes = (
"158 0 LINE",
"158 279 LINE SMOOTH",
"158 347 OFFCURVE",
"173 394 OFFCURVE",
"200 420 CURVE SMOOTH",
"227 446 OFFCURVE",
"257 459 OFFCURVE",
"291 459 CURVE SMOOTH",
"327 459 OFFCURVE",
"353 446 OFFCURVE",
"366 422 CURVE SMOOTH",
"375 406 OFFCURVE",
"379 379 OFFCURVE",
"379 344 CURVE SMOOTH",
"379 0 LINE",
"469 0 LINE",
"469 306 LINE SMOOTH",
"469 361 OFFCURVE",
"481 400 OFFCURVE",
"506 423 CURVE SMOOTH",
"532 446 OFFCURVE",
"561 458 OFFCURVE",
"596 458 CURVE SMOOTH",
"621 458 OFFCURVE",
"643 451 OFFCURVE",
"660 438 CURVE",
"677 426 OFFCURVE",
"686 401 OFFCURVE",
"686 366 CURVE SMOOTH",
"686 0 LINE",
"778 0 LINE",
"778 351 LINE SMOOTH",
"778 397 OFFCURVE",
"772 435 OFFCURVE",
"757 462 CURVE SMOOTH",
"729 514 OFFCURVE",
"683 538 OFFCURVE",
"613 538 CURVE SMOOTH",
"580 538 OFFCURVE",
"550 532 OFFCURVE",
"524 518 CURVE",
"497 505 OFFCURVE",
"474 484 OFFCURVE",
"454 456 CURVE",
"443 478 OFFCURVE",
"430 496 OFFCURVE",
"415 507 CURVE",
"390 528 OFFCURVE",
"355 538 OFFCURVE",
"314 538 CURVE SMOOTH",
"277 538 OFFCURVE",
"244 528 OFFCURVE",
"214 508 CURVE SMOOTH",
"198 497 OFFCURVE",
"181 481 OFFCURVE",
"157 452 CURVE",
"157 526 LINE",
"70 526 LINE",
"70 0 LINE"
);
}
);
width = 848;
},
{
layerId = "070DF6F6-38EC-45CA-8FD7-ED5C2C5DB7AE";
paths = (
{
closed = 1;
nodes = (
"125 0 LINE",
"125 279 LINE SMOOTH",
"125 349 OFFCURVE",
"137 394 OFFCURVE",
"158 420 CURVE SMOOTH",
"179 446 OFFCURVE",
"204 459 OFFCURVE",
"230 459 CURVE SMOOTH",
"257 459 OFFCURVE",
"280 446 OFFCURVE",
"289 424 CURVE SMOOTH",
"299 399 OFFCURVE",
"300 363 OFFCURVE",
"300 344 CURVE SMOOTH",
"300 0 LINE",
"371 0 LINE",
"371 306 LINE SMOOTH",
"371 369 OFFCURVE",
"383 405 OFFCURVE",
"400 423 CURVE SMOOTH",
"422 446 OFFCURVE",
"444 458 OFFCURVE",
"472 458 CURVE SMOOTH",
"490 458 OFFCURVE",
"510 451 OFFCURVE",
"523 438 CURVE",
"536 426 OFFCURVE",
"543 402 OFFCURVE",
"543 366 CURVE SMOOTH",
"543 0 LINE",
"616 0 LINE",
"616 351 LINE SMOOTH",
"616 390 OFFCURVE",
"612 435 OFFCURVE",
"599 465 CURVE SMOOTH",
"579 511 OFFCURVE",
"542 538 OFFCURVE",
"486 538 CURVE SMOOTH",
"462 538 OFFCURVE",
"437 533 OFFCURVE",
"415 518 CURVE",
"393 505 OFFCURVE",
"378 485 OFFCURVE",
"360 456 CURVE",
"351 478 OFFCURVE",
"339 495 OFFCURVE",
"329 507 CURVE",
"309 528 OFFCURVE",
"279 538 OFFCURVE",
"249 538 CURVE SMOOTH",
"219 538 OFFCURVE",
"193 528 OFFCURVE",
"171 510 CURVE SMOOTH",
"159 500 OFFCURVE",
"143 483 OFFCURVE",
"124 452 CURVE",
"124 526 LINE",
"55 526 LINE",
"55 0 LINE"
);
}
);
userData = {
RMXScaler = {
adjustSpace = -10;
weight = -10;
width = 90;
};
};
width = 671;
}
);
note = m;
unicode = 006D;
userData = {
RMXScaler = {
source = m;
};
};
},
{
glyphname = n;
lastChange = "2019-03-09 00:11:00 +0000";
layers = (
{
layerId = "994FE389-9D54-4FAA-B055-C46A67020E78";
paths = (
{
closed = 1;
nodes = (
"158 0 LINE",
"158 276 LINE SMOOTH",
"158 310 OFFCURVE",
"161 337 OFFCURVE",
"165 356 CURVE",
"170 374 OFFCURVE",
"179 392 OFFCURVE",
"194 409 CURVE SMOOTH",
"213 431 OFFCURVE",
"234 446 OFFCURVE",
"258 453 CURVE",
"271 456 OFFCURVE",
"288 459 OFFCURVE",
"309 459 CURVE SMOOTH",
"351 459 OFFCURVE",
"378 443 OFFCURVE",
"394 410 CURVE SMOOTH",
"404 390 OFFCURVE",
"409 365 OFFCURVE",
"409 332 CURVE SMOOTH",
"409 0 LINE",
"499 0 LINE",
"499 338 LINE SMOOTH",
"499 389 OFFCURVE",
"493 429 OFFCURVE",
"477 460 CURVE SMOOTH",
"450 513 OFFCURVE",
"401 538 OFFCURVE",
"326 538 CURVE SMOOTH",
"292 538 OFFCURVE",
"261 532 OFFCURVE",
"234 518 CURVE",
"205 505 OFFCURVE",
"179 483 OFFCURVE",
"154 452 CURVE",
"154 526 LINE",
"70 526 LINE",
"70 0 LINE"
);
}
);
width = 569;
},
{
layerId = "070DF6F6-38EC-45CA-8FD7-ED5C2C5DB7AE";
paths = (
{
closed = 1;
nodes = (
"125 0 LINE",
"125 276 LINE SMOOTH",
"125 310 OFFCURVE",
"127 335 OFFCURVE",
"130 356 CURVE",
"135 378 OFFCURVE",
"141 389 OFFCURVE",
"154 409 CURVE SMOOTH",
"169 431 OFFCURVE",
"179 441 OFFCURVE",
"204 453 CURVE",
"214 456 OFFCURVE",
"230 459 OFFCURVE",
"244 459 CURVE SMOOTH",
"278 459 OFFCURVE",
"299 443 OFFCURVE",
"312 409 CURVE SMOOTH",
"322 383 OFFCURVE",
"324 358 OFFCURVE",
"324 332 CURVE SMOOTH",
"324 0 LINE",
"395 0 LINE",
"395 338 LINE SMOOTH",
"395 376 OFFCURVE",
"394 417 OFFCURVE",
"377 460 CURVE SMOOTH",
"356 513 OFFCURVE",
"320 538 OFFCURVE",
"258 538 CURVE SMOOTH",
"229 538 OFFCURVE",
"205 531 OFFCURVE",
"185 518 CURVE",
"163 505 OFFCURVE",
"146 490 OFFCURVE",
"122 452 CURVE",
"122 526 LINE",
"55 526 LINE",
"55 0 LINE"
);
}
);
userData = {
RMXScaler = {
adjustSpace = -10;
weight = -10;
width = 90;
};
};
width = 450;
}
);
note = n;
unicode = 006E;
userData = {
RMXScaler = {
source = n;
};
};
},
{
glyphname = o;
lastChange = "2019-03-09 00:11:00 +0000";
layers = (
{
layerId = "994FE389-9D54-4FAA-B055-C46A67020E78";
paths = (
{
closed = 1;
nodes = (
"392 -18 OFFCURVE",
"457 10 OFFCURVE",
"499 67 CURVE SMOOTH",
"539 120 OFFCURVE",
"560 193 OFFCURVE",
"560 276 CURVE SMOOTH",
"560 366 OFFCURVE",
"534 433 OFFCURVE",
"490 475 CURVE SMOOTH",
"444 519 OFFCURVE",
"385 543 OFFCURVE",
"318 543 CURVE SMOOTH",
"245 543 OFFCURVE",
"182 517 OFFCURVE",
"137 465 CURVE SMOOTH",
"91 412 OFFCURVE",
"70 337 OFFCURVE",
"70 253 CURVE SMOOTH",
"70 170 OFFCURVE",
"91 105 OFFCURVE",
"133 56 CURVE SMOOTH",
"176 6 OFFCURVE",
"233 -18 OFFCURVE",
"306 -18 CURVE SMOOTH"
);
},
{
closed = 1;
nodes = (
"261 58 OFFCURVE",
"222 77 OFFCURVE",
"197 115 CURVE SMOOTH",
"172 152 OFFCURVE",
"161 198 OFFCURVE",
"161 255 CURVE SMOOTH",
"161 313 OFFCURVE",
"172 363 OFFCURVE",
"197 404 CURVE SMOOTH",
"222 445 OFFCURVE",
"262 466 OFFCURVE",
"315 466 CURVE SMOOTH",
"376 466 OFFCURVE",
"419 441 OFFCURVE",
"444 393 CURVE SMOOTH",
"461 362 OFFCURVE",
"468 322 OFFCURVE",
"468 273 CURVE SMOOTH",
"468 218 OFFCURVE",
"457 169 OFFCURVE",
"435 125 CURVE SMOOTH",
"413 80 OFFCURVE",
"372 58 OFFCURVE",
"314 58 CURVE SMOOTH"
);
}
);
width = 630;
},
{
layerId = "070DF6F6-38EC-45CA-8FD7-ED5C2C5DB7AE";
paths = (
{
closed = 1;
nodes = (
"311 -18 OFFCURVE",
"361 10 OFFCURVE",
"395 67 CURVE SMOOTH",
"427 120 OFFCURVE",
"443 193 OFFCURVE",
"443 276 CURVE SMOOTH",
"443 365 OFFCURVE",
"423 433 OFFCURVE",
"388 475 CURVE SMOOTH",
"352 519 OFFCURVE",
"304 543 OFFCURVE",
"251 543 CURVE SMOOTH",
"194 543 OFFCURVE",
"144 517 OFFCURVE",
"109 467 CURVE SMOOTH",
"74 416 OFFCURVE",
"55 344 OFFCURVE",
"55 253 CURVE SMOOTH",
"55 169 OFFCURVE",
"72 105 OFFCURVE",
"104 58 CURVE SMOOTH",
"139 6 OFFCURVE",
"183 -18 OFFCURVE",
"242 -18 CURVE SMOOTH"
);
},
{
closed = 1;
nodes = (
"205 58 OFFCURVE",
"176 77 OFFCURVE",
"156 114 CURVE SMOOTH",
"136 152 OFFCURVE",
"127 195 OFFCURVE",
"127 255 CURVE SMOOTH",
"127 314 OFFCURVE",
"136 363 OFFCURVE",
"156 405 CURVE SMOOTH",
"176 446 OFFCURVE",
"209 466 OFFCURVE",
"250 466 CURVE SMOOTH",
"299 466 OFFCURVE",
"331 441 OFFCURVE",
"352 391 CURVE SMOOTH",
"364 364 OFFCURVE",
"370 329 OFFCURVE",
"370 273 CURVE SMOOTH",
"370 217 OFFCURVE",
"362 171 OFFCURVE",
"345 127 CURVE SMOOTH",
"327 80 OFFCURVE",
"295 58 OFFCURVE",
"249 58 CURVE SMOOTH"
);
}
);
userData = {
RMXScaler = {
adjustSpace = -10;
weight = -10;
width = 90;
};
};
width = 498;
}
);
leftKerningGroup = o;
note = o;
unicode = 006F;
userData = {
RMXScaler = {
source = o;
};
};
},
{
glyphname = p;
lastChange = "2019-03-09 00:11:00 +0000";
layers = (
{
layerId = "994FE389-9D54-4FAA-B055-C46A67020E78";
paths = (
{
closed = 1;
nodes = (
"156 -182 LINE",
"156 77 LINE",
"175 56 OFFCURVE",
"191 38 OFFCURVE",
"207 30 CURVE SMOOTH",
"233 16 OFFCURVE",
"265 4 OFFCURVE",
"303 4 CURVE SMOOTH",
"351 4 OFFCURVE",
"395 20 OFFCURVE",
"431 49 CURVE SMOOTH",
"489 96 OFFCURVE",
"517 176 OFFCURVE",
"517 286 CURVE SMOOTH",
"517 369 OFFCURVE",
"497 432 OFFCURVE",
"457 476 CURVE SMOOTH",
"417 521 OFFCURVE",
"368 542 OFFCURVE",
"311 542 CURVE SMOOTH",
"271 542 OFFCURVE",
"238 533 OFFCURVE",
"209 515 CURVE SMOOTH",
"188 502 OFFCURVE",
"171 483 OFFCURVE",
"153 461 CURVE",
"153 528 LINE",
"70 528 LINE",
"70 -182 LINE"
);
},
{
closed = 1;
nodes = (
"233 78 OFFCURVE",
"190 106 OFFCURVE",
"169 157 CURVE SMOOTH",
"158 185 OFFCURVE",
"152 219 OFFCURVE",
"152 258 CURVE SMOOTH",
"152 306 OFFCURVE",
"158 347 OFFCURVE",
"169 378 CURVE SMOOTH",
"190 437 OFFCURVE",
"233 467 OFFCURVE",
"291 467 CURVE SMOOTH",
"350 467 OFFCURVE",
"390 439 OFFCURVE",
"413 383 CURVE SMOOTH",
"425 354 OFFCURVE",
"431 318 OFFCURVE",
"431 278 CURVE SMOOTH",
"431 213 OFFCURVE",
"417 163 OFFCURVE",
"391 129 CURVE SMOOTH",
"365 96 OFFCURVE",
"331 78 OFFCURVE",
"291 78 CURVE SMOOTH"
);
}
);
width = 587;
},
{
layerId = "070DF6F6-38EC-45CA-8FD7-ED5C2C5DB7AE";
paths = (
{
closed = 1;
nodes = (
"123 -182 LINE",
"123 77 LINE",
"134 64 OFFCURVE",
"151 38 OFFCURVE",
"163 30 CURVE SMOOTH",
"181 18 OFFCURVE",
"209 4 OFFCURVE",
"240 4 CURVE SMOOTH",
"280 4 OFFCURVE",
"316 24 OFFCURVE",
"341 49 CURVE SMOOTH",
"387 96 OFFCURVE",
"409 175 OFFCURVE",
"409 286 CURVE SMOOTH",
"409 372 OFFCURVE",
"393 432 OFFCURVE",
"362 475 CURVE SMOOTH",
"330 520 OFFCURVE",
"293 542 OFFCURVE",
"246 542 CURVE SMOOTH",
"215 542 OFFCURVE",
"188 533 OFFCURVE",
"165 515 CURVE SMOOTH",
"148 502 OFFCURVE",
"138 487 OFFCURVE",
"121 461 CURVE",
"121 528 LINE",
"55 528 LINE",
"55 -182 LINE"
);
},
{
closed = 1;
nodes = (
"184 78 OFFCURVE",
"150 106 OFFCURVE",
"133 158 CURVE SMOOTH",
"125 183 OFFCURVE",
"120 227 OFFCURVE",
"120 258 CURVE SMOOTH",
"120 300 OFFCURVE",
"124 345 OFFCURVE",
"134 380 CURVE SMOOTH",
"150 437 OFFCURVE",
"185 467 OFFCURVE",
"230 467 CURVE SMOOTH",
"277 467 OFFCURVE",
"308 440 OFFCURVE",
"327 382 CURVE SMOOTH",
"336 356 OFFCURVE",
"341 321 OFFCURVE",
"341 278 CURVE SMOOTH",
"341 221 OFFCURVE",
"331 163 OFFCURVE",
"309 128 CURVE SMOOTH",
"289 96 OFFCURVE",
"261 78 OFFCURVE",
"230 78 CURVE SMOOTH"
);
}
);
userData = {
RMXScaler = {
adjustSpace = -10;
weight = -10;
width = 90;
};
};
width = 464;
}
);
leftKerningGroup = b;
note = p;
rightKerningGroup = o;
unicode = 0070;
userData = {
RMXScaler = {
source = p;
};
};
},
{
glyphname = q;
lastChange = "2019-03-09 00:11:00 +0000";
layers = (
{
layerId = "994FE389-9D54-4FAA-B055-C46A67020E78";
paths = (
{
closed = 1;
nodes = (
"521 -182 LINE",
"521 531 LINE",
"440 531 LINE",
"440 461 LINE",
"425 483 OFFCURVE",
"409 499 OFFCURVE",
"394 511 CURVE SMOOTH",
"365 533 OFFCURVE",
"329 543 OFFCURVE",
"287 543 CURVE SMOOTH",
"223 543 OFFCURVE",
"170 516 OFFCURVE",
"131 465 CURVE SMOOTH",
"92 413 OFFCURVE",
"70 346 OFFCURVE",
"70 263 CURVE SMOOTH",
"70 176 OFFCURVE",
"92 112 OFFCURVE",
"135 69 CURVE SMOOTH",
"178 26 OFFCURVE",
"226 6 OFFCURVE",
"281 6 CURVE SMOOTH",
"319 6 OFFCURVE",
"350 13 OFFCURVE",
"375 26 CURVE",
"401 38 OFFCURVE",
"420 57 OFFCURVE",
"435 80 CURVE",
"435 -182 LINE"
);
},
{
closed = 1;
nodes = (
"239 79 OFFCURVE",
"199 106 OFFCURVE",
"178 159 CURVE SMOOTH",
"166 189 OFFCURVE",
"160 226 OFFCURVE",
"160 269 CURVE SMOOTH",
"160 336 OFFCURVE",
"175 386 OFFCURVE",
"200 418 CURVE SMOOTH",
"226 452 OFFCURVE",
"258 466 OFFCURVE",
"295 466 CURVE SMOOTH",
"354 466 OFFCURVE",
"395 442 OFFCURVE",
"417 391 CURVE SMOOTH",
"430 362 OFFCURVE",
"439 325 OFFCURVE",
"439 281 CURVE SMOOTH",
"439 234 OFFCURVE",
"434 199 OFFCURVE",
"419 164 CURVE SMOOTH",
"395 107 OFFCURVE",
"355 79 OFFCURVE",
"295 79 CURVE SMOOTH"
);
}
);
width = 591;
},
{
layerId = "070DF6F6-38EC-45CA-8FD7-ED5C2C5DB7AE";
paths = (
{
closed = 1;
nodes = (
"413 -182 LINE",
"413 531 LINE",
"348 531 LINE",
"348 461 LINE",
"337 483 OFFCURVE",
"321 504 OFFCURVE",
"312 512 CURVE SMOOTH",
"288 534 OFFCURVE",
"257 543 OFFCURVE",
"227 543 CURVE SMOOTH",
"176 543 OFFCURVE",
"134 516 OFFCURVE",
"103 464 CURVE SMOOTH",
"73 413 OFFCURVE",
"55 349 OFFCURVE",
"55 263 CURVE SMOOTH",
"55 175 OFFCURVE",
"74 108 OFFCURVE",
"106 69 CURVE SMOOTH",
"139 28 OFFCURVE",
"178 6 OFFCURVE",
"222 6 CURVE SMOOTH",
"252 6 OFFCURVE",
"277 13 OFFCURVE",
"297 26 CURVE",
"318 38 OFFCURVE",
"335 59 OFFCURVE",
"345 80 CURVE",
"345 -182 LINE"
);
},
{
closed = 1;
nodes = (
"189 79 OFFCURVE",
"157 106 OFFCURVE",
"140 161 CURVE SMOOTH",
"131 189 OFFCURVE",
"126 232 OFFCURVE",
"126 269 CURVE SMOOTH",
"126 336 OFFCURVE",
"138 384 OFFCURVE",
"158 418 CURVE SMOOTH",
"180 456 OFFCURVE",
"207 466 OFFCURVE",
"234 466 CURVE SMOOTH",
"279 466 OFFCURVE",
"312 444 OFFCURVE",
"330 392 CURVE SMOOTH",
"340 362 OFFCURVE",
"347 328 OFFCURVE",
"347 281 CURVE SMOOTH",
"347 242 OFFCURVE",
"344 199 OFFCURVE",
"332 165 CURVE SMOOTH",
"313 111 OFFCURVE",
"284 79 OFFCURVE",
"234 79 CURVE SMOOTH"
);
}
);
userData = {
RMXScaler = {
adjustSpace = -10;
weight = -10;
width = 90;
};
};
width = 468;
}
);
leftKerningGroup = o;
note = q;
unicode = 0071;
userData = {
RMXScaler = {
source = q;
};
};
},
{
glyphname = r;
lastChange = "2019-03-09 00:11:00 +0000";
layers = (
{
layerId = "994FE389-9D54-4FAA-B055-C46A67020E78";
paths = (
{
closed = 1;
nodes = (
"158 0 LINE",
"158 305 LINE SMOOTH",
"158 342 OFFCURVE",
"170 376 OFFCURVE",
"194 404 CURVE SMOOTH",
"219 432 OFFCURVE",
"253 448 OFFCURVE",
"298 448 CURVE",
"312 447 LINE",
"316 447 OFFCURVE",
"321 446 OFFCURVE",
"327 446 CURVE",
"327 539 LINE",
"317 540 OFFCURVE",
"311 540 OFFCURVE",
"306 541 CURVE",
"302 542 OFFCURVE",
"300 541 OFFCURVE",
"298 541 CURVE SMOOTH",
"263 541 OFFCURVE",
"231 528 OFFCURVE",
"204 503 CURVE SMOOTH",
"185 485 OFFCURVE",
"161 456 OFFCURVE",
"153 437 CURVE",
"153 529 LINE",
"70 529 LINE",
"70 0 LINE"
);
}
);
width = 397;
},
{
layerId = "070DF6F6-38EC-45CA-8FD7-ED5C2C5DB7AE";
paths = (
{
closed = 1;
nodes = (
"125 0 LINE",
"125 305 LINE SMOOTH",
"125 340 OFFCURVE",
"134 376 OFFCURVE",
"152 401 CURVE SMOOTH",
"173 432 OFFCURVE",
"199 448 OFFCURVE",
"236 448 CURVE",
"247 447 LINE",
"250 447 OFFCURVE",
"254 446 OFFCURVE",
"258 446 CURVE",
"258 539 LINE",
"250 540 OFFCURVE",
"246 540 OFFCURVE",
"242 541 CURVE",
"239 542 OFFCURVE",
"238 541 OFFCURVE",
"236 541 CURVE SMOOTH",
"208 541 OFFCURVE",
"181 526 OFFCURVE",
"161 503 CURVE SMOOTH",
"147 487 OFFCURVE",
"126 454 OFFCURVE",
"121 437 CURVE",
"121 529 LINE",
"55 529 LINE",
"55 0 LINE"
);
}
);
userData = {
RMXScaler = {
adjustSpace = -10;
weight = -10;
width = 90;
};
};
width = 313;
}
);
note = r;
unicode = 0072;
userData = {
RMXScaler = {
source = r;
};
};
},
{
glyphname = s;
lastChange = "2019-03-09 00:11:00 +0000";
layers = (
{
layerId = "994FE389-9D54-4FAA-B055-C46A67020E78";
paths = (
{
closed = 1;
nodes = (
"356 -9 OFFCURVE",
"408 8 OFFCURVE",
"444 40 CURVE SMOOTH",
"481 73 OFFCURVE",
"495 115 OFFCURVE",
"495 160 CURVE SMOOTH",
"495 208 OFFCURVE",
"479 242 OFFCURVE",
"446 265 CURVE",
"424 279 OFFCURVE",
"383 290 OFFCURVE",
"319 307 CURVE SMOOTH",
"263 322 LINE SMOOTH",
"237 329 OFFCURVE",
"229 331 OFFCURVE",
"207 344 CURVE",
"184 358 OFFCURVE",
"173 376 OFFCURVE",
"173 396 CURVE SMOOTH",
"173 417 OFFCURVE",
"181 435 OFFCURVE",
"198 447 CURVE SMOOTH",
"216 460 OFFCURVE",
"239 466 OFFCURVE",
"273 466 CURVE SMOOTH",
"321 466 OFFCURVE",
"356 455 OFFCURVE",
"377 432 CURVE",
"388 416 OFFCURVE",
"396 397 OFFCURVE",
"398 379 CURVE",
"479 379 LINE",
"480 411 OFFCURVE",
"469 443 OFFCURVE",
"447 474 CURVE SMOOTH",
"414 519 OFFCURVE",
"357 540 OFFCURVE",
"279 540 CURVE SMOOTH",
"218 540 OFFCURVE",
"172 525 OFFCURVE",
"137 495 CURVE SMOOTH",
"102 466 OFFCURVE",
"85 425 OFFCURVE",
"85 377 CURVE SMOOTH",
"85 335 OFFCURVE",
"104 303 OFFCURVE",
"139 279 CURVE SMOOTH",
"160 265 OFFCURVE",
"198 252 OFFCURVE",
"238 242 CURVE SMOOTH",
"308 225 LINE SMOOTH",
"353 214 OFFCURVE",
"362 209 OFFCURVE",
"381 201 CURVE",
"401 189 OFFCURVE",
"409 172 OFFCURVE",
"409 150 CURVE SMOOTH",
"409 121 OFFCURVE",
"398 100 OFFCURVE",
"374 86 CURVE SMOOTH",
"349 71 OFFCURVE",
"320 64 OFFCURVE",
"289 64 CURVE SMOOTH",
"234 64 OFFCURVE",
"198 78 OFFCURVE",
"175 106 CURVE SMOOTH",
"162 122 OFFCURVE",
"156 144 OFFCURVE",
"153 173 CURVE",
"70 173 LINE",
"72 121 OFFCURVE",
"89 78 OFFCURVE",
"122 43 CURVE SMOOTH",
"153 9 OFFCURVE",
"208 -9 OFFCURVE",
"285 -9 CURVE SMOOTH"
);
}
);
width = 565;
},
{
layerId = "070DF6F6-38EC-45CA-8FD7-ED5C2C5DB7AE";
paths = (
{
closed = 1;
nodes = (
"281 -9 OFFCURVE",
"323 8 OFFCURVE",
"352 40 CURVE SMOOTH",
"381 73 OFFCURVE",
"392 119 OFFCURVE",
"392 160 CURVE SMOOTH",
"392 208 OFFCURVE",
"379 242 OFFCURVE",
"353 265 CURVE",
"336 279 OFFCURVE",
"304 289 OFFCURVE",
"252 307 CURVE SMOOTH",
"208 322 LINE SMOOTH",
"187 329 OFFCURVE",
"181 331 OFFCURVE",
"163 344 CURVE",
"146 358 OFFCURVE",
"137 376 OFFCURVE",
"137 396 CURVE SMOOTH",
"137 416 OFFCURVE",
"143 435 OFFCURVE",
"156 447 CURVE SMOOTH",
"170 460 OFFCURVE",
"191 466 OFFCURVE",
"216 466 CURVE SMOOTH",
"254 466 OFFCURVE",
"281 455 OFFCURVE",
"298 432 CURVE",
"307 416 OFFCURVE",
"313 396 OFFCURVE",
"315 379 CURVE",
"379 379 LINE",
"380 411 OFFCURVE",
"370 446 OFFCURVE",
"355 472 CURVE SMOOTH",
"328 519 OFFCURVE",
"282 540 OFFCURVE",
"221 540 CURVE SMOOTH",
"172 540 OFFCURVE",
"136 525 OFFCURVE",
"108 495 CURVE SMOOTH",
"81 466 OFFCURVE",
"66 427 OFFCURVE",
"66 377 CURVE SMOOTH",
"66 333 OFFCURVE",
"82 303 OFFCURVE",
"111 278 CURVE SMOOTH",
"126 265 OFFCURVE",
"161 250 OFFCURVE",
"188 242 CURVE SMOOTH",
"244 225 LINE SMOOTH",
"270 217 OFFCURVE",
"281 214 OFFCURVE",
"302 201 CURVE",
"319 188 OFFCURVE",
"324 167 OFFCURVE",
"324 150 CURVE SMOOTH",
"324 120 OFFCURVE",
"314 100 OFFCURVE",
"298 88 CURVE SMOOTH",
"276 71 OFFCURVE",
"254 64 OFFCURVE",
"229 64 CURVE SMOOTH",
"187 64 OFFCURVE",
"156 78 OFFCURVE",
"139 104 CURVE SMOOTH",
"128 122 OFFCURVE",
"123 142 OFFCURVE",
"121 173 CURVE",
"55 173 LINE",
"57 121 OFFCURVE",
"67 84 OFFCURVE",
"96 44 CURVE SMOOTH",
"121 9 OFFCURVE",
"162 -9 OFFCURVE",
"226 -9 CURVE SMOOTH"
);
}
);
userData = {
RMXScaler = {
adjustSpace = -10;
weight = -10;
width = 90;
};
};
width = 447;
}
);
note = s;
rightKerningGroup = o;
unicode = 0073;
userData = {
RMXScaler = {
source = s;
};
};
},
{
glyphname = t;
lastChange = "2019-03-09 00:11:00 +0000";
layers = (
{
layerId = "994FE389-9D54-4FAA-B055-C46A67020E78";
paths = (
{
closed = 1;
nodes = (
"263 -14 OFFCURVE",
"275 -13 OFFCURVE",
"289 -12 CURVE SMOOTH",
"300 -11 OFFCURVE",
"310 -7 OFFCURVE",
"318 -4 CURVE",
"318 66 LINE",
"302 66 LINE SMOOTH",
"297 66 OFFCURVE",
"292 65 OFFCURVE",
"289 65 CURVE SMOOTH",
"271 65 OFFCURVE",
"259 66 OFFCURVE",
"252 69 CURVE",
"239 76 OFFCURVE",
"235 89 OFFCURVE",
"235 108 CURVE SMOOTH",
"235 458 LINE",
"318 458 LINE",
"318 531 LINE",
"235 531 LINE",
"235 682 LINE",
"144 682 LINE",
"144 531 LINE",
"70 531 LINE",
"70 458 LINE",
"144 458 LINE",
"144 103 LINE SMOOTH",
"144 67 OFFCURVE",
"150 41 OFFCURVE",
"165 19 CURVE",
"179 -4 OFFCURVE",
"209 -14 OFFCURVE",
"250 -14 CURVE SMOOTH"
);
}
);
width = 388;
},
{
layerId = "070DF6F6-38EC-45CA-8FD7-ED5C2C5DB7AE";
paths = (
{
closed = 1;
nodes = (
"206 -14 OFFCURVE",
"219 -13 OFFCURVE",
"229 -12 CURVE SMOOTH",
"237 -11 OFFCURVE",
"245 -7 OFFCURVE",
"251 -4 CURVE",
"251 66 LINE",
"239 66 LINE SMOOTH",
"235 66 OFFCURVE",
"231 65 OFFCURVE",
"229 65 CURVE SMOOTH",
"216 65 OFFCURVE",
"205 66 OFFCURVE",
"199 69 CURVE",
"189 76 OFFCURVE",
"186 89 OFFCURVE",
"186 108 CURVE SMOOTH",
"186 458 LINE",
"251 458 LINE",
"251 531 LINE",
"186 531 LINE",
"186 682 LINE",
"114 682 LINE",
"114 531 LINE",
"55 531 LINE",
"55 458 LINE",
"114 458 LINE",
"114 103 LINE SMOOTH",
"114 70 OFFCURVE",
"118 41 OFFCURVE",
"130 19 CURVE",
"141 -4 OFFCURVE",
"166 -14 OFFCURVE",
"198 -14 CURVE SMOOTH"
);
}
);
userData = {
RMXScaler = {
adjustSpace = -10;
weight = -10;
width = 90;
};
};
width = 306;
}
);
note = t;
unicode = 0074;
userData = {
RMXScaler = {
source = t;
};
};
},
{
glyphname = u;
lastChange = "2019-03-09 00:11:00 +0000";
layers = (
{
layerId = "994FE389-9D54-4FAA-B055-C46A67020E78";
paths = (
{
closed = 1;
nodes = (
"296 -14 OFFCURVE",
"336 -1 OFFCURVE",
"372 27 CURVE SMOOTH",
"390 42 OFFCURVE",
"401 60 OFFCURVE",
"413 78 CURVE",
"413 1 LINE",
"497 1 LINE",
"497 531 LINE",
"408 531 LINE",
"408 270 LINE SMOOTH",
"408 218 OFFCURVE",
"402 177 OFFCURVE",
"389 149 CURVE SMOOTH",
"364 95 OFFCURVE",
"325 66 OFFCURVE",
"263 66 CURVE SMOOTH",
"219 66 OFFCURVE",
"192 80 OFFCURVE",
"175 113 CURVE SMOOTH",
"167 129 OFFCURVE",
"162 151 OFFCURVE",
"162 179 CURVE SMOOTH",
"162 531 LINE",
"70 531 LINE",
"70 171 LINE SMOOTH",
"70 126 OFFCURVE",
"77 88 OFFCURVE",
"93 61 CURVE SMOOTH",
"121 11 OFFCURVE",
"173 -14 OFFCURVE",
"247 -14 CURVE SMOOTH"
);
}
);
width = 567;
},
{
layerId = "070DF6F6-38EC-45CA-8FD7-ED5C2C5DB7AE";
paths = (
{
closed = 1;
nodes = (
"237 -14 OFFCURVE",
"271 5 OFFCURVE",
"295 27 CURVE SMOOTH",
"306 37 OFFCURVE",
"320 64 OFFCURVE",
"327 78 CURVE",
"327 1 LINE",
"393 1 LINE",
"393 531 LINE",
"323 531 LINE",
"323 270 LINE SMOOTH",
"323 220 OFFCURVE",
"318 177 OFFCURVE",
"308 149 CURVE SMOOTH",
"289 97 OFFCURVE",
"258 66 OFFCURVE",
"208 66 CURVE SMOOTH",
"173 66 OFFCURVE",
"152 80 OFFCURVE",
"139 111 CURVE SMOOTH",
"132 128 OFFCURVE",
"128 150 OFFCURVE",
"128 179 CURVE SMOOTH",
"128 531 LINE",
"55 531 LINE",
"55 171 LINE SMOOTH",
"55 129 OFFCURVE",
"60 90 OFFCURVE",
"74 58 CURVE SMOOTH",
"93 15 OFFCURVE",
"135 -14 OFFCURVE",
"195 -14 CURVE SMOOTH"
);
}
);
userData = {
RMXScaler = {
adjustSpace = -10;
weight = -10;
width = 90;
};
};
width = 448;
}
);
note = u;
unicode = 0075;
userData = {
RMXScaler = {
source = u;
};
};
},
{
glyphname = v;
lastChange = "2019-03-09 00:11:00 +0000";
layers = (
{
layerId = "994FE389-9D54-4FAA-B055-C46A67020E78";
paths = (
{
closed = 1;
nodes = (
"360 -1 LINE",
"560 531 LINE",
"463 531 LINE",
"314 98 LINE",
"173 531 LINE",
"70 531 LINE",
"265 -1 LINE"
);
}
);
width = 630;
},
{
layerId = "070DF6F6-38EC-45CA-8FD7-ED5C2C5DB7AE";
paths = (
{
closed = 1;
nodes = (
"285 -1 LINE",
"443 531 LINE",
"367 531 LINE",
"249 98 LINE",
"137 531 LINE",
"55 531 LINE",
"209 -1 LINE"
);
}
);
userData = {
RMXScaler = {
adjustSpace = -10;
weight = -10;
width = 90;
};
};
width = 498;
}
);
note = v;
unicode = 0076;
userData = {
RMXScaler = {
source = v;
};
};
},
{
glyphname = w;
lastChange = "2019-03-09 00:11:00 +0000";
layers = (
{
layerId = "994FE389-9D54-4FAA-B055-C46A67020E78";
paths = (
{
closed = 1;
nodes = (
"315 0 LINE",
"418 409 LINE",
"527 0 LINE",
"619 0 LINE",
"772 529 LINE",
"684 529 LINE",
"576 116 LINE",
"472 529 LINE",
"371 529 LINE",
"268 113 LINE",
"167 529 LINE",
"70 529 LINE",
"223 0 LINE"
);
}
);
width = 842;
},
{
layerId = "070DF6F6-38EC-45CA-8FD7-ED5C2C5DB7AE";
paths = (
{
closed = 1;
nodes = (
"250 0 LINE",
"331 409 LINE",
"417 0 LINE",
"490 0 LINE",
"612 529 LINE",
"542 529 LINE",
"456 116 LINE",
"374 529 LINE",
"294 529 LINE",
"212 113 LINE",
"132 529 LINE",
"55 529 LINE",
"177 0 LINE"
);
}
);
userData = {
RMXScaler = {
adjustSpace = -10;
weight = -10;
width = 90;
};
};
width = 667;
}
);
note = w;
unicode = 0077;
userData = {
RMXScaler = {
source = w;
};
};
},
{
glyphname = x;
lastChange = "2019-03-09 00:11:00 +0000";
layers = (
{
layerId = "994FE389-9D54-4FAA-B055-C46A67020E78";
paths = (
{
closed = 1;
nodes = (
"184 1 LINE",
"311 201 LINE",
"443 1 LINE",
"559 1 LINE",
"371 274 LINE",
"550 531 LINE",
"441 533 LINE",
"318 346 LINE",
"196 533 LINE",
"80 533 LINE",
"258 274 LINE",
"70 1 LINE"
);
}
);
width = 629;
},
{
layerId = "070DF6F6-38EC-45CA-8FD7-ED5C2C5DB7AE";
paths = (
{
closed = 1;
nodes = (
"146 1 LINE",
"246 201 LINE",
"351 1 LINE",
"443 1 LINE",
"294 274 LINE",
"436 531 LINE",
"349 533 LINE",
"251 346 LINE",
"154 533 LINE",
"63 533 LINE",
"204 274 LINE",
"55 1 LINE"
);
}
);
userData = {
RMXScaler = {
adjustSpace = -10;
weight = -10;
width = 90;
};
};
width = 498;
}
);
note = x;
unicode = 0078;
userData = {
RMXScaler = {
source = x;
};
};
},
{
glyphname = y;
lastChange = "2019-03-09 00:11:00 +0000";
layers = (
{
layerId = "994FE389-9D54-4FAA-B055-C46A67020E78";
paths = (
{
closed = 1;
nodes = (
"218 -189 OFFCURVE",
"253 -175 OFFCURVE",
"273 -146 CURVE SMOOTH",
"293 -117 OFFCURVE",
"329 -38 OFFCURVE",
"378 92 CURVE SMOOTH",
"379 95 OFFCURVE",
"433 237 OFFCURVE",
"457 306 CURVE SMOOTH",
"476 361 OFFCURVE",
"526 498 OFFCURVE",
"537 531 CURVE",
"442 531 LINE",
"305 116 LINE",
"167 531 LINE",
"70 531 LINE",
"259 6 LINE",
"254 -6 OFFCURVE",
"254 -9 OFFCURVE",
"238 -47 CURVE SMOOTH",
"230 -67 OFFCURVE",
"222 -84 OFFCURVE",
"220 -86 CURVE",
"215 -94 OFFCURVE",
"209 -100 OFFCURVE",
"201 -105 CURVE",
"194 -110 OFFCURVE",
"182 -114 OFFCURVE",
"166 -114 CURVE SMOOTH",
"162 -114 OFFCURVE",
"156 -113 OFFCURVE",
"149 -112 CURVE SMOOTH",
"142 -111 OFFCURVE",
"132 -108 OFFCURVE",
"117 -104 CURVE",
"117 -182 LINE",
"140 -187 LINE",
"147 -188 OFFCURVE",
"157 -189 OFFCURVE",
"168 -189 CURVE SMOOTH"
);
}
);
width = 607;
},
{
layerId = "070DF6F6-38EC-45CA-8FD7-ED5C2C5DB7AE";
paths = (
{
closed = 1;
nodes = (
"170 -189 OFFCURVE",
"200 -176 OFFCURVE",
"217 -145 CURVE SMOOTH",
"232 -117 OFFCURVE",
"259 -50 OFFCURVE",
"299 92 CURVE SMOOTH",
"300 97 OFFCURVE",
"336 202 OFFCURVE",
"362 307 CURVE SMOOTH",
"379 376 OFFCURVE",
"416 498 OFFCURVE",
"425 531 CURVE",
"350 531 LINE",
"242 116 LINE",
"132 531 LINE",
"55 531 LINE",
"205 6 LINE",
"201 -6 OFFCURVE",
"204 8 OFFCURVE",
"188 -47 CURVE SMOOTH",
"182 -67 OFFCURVE",
"175 -83 OFFCURVE",
"174 -86 CURVE",
"170 -93 OFFCURVE",
"167 -97 OFFCURVE",
"159 -105 CURVE",
"154 -110 OFFCURVE",
"142 -114 OFFCURVE",
"131 -114 CURVE SMOOTH",
"127 -114 OFFCURVE",
"123 -113 OFFCURVE",
"118 -112 CURVE SMOOTH",
"112 -111 OFFCURVE",
"104 -108 OFFCURVE",
"92 -104 CURVE",
"92 -182 LINE",
"110 -187 LINE",
"116 -188 OFFCURVE",
"125 -189 OFFCURVE",
"132 -189 CURVE SMOOTH"
);
}
);
userData = {
RMXScaler = {
adjustSpace = -10;
weight = -10;
width = 90;
};
};
width = 480;
}
);
note = y;
unicode = 0079;
userData = {
RMXScaler = {
source = y;
};
};
},
{
glyphname = z;
lastChange = "2019-03-09 00:11:00 +0000";
layers = (
{
layerId = "994FE389-9D54-4FAA-B055-C46A67020E78";
paths = (
{
closed = 1;
nodes = (
"516 -1 LINE",
"516 79 LINE",
"193 79 LINE",
"507 458 LINE",
"507 531 LINE",
"94 531 LINE",
"94 451 LINE",
"386 451 LINE",
"70 69 LINE",
"70 -1 LINE"
);
}
);
width = 586;
},
{
layerId = "070DF6F6-38EC-45CA-8FD7-ED5C2C5DB7AE";
paths = (
{
closed = 1;
nodes = (
"408 -1 LINE",
"408 79 LINE",
"153 79 LINE",
"401 458 LINE",
"401 531 LINE",
"74 531 LINE",
"74 451 LINE",
"305 451 LINE",
"55 69 LINE",
"55 -1 LINE"
);
}
);
userData = {
RMXScaler = {
adjustSpace = -10;
weight = -10;
width = 90;
};
};
width = 463;
}
);
note = z;
unicode = 007A;
userData = {
RMXScaler = {
source = z;
};
};
},
{
glyphname = fi;
lastChange = "2019-03-09 00:11:00 +0000";
layers = (
{
layerId = "994FE389-9D54-4FAA-B055-C46A67020E78";
paths = (
{
closed = 1;
nodes = (
"135 525 LINE",
"60 525 LINE",
"60 454 LINE",
"135 454 LINE",
"135 -7 LINE",
"223 -7 LINE",
"223 454 LINE",
"313 454 LINE",
"313 525 LINE",
"224 525 LINE",
"224 613 OFFCURVE",
"240 656 OFFCURVE",
"281 656 QCURVE SMOOTH",
"286 656 OFFCURVE",
"299 655 OFFCURVE",
"313 654 QCURVE",
"313 735 LINE",
"302 737 OFFCURVE",
"283 737 OFFCURVE",
"276 737 QCURVE SMOOTH",
"186 737 OFFCURVE",
"154 691 QCURVE SMOOTH",
"136 665 OFFCURVE",
"135 609 QCURVE"
);
},
{
closed = 1;
nodes = (
"490 625 LINE",
"490 727 LINE",
"400 727 LINE",
"400 625 LINE"
);
},
{
closed = 1;
nodes = (
"400 -7 LINE",
"490 -7 LINE",
"490 525 LINE",
"400 525 LINE"
);
}
);
userData = {
assembly = "NPUSHB[ ]\011/* 54 values pushed */
27 229 25 0 7 29 6 10 29 3 1 15 20 57 29 22 13 6 31 17 10 33 23 23 26 27 30 41 24 31 14 13 17 41 23 18 7 18 15 14 31 14 2 14 252 20 25 32 33 210 33 103 66 24 
CALL[ ]\011/* CallFunction */
CALL[ ]\011/* CallFunction */
FLIPOFF[ ]\011/* SetAutoFlipOff */
MIRP[10100]\011/* MoveIndirectRelPt */
FLIPON[ ]\011/* SetAutoFlipOn */
MIRP[11101]\011/* MoveIndirectRelPt */
DELTAP1[ ]\011/* DeltaExceptionP1 */
IP[ ]\011/* InterpolatePts */
MDRP[00100]\011/* MoveDirectRelPt */
MDAP[1]\011/* MoveDirectAbsPt */
ALIGNRP[ ]\011/* AlignRelativePt */
MIRP[11101]\011/* MoveIndirectRelPt */
ALIGNRP[ ]\011/* AlignRelativePt */
SRP0[ ]\011/* SetRefPoint0 */
MDRP[10110]\011/* MoveDirectRelPt */
ALIGNRP[ ]\011/* AlignRelativePt */
MIRP[11101]\011/* MoveIndirectRelPt */
ALIGNRP[ ]\011/* AlignRelativePt */
FLIPOFF[ ]\011/* SetAutoFlipOff */
RCVT[ ]\011/* ReadCVT */
NEG[ ]\011/* Negate */
WCVTP[ ]\011/* WriteCVTInPixels */
MIRP[00110]\011/* MoveIndirectRelPt */
SVTCA[0]\011/* SetFreedomAndProjectionVectorToAxis */
MIAP[1]\011/* MoveIndirectAbsPt */
ALIGNRP[ ]\011/* AlignRelativePt */
MIAP[1]\011/* MoveIndirectAbsPt */
ALIGNRP[ ]\011/* AlignRelativePt */
ALIGNRP[ ]\011/* AlignRelativePt */
FLIPON[ ]\011/* SetAutoFlipOn */
MIRP[11101]\011/* MoveIndirectRelPt */
ALIGNRP[ ]\011/* AlignRelativePt */
MIAP[1]\011/* MoveIndirectAbsPt */
MIRP[01101]\011/* MoveIndirectRelPt */
MDRP[10100]\011/* MoveDirectRelPt */
MIRP[01101]\011/* MoveIndirectRelPt */
MIAP[1]\011/* MoveIndirectAbsPt */
MIRP[01101]\011/* MoveIndirectRelPt */
SVTCA[1]\011/* SetFreedomAndProjectionVectorToAxis */
IUP[1]\011/* InterpolateUntPts */
IUP[0]\011/* InterpolateUntPts */";
};
width = 557;
},
{
layerId = "070DF6F6-38EC-45CA-8FD7-ED5C2C5DB7AE";
paths = (
{
closed = 1;
nodes = (
"144 382 LINE",
"90 382 LINE",
"90 331 LINE",
"144 331 LINE",
"144 -6 LINE",
"209 -6 LINE",
"209 331 LINE",
"276 331 LINE",
"276 382 LINE",
"210 382 LINE",
"210 447 OFFCURVE",
"222 477 OFFCURVE",
"251 477 QCURVE SMOOTH",
"255 477 OFFCURVE",
"265 477 OFFCURVE",
"276 476 QCURVE",
"276 536 LINE",
"267 536 OFFCURVE",
"253 536 OFFCURVE",
"248 536 QCURVE SMOOTH",
"181 536 OFFCURVE",
"159 504 QCURVE SMOOTH",
"145 484 OFFCURVE",
"144 445 QCURVE"
);
},
{
closed = 1;
nodes = (
"404 455 LINE",
"404 529 LINE",
"338 529 LINE",
"338 455 LINE"
);
},
{
closed = 1;
nodes = (
"338 -6 LINE",
"404 -6 LINE",
"404 382 LINE",
"338 382 LINE"
);
}
);
width = 524;
}
);
note = fi;
unicode = FB01;
},
{
glyphname = fl;
lastChange = "2019-03-09 00:11:00 +0000";
layers = (
{
layerId = "994FE389-9D54-4FAA-B055-C46A67020E78";
paths = (
{
closed = 1;
nodes = (
"487 710 LINE",
"399 710 LINE",
"399 -10 LINE",
"487 -10 LINE"
);
},
{
closed = 1;
nodes = (
"227 443 LINE",
"316 443 LINE",
"316 512 LINE",
"227 512 LINE",
"227 577 LINE SMOOTH",
"227 606 OFFCURVE",
"234 617 QCURVE SMOOTH",
"248 640 OFFCURVE",
"284 640 QCURVE SMOOTH",
"290 640 OFFCURVE",
"301 639 OFFCURVE",
"316 638 QCURVE",
"316 717 LINE",
"304 719 OFFCURVE",
"284 720 OFFCURVE",
"272 720 QCURVE SMOOTH",
"213 720 OFFCURVE",
"140 664 OFFCURVE",
"140 605 QCURVE SMOOTH",
"140 512 LINE",
"67 512 LINE",
"67 443 LINE",
"140 443 LINE",
"140 -10 LINE",
"227 -10 LINE"
);
}
);
userData = {
assembly = "NPUSHB[ ]\011/* 49 values pushed */
2 0 17 29 16 22 29 13 1 28 6 57 25 9 6 0 5 10 30 23 23 26 0 41 1 26 25 28 41 9 6 17 6 15 26 31 26 2 26 252 7 25 29 30 210 33 103 66 24 
CALL[ ]\011/* CallFunction */
CALL[ ]\011/* CallFunction */
FLIPOFF[ ]\011/* SetAutoFlipOff */
MIRP[10100]\011/* MoveIndirectRelPt */
FLIPON[ ]\011/* SetAutoFlipOn */
MIRP[11101]\011/* MoveIndirectRelPt */
DELTAP1[ ]\011/* DeltaExceptionP1 */
IP[ ]\011/* InterpolatePts */
MDRP[00100]\011/* MoveDirectRelPt */
MDAP[1]\011/* MoveDirectAbsPt */
ALIGNRP[ ]\011/* AlignRelativePt */
MIRP[11101]\011/* MoveIndirectRelPt */
ALIGNRP[ ]\011/* AlignRelativePt */
SRP0[ ]\011/* SetRefPoint0 */
MDRP[10110]\011/* MoveDirectRelPt */
MIRP[11101]\011/* MoveIndirectRelPt */
FLIPOFF[ ]\011/* SetAutoFlipOff */
RCVT[ ]\011/* ReadCVT */
NEG[ ]\011/* Negate */
WCVTP[ ]\011/* WriteCVTInPixels */
MIRP[00110]\011/* MoveIndirectRelPt */
SVTCA[0]\011/* SetFreedomAndProjectionVectorToAxis */
MIAP[1]\011/* MoveIndirectAbsPt */
ALIGNRP[ ]\011/* AlignRelativePt */
MIAP[1]\011/* MoveIndirectAbsPt */
ALIGNRP[ ]\011/* AlignRelativePt */
FLIPON[ ]\011/* SetAutoFlipOn */
MIRP[11101]\011/* MoveIndirectRelPt */
ALIGNRP[ ]\011/* AlignRelativePt */
MIAP[1]\011/* MoveIndirectAbsPt */
MIRP[01101]\011/* MoveIndirectRelPt */
MDRP[10100]\011/* MoveDirectRelPt */
MIRP[01101]\011/* MoveIndirectRelPt */
MIAP[1]\011/* MoveIndirectAbsPt */
SVTCA[1]\011/* SetFreedomAndProjectionVectorToAxis */
IUP[1]\011/* InterpolateUntPts */
IUP[0]\011/* InterpolateUntPts */";
};
width = 555;
},
{
layerId = "070DF6F6-38EC-45CA-8FD7-ED5C2C5DB7AE";
paths = (
{
closed = 1;
nodes = (
"466 721 LINE",
"378 721 LINE",
"378 -1 LINE",
"466 -1 LINE"
);
},
{
closed = 1;
nodes = (
"206 453 LINE",
"295 453 LINE",
"295 523 LINE",
"206 523 LINE",
"206 588 LINE SMOOTH",
"206 616 OFFCURVE",
"214 628 QCURVE SMOOTH",
"229 651 OFFCURVE",
"263 651 QCURVE SMOOTH",
"269 651 OFFCURVE",
"281 650 OFFCURVE",
"295 649 QCURVE",
"295 728 LINE",
"283 730 OFFCURVE",
"263 731 OFFCURVE",
"252 731 QCURVE SMOOTH",
"191 731 OFFCURVE",
"118 675 OFFCURVE",
"118 616 QCURVE SMOOTH",
"118 523 LINE",
"46 523 LINE",
"46 453 LINE",
"118 453 LINE",
"118 -1 LINE",
"206 -1 LINE"
);
}
);
width = 521;
}
);
note = fl;
unicode = FB02;
},
{
glyphname = A_W.liga;
lastChange = "2019-03-09 00:11:00 +0000";
layers = (
{
layerId = "994FE389-9D54-4FAA-B055-C46A67020E78";
paths = (
{
closed = 1;
nodes = (
"854 0 LINE",
"1013 566 LINE",
"1171 0 LINE",
"1268 0 LINE",
"1448 684 LINE",
"1346 684 LINE",
"1217 128 LINE",
"1064 684 LINE",
"962 684 LINE",
"809 128 LINE",
"679 684 LINE",
"579 684 LINE",
"758 0 LINE"
);
},
{
closed = 1;
nodes = (
"164 0 LINE",
"238 203 LINE",
"508 203 LINE",
"577 0 LINE",
"679 0 LINE",
"431 682 LINE",
"326 682 LINE",
"70 0 LINE"
);
},
{
closed = 1;
nodes = (
"376 579 LINE",
"478 278 LINE",
"264 278 LINE"
);
}
);
width = 1518;
},
{
layerId = "070DF6F6-38EC-45CA-8FD7-ED5C2C5DB7AE";
paths = (
{
closed = 1;
nodes = (
"677 0 LINE",
"803 566 LINE",
"928 0 LINE",
"1004 0 LINE",
"1147 684 LINE",
"1066 684 LINE",
"964 128 LINE",
"843 684 LINE",
"762 684 LINE",
"641 128 LINE",
"538 684 LINE",
"458 684 LINE",
"600 0 LINE"
);
},
{
closed = 1;
nodes = (
"130 0 LINE",
"188 203 LINE",
"402 203 LINE",
"457 0 LINE",
"538 0 LINE",
"341 682 LINE",
"258 682 LINE",
"55 0 LINE"
);
},
{
closed = 1;
nodes = (
"297 579 LINE",
"378 278 LINE",
"209 278 LINE"
);
}
);
userData = {
RMXScaler = {
adjustSpace = -10;
weight = -10;
width = 90;
};
};
width = 1202;
}
);
userData = {
RMXScaler = {
source = A_W.liga;
};
};
},
{
glyphname = W_A.liga;
lastChange = "2019-03-09 00:11:00 +0000";
layers = (
{
layerId = "994FE389-9D54-4FAA-B055-C46A67020E78";
paths = (
{
closed = 1;
nodes = (
"345 0 LINE",
"504 566 LINE",
"662 0 LINE",
"759 0 LINE",
"939 684 LINE",
"837 684 LINE",
"708 128 LINE",
"555 684 LINE",
"453 684 LINE",
"300 128 LINE",
"170 684 LINE",
"70 684 LINE",
"249 0 LINE"
);
},
{
closed = 1;
nodes = (
"943 0 LINE",
"1016 203 LINE",
"1286 203 LINE",
"1356 0 LINE",
"1457 0 LINE",
"1209 682 LINE",
"1105 682 LINE",
"848 0 LINE"
);
},
{
closed = 1;
nodes = (
"1155 579 LINE",
"1256 278 LINE",
"1043 278 LINE"
);
}
);
width = 1527;
},
{
layerId = "070DF6F6-38EC-45CA-8FD7-ED5C2C5DB7AE";
paths = (
{
closed = 1;
nodes = (
"274 0 LINE",
"399 566 LINE",
"525 0 LINE",
"601 0 LINE",
"744 684 LINE",
"663 684 LINE",
"561 128 LINE",
"440 684 LINE",
"359 684 LINE",
"237 128 LINE",
"134 684 LINE",
"55 684 LINE",
"197 0 LINE"
);
},
{
closed = 1;
nodes = (
"747 0 LINE",
"804 203 LINE",
"1019 203 LINE",
"1074 0 LINE",
"1154 0 LINE",
"958 682 LINE",
"876 682 LINE",
"672 0 LINE"
);
},
{
closed = 1;
nodes = (
"916 579 LINE",
"995 278 LINE",
"827 278 LINE"
);
}
);
userData = {
RMXScaler = {
adjustSpace = -10;
weight = -10;
width = 90;
};
};
width = 1209;
}
);
userData = {
RMXScaler = {
source = W_A.liga;
};
};
},
{
glyphname = "hi-ethiopic";
lastChange = "2019-03-09 00:11:24 +0000";
layers = (
{
components = (
{
name = "ha-ethiopic";
}
);
layerId = "994FE389-9D54-4FAA-B055-C46A67020E78";
paths = (
{
closed = 1;
nodes = (
"492 93 LINE",
"494 94 OFFCURVE",
"495 96 OFFCURVE",
"496 97 CURVE",
"490 82 OFFCURVE",
"497 -198 OFFCURVE",
"497 -185 CURVE",
"668 -185 LINE",
"668 -114 LINE",
"571 -114 LINE",
"570 146 LINE",
"570 278 LINE"
);
}
);
width = 682;
},
{
components = (
{
name = "ha-ethiopic";
transform = "{1, 0, 0, 1, 21, 0}";
}
);
layerId = "070DF6F6-38EC-45CA-8FD7-ED5C2C5DB7AE";
paths = (
{
closed = 1;
nodes = (
"409 93 LINE",
"411 94 OFFCURVE",
"412 96 OFFCURVE",
"413 97 CURVE",
"407 82 OFFCURVE",
"414 -198 OFFCURVE",
"414 -185 CURVE",
"548 -185 LINE",
"548 -114 LINE",
"472 -114 LINE",
"471 146 LINE",
"471 278 LINE"
);
}
);
userData = {
RMXScaler = {
adjustSpace = -10;
weight = -10;
width = 90;
};
};
width = 564;
}
);
note = uni1202;
unicode = 1202;
userData = {
RMXScaler = {
source = "hi-ethiopic";
};
};
},
{
glyphname = "haa-ethiopic";
lastChange = "2019-03-09 00:11:45 +0000";
layers = (
{
components = (
{
name = "ha-ethiopic";
}
);
layerId = "994FE389-9D54-4FAA-B055-C46A67020E78";
paths = (
{
closed = 1;
nodes = (
"499 -181 LINE",
"569 -181 LINE",
"570 46 LINE SMOOTH",
"571 277 OFFCURVE",
"572 497 OFFCURVE",
"572 638 CURVE",
"506 640 LINE"
);
}
);
width = 639;
},
{
components = (
{
name = "ha-ethiopic";
transform = "{1, 0, 0, 1, 20, 0}";
}
);
layerId = "070DF6F6-38EC-45CA-8FD7-ED5C2C5DB7AE";
paths = (
{
closed = 1;
nodes = (
"415 -181 LINE",
"472 -181 LINE",
"472 46 LINE SMOOTH",
"472 122 OFFCURVE",
"473 474 OFFCURVE",
"473 638 CURVE",
"420 640 LINE"
);
}
);
userData = {
RMXScaler = {
adjustSpace = -10;
weight = -10;
width = 90;
};
};
width = 529;
}
);
note = uni1203;
unicode = 1203;
userData = {
RMXScaler = {
source = "haa-ethiopic";
};
};
},
{
glyphname = "hee-ethiopic";
lastChange = "2019-03-09 00:12:03 +0000";
layers = (
{
components = (
{
name = "ha-ethiopic";
},
{
name = _part.new.haa;
transform = "{1, 0, 0, 1, 77, -160}";
}
);
layerId = "994FE389-9D54-4FAA-B055-C46A67020E78";
paths = (
{
closed = 1;
nodes = (
"489 -104 LINE",
"570 -104 LINE",
"570 350 LINE",
"489 149 LINE"
);
}
);
width = 719;
},
{
components = (
{
name = "ha-ethiopic";
transform = "{1, 0, 0, 1, 21, 0}";
},
{
name = _part.new.haa;
transform = "{1, 0, 0, 1, 79, -160}";
}
);
layerId = "070DF6F6-38EC-45CA-8FD7-ED5C2C5DB7AE";
paths = (
{
closed = 1;
nodes = (
"408 -104 LINE",
"472 -104 LINE",
"472 350 LINE",
"408 149 LINE"
);
}
);
userData = {
RMXScaler = {
adjustSpace = -10;
weight = -10;
width = 90;
};
};
width = 633;
}
);
note = uni1204;
unicode = 1204;
userData = {
RMXScaler = {
source = "hee-ethiopic";
};
};
},
{
glyphname = "he-ethiopic";
lastChange = "2019-03-09 00:12:26 +0000";
layers = (
{
components = (
{
name = U;
transform = "{1, 0, 0, 1, 28, 0}";
}
);
layerId = "994FE389-9D54-4FAA-B055-C46A67020E78";
paths = (
{
closed = 1;
nodes = (
"106 529 LINE",
"107 726 LINE",
"20 726 LINE",
"19 528 LINE"
);
}
);
width = 655;
},
{
components = (
{
name = U;
transform = "{1, 0, 0, 1, 33, 0}";
}
);
layerId = "070DF6F6-38EC-45CA-8FD7-ED5C2C5DB7AE";
paths = (
{
closed = 1;
nodes = (
"121 529 LINE",
"122 726 LINE",
"53 726 LINE",
"52 528 LINE"
);
}
);
userData = {
RMXScaler = {
adjustSpace = -10;
weight = -10;
width = 90;
};
};
width = 561;
}
);
note = uni1205;
unicode = 1205;
userData = {
RMXScaler = {
source = "he-ethiopic";
};
};
},
{
glyphname = "hoa-ethiopic";
lastChange = "2019-03-09 00:11:00 +0000";
layers = (
{
components = (
{
name = "ho-ethiopic";
},
{
name = _part.hu;
transform = "{1, 0, 0, 1, -60, 180}";
}
);
layerId = "994FE389-9D54-4FAA-B055-C46A67020E78";
width = 745;
},
{
components = (
{
name = "ho-ethiopic";
transform = "{1, 0, 0, 1, 80, 0}";
}
);
layerId = "070DF6F6-38EC-45CA-8FD7-ED5C2C5DB7AE";
paths = (
{
closed = 1;
nodes = (
"135 409 LINE",
"135 496 LINE",
"45 496 LINE",
"45 409 LINE"
);
}
);
userData = {
RMXScaler = {
adjustSpace = -10;
weight = -10;
width = 90;
};
};
width = 655;
}
);
note = uni1207;
unicode = 1207;
userData = {
RMXScaler = {
source = "hoa-ethiopic";
};
};
},
{
glyphname = "la-ethiopic";
lastChange = "2019-03-09 00:13:05 +0000";
layers = (
{
components = (
{
name = U;
transform = "{1, 0, 0, -1, 4, 643}";
}
);
layerId = "994FE389-9D54-4FAA-B055-C46A67020E78";
paths = (
{
closed = 1;
nodes = (
"159 120 LINE",
"159 803 LINE",
"74 803 LINE",
"74 120 LINE"
);
}
);
width = 641;
},
{
components = (
{
name = U;
transform = "{1, 0, 0, -1, 20, 643}";
}
);
layerId = "070DF6F6-38EC-45CA-8FD7-ED5C2C5DB7AE";
paths = (
{
closed = 1;
nodes = (
"144 120 LINE",
"144 803 LINE",
"76 803 LINE",
"76 120 LINE"
);
}
);
userData = {
RMXScaler = {
adjustSpace = -10;
weight = -10;
width = 90;
};
};
width = 538;
}
);
note = uni1208;
unicode = 1208;
userData = {
RMXScaler = {
source = "la-ethiopic";
};
};
},
{
glyphname = "laa-ethiopic";
lastChange = "2019-03-09 00:14:47 +0000";
layers = (
{
components = (
{
name = "la-ethiopic";
}
);
layerId = "994FE389-9D54-4FAA-B055-C46A67020E78";
paths = (
{
closed = 1;
nodes = (
"576 -180 LINE",
"575 0 LINE",
"488 0 LINE",
"489 -180 LINE"
);
}
);
width = 605;
},
{
components = (
{
name = "la-ethiopic";
transform = "{1, 0, 0, 1, -9, 0}";
}
);
layerId = "070DF6F6-38EC-45CA-8FD7-ED5C2C5DB7AE";
paths = (
{
closed = 1;
nodes = (
"465 -180 LINE",
"464 0 LINE",
"395 0 LINE",
"396 -180 LINE"
);
}
);
userData = {
RMXScaler = {
adjustSpace = -10;
weight = -10;
width = 90;
};
};
width = 511;
}
);
note = uni120B;
unicode = 120B;
userData = {
RMXScaler = {
source = "laa-ethiopic";
};
};
},
{
glyphname = "lee-ethiopic";
lastChange = "2019-03-09 00:14:33 +0000";
layers = (
{
components = (
{
name = "la-ethiopic";
}
);
layerId = "994FE389-9D54-4FAA-B055-C46A67020E78";
paths = (
{
closed = 1;
nodes = (
"485 235 LINE",
"485 -10 LINE",
"494 -10 LINE",
"494 -11 LINE",
"591 -11 LINE SMOOTH",
"637 -11 OFFCURVE",
"668 6 OFFCURVE",
"687 36 CURVE SMOOTH",
"697 52 OFFCURVE",
"702 72 OFFCURVE",
"702 93 CURVE SMOOTH",
"702 121 OFFCURVE",
"694 145 OFFCURVE",
"675 161 CURVE SMOOTH",
"653 179 OFFCURVE",
"628 191 OFFCURVE",
"592 191 CURVE SMOOTH",
"567 191 LINE",
"567 235 LINE"
);
},
{
closed = 1;
nodes = (
"567 167 LINE",
"592 166 OFFCURVE",
"611 160 OFFCURVE",
"623 147 CURVE",
"636 135 OFFCURVE",
"641 114 OFFCURVE",
"641 89 CURVE SMOOTH",
"641 82 OFFCURVE",
"640 75 OFFCURVE",
"638 68 CURVE",
"635 54 OFFCURVE",
"630 45 OFFCURVE",
"624 36 CURVE",
"616 25 OFFCURVE",
"604 18 OFFCURVE",
"589 15 CURVE",
"583 13 OFFCURVE",
"576 12 OFFCURVE",
"567 12 CURVE"
);
}
);
width = 723;
},
{
components = (
{
name = "la-ethiopic";
transform = "{1, 0, 0, 1, -9, 0}";
}
);
layerId = "070DF6F6-38EC-45CA-8FD7-ED5C2C5DB7AE";
paths = (
{
closed = 1;
nodes = (
"399 236 LINE",
"399 -9 LINE",
"406 -9 LINE",
"406 -10 LINE",
"483 -10 LINE SMOOTH",
"521 -10 OFFCURVE",
"547 10 OFFCURVE",
"559 36 CURVE SMOOTH",
"567 53 OFFCURVE",
"571 77 OFFCURVE",
"571 94 CURVE SMOOTH",
"571 119 OFFCURVE",
"565 146 OFFCURVE",
"550 162 CURVE SMOOTH",
"523 190 OFFCURVE",
"501 192 OFFCURVE",
"484 192 CURVE SMOOTH",
"464 192 LINE",
"464 236 LINE"
);
},
{
closed = 1;
nodes = (
"464 168 LINE",
"485 167 OFFCURVE",
"500 162 OFFCURVE",
"508 148 CURVE",
"519 136 OFFCURVE",
"522 112 OFFCURVE",
"522 90 CURVE SMOOTH",
"522 83 OFFCURVE",
"522 76 OFFCURVE",
"521 69 CURVE",
"518 55 OFFCURVE",
"513 45 OFFCURVE",
"509 37 CURVE",
"503 26 OFFCURVE",
"493 18 OFFCURVE",
"482 16 CURVE",
"476 14 OFFCURVE",
"472 13 OFFCURVE",
"464 13 CURVE"
);
}
);
userData = {
RMXScaler = {
adjustSpace = -10;
weight = -10;
width = 90;
};
};
width = 605;
}
);
note = uni120C;
unicode = 120C;
userData = {
RMXScaler = {
source = "lee-ethiopic";
};
};
},
{
glyphname = "le-ethiopic";
lastChange = "2019-03-09 00:15:11 +0000";
layers = (
{
components = (
{
name = "la-ethiopic";
}
);
layerId = "994FE389-9D54-4FAA-B055-C46A67020E78";
paths = (
{
closed = 1;
nodes = (
"78 235 LINE",
"78 -10 LINE",
"87 -10 LINE",
"87 -11 LINE",
"184 -11 LINE SMOOTH",
"230 -11 OFFCURVE",
"261 6 OFFCURVE",
"280 36 CURVE SMOOTH",
"290 52 OFFCURVE",
"295 72 OFFCURVE",
"295 93 CURVE SMOOTH",
"295 121 OFFCURVE",
"287 145 OFFCURVE",
"268 161 CURVE SMOOTH",
"246 179 OFFCURVE",
"221 191 OFFCURVE",
"185 191 CURVE SMOOTH",
"160 191 LINE",
"160 235 LINE"
);
},
{
closed = 1;
nodes = (
"160 167 LINE",
"185 166 OFFCURVE",
"204 160 OFFCURVE",
"216 147 CURVE",
"229 135 OFFCURVE",
"234 114 OFFCURVE",
"234 89 CURVE SMOOTH",
"234 82 OFFCURVE",
"233 75 OFFCURVE",
"231 68 CURVE",
"228 54 OFFCURVE",
"223 45 OFFCURVE",
"217 36 CURVE",
"209 25 OFFCURVE",
"197 18 OFFCURVE",
"182 15 CURVE",
"176 13 OFFCURVE",
"169 12 OFFCURVE",
"160 12 CURVE"
);
}
);
width = 641;
},
{
components = (
{
name = "la-ethiopic";
transform = "{1, 0, 0, 1, -9, 0}";
}
);
layerId = "070DF6F6-38EC-45CA-8FD7-ED5C2C5DB7AE";
paths = (
{
closed = 1;
nodes = (
"70 238 LINE",
"70 -7 LINE",
"77 -7 LINE",
"77 -8 LINE",
"154 -8 LINE SMOOTH",
"192 -8 OFFCURVE",
"218 12 OFFCURVE",
"230 38 CURVE SMOOTH",
"238 55 OFFCURVE",
"242 79 OFFCURVE",
"242 96 CURVE SMOOTH",
"242 121 OFFCURVE",
"236 148 OFFCURVE",
"221 164 CURVE SMOOTH",
"194 192 OFFCURVE",
"172 194 OFFCURVE",
"155 194 CURVE SMOOTH",
"135 194 LINE",
"135 238 LINE"
);
},
{
closed = 1;
nodes = (
"138 170 LINE",
"157 169 OFFCURVE",
"172 163 OFFCURVE",
"182 150 CURVE",
"193 138 OFFCURVE",
"196 114 OFFCURVE",
"196 92 CURVE SMOOTH",
"196 85 OFFCURVE",
"196 78 OFFCURVE",
"195 71 CURVE",
"192 57 OFFCURVE",
"188 48 OFFCURVE",
"183 39 CURVE",
"177 28 OFFCURVE",
"166 21 OFFCURVE",
"156 18 CURVE",
"150 16 OFFCURVE",
"147 15 OFFCURVE",
"138 15 CURVE"
);
}
);
userData = {
RMXScaler = {
adjustSpace = -10;
weight = -10;
width = 90;
};
};
width = 528;
}
);
note = uni120D;
unicode = 120D;
userData = {
RMXScaler = {
source = "le-ethiopic";
};
};
},
{
glyphname = "lo-ethiopic";
lastChange = "2019-03-09 00:15:29 +0000";
layers = (
{
components = (
{
name = "la-ethiopic";
}
);
layerId = "994FE389-9D54-4FAA-B055-C46A67020E78";
paths = (
{
closed = 1;
nodes = (
"500 430 LINE",
"500 185 LINE",
"489 185 LINE",
"489 184 LINE",
"586 184 LINE SMOOTH",
"632 184 OFFCURVE",
"663 201 OFFCURVE",
"682 231 CURVE SMOOTH",
"692 247 OFFCURVE",
"697 267 OFFCURVE",
"697 288 CURVE SMOOTH",
"697 316 OFFCURVE",
"689 340 OFFCURVE",
"670 356 CURVE SMOOTH",
"648 374 OFFCURVE",
"623 386 OFFCURVE",
"587 386 CURVE SMOOTH",
"562 386 LINE",
"562 399 LINE"
);
},
{
closed = 1;
nodes = (
"562 362 LINE",
"587 361 OFFCURVE",
"606 355 OFFCURVE",
"618 342 CURVE",
"631 330 OFFCURVE",
"636 309 OFFCURVE",
"636 284 CURVE SMOOTH",
"636 277 OFFCURVE",
"635 270 OFFCURVE",
"633 263 CURVE",
"630 249 OFFCURVE",
"625 240 OFFCURVE",
"619 231 CURVE",
"611 220 OFFCURVE",
"599 213 OFFCURVE",
"584 210 CURVE",
"578 208 OFFCURVE",
"571 207 OFFCURVE",
"562 207 CURVE"
);
}
);
width = 719;
},
{
components = (
{
name = "la-ethiopic";
transform = "{1, 0, 0, 1, -9, 0}";
}
);
layerId = "070DF6F6-38EC-45CA-8FD7-ED5C2C5DB7AE";
paths = (
{
closed = 1;
nodes = (
"401 430 LINE",
"401 185 LINE",
"392 185 LINE",
"392 184 LINE",
"469 184 LINE SMOOTH",
"504 184 OFFCURVE",
"530 201 OFFCURVE",
"545 230 CURVE SMOOTH",
"554 247 OFFCURVE",
"557 271 OFFCURVE",
"557 288 CURVE SMOOTH",
"557 315 OFFCURVE",
"550 341 OFFCURVE",
"536 356 CURVE SMOOTH",
"519 375 OFFCURVE",
"498 386 OFFCURVE",
"469 386 CURVE SMOOTH",
"450 386 LINE",
"450 399 LINE"
);
},
{
closed = 1;
nodes = (
"450 362 LINE",
"469 361 OFFCURVE",
"484 355 OFFCURVE",
"494 342 CURVE",
"505 330 OFFCURVE",
"508 305 OFFCURVE",
"508 284 CURVE SMOOTH",
"508 275 OFFCURVE",
"507 268 OFFCURVE",
"507 263 CURVE",
"504 249 OFFCURVE",
"498 238 OFFCURVE",
"495 231 CURVE",
"489 220 OFFCURVE",
"479 212 OFFCURVE",
"468 210 CURVE",
"462 208 OFFCURVE",
"456 207 OFFCURVE",
"450 207 CURVE"
);
}
);
userData = {
RMXScaler = {
adjustSpace = -10;
weight = -10;
width = 90;
};
};
width = 581;
}
);
note = uni120E;
unicode = 120E;
userData = {
RMXScaler = {
source = "lo-ethiopic";
};
};
},
{
glyphname = "lwa-ethiopic";
lastChange = "2019-03-09 00:11:00 +0000";
layers = (
{
components = (
{
name = "laa-ethiopic";
}
);
layerId = "994FE389-9D54-4FAA-B055-C46A67020E78";
paths = (
{
closed = 1;
nodes = (
"415 -180 LINE",
"652 -180 LINE",
"652 -139 LINE",
"415 -139 LINE"
);
}
);
width = 674;
},
{
components = (
{
name = "laa-ethiopic";
transform = "{1, 0, 0, 1, 19, 0}";
}
);
layerId = "070DF6F6-38EC-45CA-8FD7-ED5C2C5DB7AE";
paths = (
{
closed = 1;
nodes = (
"309 -180 LINE",
"497 -180 LINE",
"497 -139 LINE",
"309 -139 LINE"
);
}
);
userData = {
RMXScaler = {
adjustSpace = -10;
weight = -10;
width = 90;
};
};
width = 544;
}
);
note = uni120F;
unicode = 120F;
userData = {
RMXScaler = {
source = "lwa-ethiopic";
};
};
},
{
glyphname = "hha-ethiopic";
lastChange = "2019-03-09 00:11:00 +0000";
layers = (
{
layerId = "994FE389-9D54-4FAA-B055-C46A67020E78";
paths = (
{
closed = 1;
nodes = (
"160 0 LINE",
"160 424 LINE SMOOTH",
"160 459 OFFCURVE",
"163 486 OFFCURVE",
"172 502 CURVE SMOOTH",
"186 526 OFFCURVE",
"211 539 OFFCURVE",
"248 539 CURVE SMOOTH",
"281 539 OFFCURVE",
"311 527 OFFCURVE",
"339 500 CURVE SMOOTH",
"366 474 OFFCURVE",
"380 427 OFFCURVE",
"380 359 CURVE SMOOTH",
"380 0 LINE",
"469 0 LINE",
"469 359 LINE SMOOTH",
"469 427 OFFCURVE",
"483 474 OFFCURVE",
"510 500 CURVE SMOOTH",
"538 527 OFFCURVE",
"568 539 OFFCURVE",
"601 539 CURVE SMOOTH",
"638 539 OFFCURVE",
"663 526 OFFCURVE",
"677 502 CURVE SMOOTH",
"686 486 OFFCURVE",
"690 459 OFFCURVE",
"690 424 CURVE SMOOTH",
"690 0 LINE",
"780 0 LINE",
"780 470 LINE",
"776 536 OFFCURVE",
"766 555 OFFCURVE",
"726 587 CURVE SMOOTH",
"700 608 OFFCURVE",
"666 618 OFFCURVE",
"624 618 CURVE SMOOTH",
"588 618 OFFCURVE",
"554 608 OFFCURVE",
"525 588 CURVE SMOOTH",
"508 576 OFFCURVE",
"490 559 OFFCURVE",
"469 533 CURVE",
"469 808 LINE",
"380 808 LINE",
"380 533 LINE",
"360 559 OFFCURVE",
"341 576 OFFCURVE",
"324 588 CURVE SMOOTH",
"295 608 OFFCURVE",
"261 618 OFFCURVE",
"225 618 CURVE SMOOTH",
"180 618 OFFCURVE",
"146 606 OFFCURVE",
"123 587 CURVE SMOOTH",
"83 554 OFFCURVE",
"70 524 OFFCURVE",
"70 474 CURVE SMOOTH",
"70 0 LINE"
);
}
);
width = 850;
},
{
layerId = "070DF6F6-38EC-45CA-8FD7-ED5C2C5DB7AE";
paths = (
{
closed = 1;
nodes = (
"126 0 LINE",
"126 424 LINE SMOOTH",
"126 443 OFFCURVE",
"126 479 OFFCURVE",
"136 502 CURVE SMOOTH",
"145 523 OFFCURVE",
"164 539 OFFCURVE",
"196 539 CURVE SMOOTH",
"223 539 OFFCURVE",
"246 527 OFFCURVE",
"269 499 CURVE SMOOTH",
"289 474 OFFCURVE",
"301 431 OFFCURVE",
"301 359 CURVE SMOOTH",
"301 0 LINE",
"371 0 LINE",
"371 359 LINE SMOOTH",
"371 429 OFFCURVE",
"383 474 OFFCURVE",
"403 499 CURVE SMOOTH",
"426 527 OFFCURVE",
"450 539 OFFCURVE",
"476 539 CURVE SMOOTH",
"502 539 OFFCURVE",
"525 528 OFFCURVE",
"536 503 CURVE SMOOTH",
"544 484 OFFCURVE",
"546 454 OFFCURVE",
"546 424 CURVE SMOOTH",
"546 0 LINE",
"618 0 LINE",
"618 470 LINE",
"614 544 OFFCURVE",
"606 555 OFFCURVE",
"575 587 CURVE SMOOTH",
"554 608 OFFCURVE",
"528 618 OFFCURVE",
"495 618 CURVE SMOOTH",
"468 618 OFFCURVE",
"440 608 OFFCURVE",
"415 589 CURVE SMOOTH",
"408 583 OFFCURVE",
"388 558 OFFCURVE",
"371 533 CURVE",
"371 808 LINE",
"301 808 LINE",
"301 533 LINE",
"285 559 OFFCURVE",
"265 582 OFFCURVE",
"257 588 CURVE SMOOTH",
"238 602 OFFCURVE",
"210 618 OFFCURVE",
"178 618 CURVE SMOOTH",
"144 618 OFFCURVE",
"114 606 OFFCURVE",
"97 587 CURVE SMOOTH",
"58 544 OFFCURVE",
"55 511 OFFCURVE",
"55 474 CURVE SMOOTH",
"55 0 LINE"
);
}
);
userData = {
RMXScaler = {
adjustSpace = -10;
weight = -10;
width = 90;
};
};
width = 673;
}
);
note = uni1210;
unicode = 1210;
userData = {
RMXScaler = {
source = "hha-ethiopic";
};
};
},
{
glyphname = "hhaa-ethiopic";
lastChange = "2019-03-09 00:15:57 +0000";
layers = (
{
components = (
{
name = "hha-ethiopic";
}
);
layerId = "994FE389-9D54-4FAA-B055-C46A67020E78";
paths = (
{
closed = 1;
nodes = (
"780 -180 LINE",
"780 0 LINE",
"690 0 LINE",
"690 -180 LINE"
);
}
);
width = 850;
},
{
components = (
{
name = "hha-ethiopic";
transform = "{1, 0, 0, 1, 21, 0}";
}
);
layerId = "070DF6F6-38EC-45CA-8FD7-ED5C2C5DB7AE";
paths = (
{
closed = 1;
nodes = (
"639 -180 LINE",
"639 0 LINE",
"568 0 LINE",
"568 -180 LINE"
);
}
);
userData = {
RMXScaler = {
adjustSpace = -10;
weight = -10;
width = 90;
};
};
width = 702;
}
);
note = uni1213;
unicode = 1213;
userData = {
RMXScaler = {
source = "hhaa-ethiopic";
};
};
},
{
glyphname = "hhe-ethiopic";
lastChange = "2019-03-09 00:11:00 +0000";
layers = (
{
layerId = "994FE389-9D54-4FAA-B055-C46A67020E78";
paths = (
{
closed = 1;
nodes = (
"201 720 LINE",
"299 720 LINE",
"299 800 LINE",
"201 800 LINE"
);
},
{
closed = 1;
nodes = (
"202 720 LINE",
"460 720 LINE",
"460 749 LINE",
"202 749 LINE"
);
},
{
closed = 1;
nodes = (
"160 0 LINE",
"160 444 LINE SMOOTH",
"160 479 OFFCURVE",
"163 506 OFFCURVE",
"172 522 CURVE SMOOTH",
"186 546 OFFCURVE",
"211 559 OFFCURVE",
"248 559 CURVE SMOOTH",
"281 559 OFFCURVE",
"311 547 OFFCURVE",
"339 520 CURVE SMOOTH",
"366 494 OFFCURVE",
"380 447 OFFCURVE",
"380 379 CURVE SMOOTH",
"380 0 LINE",
"469 0 LINE",
"469 379 LINE SMOOTH",
"469 447 OFFCURVE",
"483 494 OFFCURVE",
"510 520 CURVE SMOOTH",
"538 547 OFFCURVE",
"568 559 OFFCURVE",
"601 559 CURVE SMOOTH",
"638 559 OFFCURVE",
"663 546 OFFCURVE",
"677 522 CURVE SMOOTH",
"686 506 OFFCURVE",
"690 479 OFFCURVE",
"690 444 CURVE SMOOTH",
"690 0 LINE",
"780 0 LINE",
"780 490 LINE",
"776 556 OFFCURVE",
"766 575 OFFCURVE",
"726 607 CURVE SMOOTH",
"700 628 OFFCURVE",
"666 638 OFFCURVE",
"624 638 CURVE SMOOTH",
"588 638 OFFCURVE",
"554 628 OFFCURVE",
"525 608 CURVE SMOOTH",
"508 596 OFFCURVE",
"490 579 OFFCURVE",
"469 553 CURVE",
"469 749 LINE",
"380 749 LINE",
"380 553 LINE",
"360 579 OFFCURVE",
"341 596 OFFCURVE",
"324 608 CURVE SMOOTH",
"295 628 OFFCURVE",
"261 638 OFFCURVE",
"225 638 CURVE SMOOTH",
"180 638 OFFCURVE",
"146 626 OFFCURVE",
"123 607 CURVE SMOOTH",
"83 574 OFFCURVE",
"70 544 OFFCURVE",
"70 494 CURVE SMOOTH",
"70 0 LINE"
);
}
);
width = 850;
},
{
layerId = "070DF6F6-38EC-45CA-8FD7-ED5C2C5DB7AE";
paths = (
{
closed = 1;
nodes = (
"159 720 LINE",
"236 720 LINE",
"236 800 LINE",
"159 800 LINE"
);
},
{
closed = 1;
nodes = (
"160 720 LINE",
"364 720 LINE",
"364 749 LINE",
"160 749 LINE"
);
},
{
closed = 1;
nodes = (
"126 0 LINE",
"126 444 LINE SMOOTH",
"126 463 OFFCURVE",
"126 499 OFFCURVE",
"136 522 CURVE SMOOTH",
"145 543 OFFCURVE",
"164 559 OFFCURVE",
"196 559 CURVE SMOOTH",
"223 559 OFFCURVE",
"246 547 OFFCURVE",
"269 519 CURVE SMOOTH",
"289 494 OFFCURVE",
"301 451 OFFCURVE",
"301 379 CURVE SMOOTH",
"301 0 LINE",
"371 0 LINE",
"371 379 LINE SMOOTH",
"371 451 OFFCURVE",
"383 494 OFFCURVE",
"403 519 CURVE SMOOTH",
"426 547 OFFCURVE",
"449 559 OFFCURVE",
"476 559 CURVE SMOOTH",
"502 559 OFFCURVE",
"525 548 OFFCURVE",
"536 523 CURVE SMOOTH",
"544 504 OFFCURVE",
"546 474 OFFCURVE",
"546 444 CURVE SMOOTH",
"546 0 LINE",
"618 0 LINE",
"618 490 LINE",
"614 564 OFFCURVE",
"606 575 OFFCURVE",
"575 607 CURVE SMOOTH",
"554 628 OFFCURVE",
"528 638 OFFCURVE",
"495 638 CURVE SMOOTH",
"468 638 OFFCURVE",
"440 628 OFFCURVE",
"415 609 CURVE SMOOTH",
"408 603 OFFCURVE",
"388 578 OFFCURVE",
"371 553 CURVE",
"371 749 LINE",
"301 749 LINE",
"301 553 LINE",
"285 579 OFFCURVE",
"265 602 OFFCURVE",
"257 608 CURVE SMOOTH",
"238 622 OFFCURVE",
"210 638 OFFCURVE",
"178 638 CURVE SMOOTH",
"144 638 OFFCURVE",
"114 626 OFFCURVE",
"97 607 CURVE SMOOTH",
"58 564 OFFCURVE",
"55 531 OFFCURVE",
"55 494 CURVE SMOOTH",
"55 0 LINE"
);
}
);
userData = {
RMXScaler = {
adjustSpace = -10;
weight = -10;
width = 90;
};
};
width = 673;
}
);
note = uni1215;
unicode = 1215;
userData = {
RMXScaler = {
source = "hhe-ethiopic";
};
};
},
{
glyphname = "hhwa-ethiopic";
lastChange = "2019-03-09 00:11:00 +0000";
layers = (
{
components = (
{
name = "hhaa-ethiopic";
}
);
layerId = "994FE389-9D54-4FAA-B055-C46A67020E78";
paths = (
{
closed = 1;
nodes = (
"609 -180 LINE",
"820 -180 LINE",
"820 -132 LINE",
"609 -132 LINE"
);
}
);
width = 850;
},
{
components = (
{
name = "hhaa-ethiopic";
transform = "{1, 0, 0, 1, 19, 0}";
}
);
layerId = "070DF6F6-38EC-45CA-8FD7-ED5C2C5DB7AE";
paths = (
{
closed = 1;
nodes = (
"502 -180 LINE",
"669 -180 LINE",
"669 -132 LINE",
"502 -132 LINE"
);
}
);
userData = {
RMXScaler = {
adjustSpace = -10;
weight = -10;
width = 90;
};
};
width = 712;
}
);
note = uni1217;
unicode = 1217;
userData = {
RMXScaler = {
source = "hhwa-ethiopic";
};
};
},
{
glyphname = "ma-ethiopic";
lastChange = "2019-03-09 00:11:00 +0000";
layers = (
{
anchors = (
{
name = connect;
position = "{829, 0}";
}
);
layerId = "994FE389-9D54-4FAA-B055-C46A67020E78";
paths = (
{
closed = 1;
nodes = (
"101 682 LINE SMOOTH",
"72 682 OFFCURVE",
"50 660 OFFCURVE",
"50 631 CURVE SMOOTH",
"50 210 LINE SMOOTH",
"50 156 OFFCURVE",
"56 112 OFFCURVE",
"76 77 CURVE SMOOTH",
"111 16 OFFCURVE",
"171 -8 OFFCURVE",
"254 -8 CURVE SMOOTH",
"304 -8 OFFCURVE",
"346 5 OFFCURVE",
"382 33 CURVE SMOOTH",
"417 61 OFFCURVE",
"436 109 OFFCURVE",
"436 179 CURVE SMOOTH",
"436 582 LINE SMOOTH",
"436 597 OFFCURVE",
"448 609 OFFCURVE",
"463 609 CURVE SMOOTH",
"473 609 LINE SMOOTH",
"488 609 OFFCURVE",
"500 597 OFFCURVE",
"500 582 CURVE SMOOTH",
"500 179 LINE SMOOTH",
"500 109 OFFCURVE",
"519 61 OFFCURVE",
"554 33 CURVE SMOOTH",
"590 5 OFFCURVE",
"632 -8 OFFCURVE",
"682 -8 CURVE SMOOTH",
"765 -8 OFFCURVE",
"825 16 OFFCURVE",
"860 77 CURVE SMOOTH",
"880 112 OFFCURVE",
"886 156 OFFCURVE",
"886 210 CURVE SMOOTH",
"886 631 LINE SMOOTH",
"886 660 OFFCURVE",
"864 682 OFFCURVE",
"835 682 CURVE SMOOTH"
);
},
{
closed = 1;
nodes = (
"350 142 OFFCURVE",
"343 115 OFFCURVE",
"326 96 CURVE SMOOTH",
"309 77 OFFCURVE",
"284 67 OFFCURVE",
"249 67 CURVE SMOOTH",
"201 67 OFFCURVE",
"168 84 OFFCURVE",
"154 118 CURVE SMOOTH",
"146 137 OFFCURVE",
"140 177 OFFCURVE",
"140 234 CURVE SMOOTH",
"140 582 LINE SMOOTH",
"140 597 OFFCURVE",
"152 609 OFFCURVE",
"167 609 CURVE SMOOTH",
"323 609 LINE SMOOTH",
"338 609 OFFCURVE",
"350 597 OFFCURVE",
"350 582 CURVE SMOOTH",
"350 179 LINE SMOOTH"
);
},
{
closed = 1;
nodes = (
"768 84 OFFCURVE",
"735 67 OFFCURVE",
"687 67 CURVE SMOOTH",
"652 67 OFFCURVE",
"627 77 OFFCURVE",
"610 96 CURVE SMOOTH",
"593 115 OFFCURVE",
"586 142 OFFCURVE",
"586 179 CURVE SMOOTH",
"586 582 LINE SMOOTH",
"586 597 OFFCURVE",
"598 609 OFFCURVE",
"613 609 CURVE SMOOTH",
"769 609 LINE SMOOTH",
"784 609 OFFCURVE",
"796 597 OFFCURVE",
"796 582 CURVE SMOOTH",
"796 234 LINE SMOOTH",
"796 177 OFFCURVE",
"790 137 OFFCURVE",
"782 118 CURVE SMOOTH"
);
}
);
width = 936;
},
{
anchors = (
{
name = connect;
position = "{672, 0}";
}
);
layerId = "070DF6F6-38EC-45CA-8FD7-ED5C2C5DB7AE";
paths = (
{
closed = 1;
nodes = (
"96 682 LINE SMOOTH",
"73 682 OFFCURVE",
"55 660 OFFCURVE",
"55 631 CURVE SMOOTH",
"55 210 LINE SMOOTH",
"55 163 OFFCURVE",
"59 112 OFFCURVE",
"76 75 CURVE SMOOTH",
"104 14 OFFCURVE",
"155 -8 OFFCURVE",
"217 -8 CURVE SMOOTH",
"257 -8 OFFCURVE",
"292 7 OFFCURVE",
"318 33 CURVE SMOOTH",
"353 69 OFFCURVE",
"361 138 OFFCURVE",
"361 179 CURVE SMOOTH",
"361 582 LINE SMOOTH",
"361 597 OFFCURVE",
"372 609 OFFCURVE",
"383 609 CURVE SMOOTH",
"391 609 LINE SMOOTH",
"402 609 OFFCURVE",
"412 597 OFFCURVE",
"412 582 CURVE SMOOTH",
"412 179 LINE SMOOTH",
"412 110 OFFCURVE",
"425 62 OFFCURVE",
"456 31 CURVE SMOOTH",
"483 5 OFFCURVE",
"517 -8 OFFCURVE",
"556 -8 CURVE SMOOTH",
"624 -8 OFFCURVE",
"670 18 OFFCURVE",
"697 77 CURVE SMOOTH",
"713 112 OFFCURVE",
"717 156 OFFCURVE",
"717 210 CURVE SMOOTH",
"717 631 LINE SMOOTH",
"717 660 OFFCURVE",
"699 682 OFFCURVE",
"678 682 CURVE SMOOTH"
);
},
{
closed = 1;
nodes = (
"293 146 OFFCURVE",
"288 115 OFFCURVE",
"273 94 CURVE SMOOTH",
"260 76 OFFCURVE",
"237 67 OFFCURVE",
"213 67 CURVE SMOOTH",
"173 67 OFFCURVE",
"148 86 OFFCURVE",
"138 116 CURVE SMOOTH",
"131 137 OFFCURVE",
"126 178 OFFCURVE",
"126 234 CURVE SMOOTH",
"126 582 LINE SMOOTH",
"126 596 OFFCURVE",
"136 609 OFFCURVE",
"147 609 CURVE SMOOTH",
"272 609 LINE SMOOTH",
"283 609 OFFCURVE",
"293 597 OFFCURVE",
"293 582 CURVE SMOOTH",
"293 179 LINE SMOOTH"
);
},
{
closed = 1;
nodes = (
"624 84 OFFCURVE",
"600 67 OFFCURVE",
"560 67 CURVE SMOOTH",
"532 67 OFFCURVE",
"512 77 OFFCURVE",
"499 96 CURVE SMOOTH",
"486 115 OFFCURVE",
"479 141 OFFCURVE",
"479 179 CURVE SMOOTH",
"479 582 LINE SMOOTH",
"479 597 OFFCURVE",
"491 609 OFFCURVE",
"502 609 CURVE SMOOTH",
"625 609 LINE SMOOTH",
"636 609 OFFCURVE",
"646 597 OFFCURVE",
"646 582 CURVE SMOOTH",
"646 234 LINE SMOOTH",
"646 174 OFFCURVE",
"641 136 OFFCURVE",
"636 121 CURVE SMOOTH"
);
}
);
userData = {
RMXScaler = {
adjustSpace = -10;
weight = -10;
width = 90;
};
};
width = 772;
}
);
note = uni1218;
unicode = 1218;
userData = {
RMXScaler = {
source = "ma-ethiopic";
};
};
},
{
glyphname = "mi-ethiopic";
lastChange = "2019-03-09 00:16:45 +0000";
layers = (
{
components = (
{
name = "ma-ethiopic";
},
{
name = _part.hu;
transform = "{1, 0, 0, 1, 770, -410}";
}
);
layerId = "994FE389-9D54-4FAA-B055-C46A67020E78";
paths = (
{
closed = 1;
nodes = (
"886 -181 LINE",
"886 346 LINE",
"808 346 LINE",
"808 -181 LINE"
);
}
);
width = 965;
},
{
components = (
{
name = "ma-ethiopic";
transform = "{1, 0, 0, 1, 12, 0}";
},
{
name = _part.hu;
transform = "{1, 0, 0, 1, 662, -410}";
}
);
layerId = "070DF6F6-38EC-45CA-8FD7-ED5C2C5DB7AE";
paths = (
{
closed = 1;
nodes = (
"729 -181 LINE",
"729 346 LINE",
"667 346 LINE",
"667 -181 LINE"
);
}
);
userData = {
RMXScaler = {
adjustSpace = -10;
weight = -10;
width = 90;
};
};
width = 834;
}
);
note = uni121A;
unicode = 121A;
userData = {
RMXScaler = {
source = "mi-ethiopic";
};
};
},
{
glyphname = "maa-ethiopic";
lastChange = "2019-03-09 00:17:02 +0000";
layers = (
{
components = (
{
name = "ma-ethiopic";
}
);
layerId = "994FE389-9D54-4FAA-B055-C46A67020E78";
paths = (
{
closed = 1;
nodes = (
"885 -181 LINE",
"885 346 LINE",
"807 346 LINE",
"807 -181 LINE"
);
}
);
width = 983;
},
{
components = (
{
name = "ma-ethiopic";
transform = "{1, 0, 0, 1, 10, 0}";
}
);
layerId = "070DF6F6-38EC-45CA-8FD7-ED5C2C5DB7AE";
paths = (
{
closed = 1;
nodes = (
"725 -181 LINE",
"725 346 LINE",
"663 346 LINE",
"663 -181 LINE"
);
}
);
userData = {
RMXScaler = {
adjustSpace = -10;
weight = -10;
width = 90;
};
};
width = 773;
}
);
note = uni121B;
unicode = 121B;
userData = {
RMXScaler = {
source = "maa-ethiopic";
};
};
},
{
glyphname = "mee-ethiopic";
lastChange = "2019-03-09 00:17:17 +0000";
layers = (
{
components = (
{
name = "maa-ethiopic";
},
{
name = _part.new.haa;
transform = "{1, 0, 0, 1, 393, -170}";
}
);
layerId = "994FE389-9D54-4FAA-B055-C46A67020E78";
width = 1033;
},
{
components = (
{
name = "maa-ethiopic";
}
);
layerId = "070DF6F6-38EC-45CA-8FD7-ED5C2C5DB7AE";
paths = (
{
closed = 1;
nodes = (
"661 65 LINE",
"661 -180 LINE",
"668 -180 LINE",
"668 -181 LINE",
"745 -181 LINE SMOOTH",
"783 -181 OFFCURVE",
"809 -161 OFFCURVE",
"821 -135 CURVE SMOOTH",
"829 -118 OFFCURVE",
"833 -94 OFFCURVE",
"833 -77 CURVE SMOOTH",
"833 -52 OFFCURVE",
"827 -25 OFFCURVE",
"812 -9 CURVE SMOOTH",
"785 19 OFFCURVE",
"763 21 OFFCURVE",
"746 21 CURVE SMOOTH",
"726 21 LINE",
"726 65 LINE"
);
},
{
closed = 1;
nodes = (
"726 -3 LINE",
"745 -4 OFFCURVE",
"760 -10 OFFCURVE",
"770 -23 CURVE",
"781 -35 OFFCURVE",
"784 -59 OFFCURVE",
"784 -81 CURVE SMOOTH",
"784 -83 OFFCURVE",
"784 -93 OFFCURVE",
"783 -102 CURVE",
"780 -116 OFFCURVE",
"775 -126 OFFCURVE",
"771 -134 CURVE",
"765 -145 OFFCURVE",
"756 -154 OFFCURVE",
"744 -155 CURVE",
"739 -157 OFFCURVE",
"734 -158 OFFCURVE",
"726 -158 CURVE"
);
}
);
userData = {
RMXScaler = {
adjustSpace = -10;
weight = -10;
width = 90;
};
};
width = 877;
}
);
note = uni121C;
unicode = 121C;
userData = {
RMXScaler = {
source = "mee-ethiopic";
};
};
},
{
glyphname = "me-ethiopic";
lastChange = "2019-03-09 00:17:27 +0000";
layers = (
{
anchors = (
{
name = connect;
position = "{476, -182}";
}
);
components = (
{
name = "ma-ethiopic";
}
);
layerId = "994FE389-9D54-4FAA-B055-C46A67020E78";
paths = (
{
closed = 1;
nodes = (
"319 -182 LINE",
"319 -170 OFFCURVE",
"317 -152 OFFCURVE",
"325 -145 CURVE",
"414 -91 OFFCURVE",
"427 -91 OFFCURVE",
"428 0 CURVE SMOOTH",
"432 325 LINE",
"334 0 LINE",
"334 -82 OFFCURVE",
"332 -79 OFFCURVE",
"234 -145 CURVE SMOOTH",
"228 -149 OFFCURVE",
"230 -170 OFFCURVE",
"230 -182 CURVE"
);
}
);
width = 983;
},
{
anchors = (
{
name = connect;
position = "{393, -182}";
}
);
components = (
{
name = "ma-ethiopic";
transform = "{1, 0, 0, 1, 16, 0}";
}
);
layerId = "070DF6F6-38EC-45CA-8FD7-ED5C2C5DB7AE";
paths = (
{
closed = 1;
nodes = (
"269 -182 LINE",
"269 -172 OFFCURVE",
"268 -152 OFFCURVE",
"275 -145 CURVE",
"345 -91 OFFCURVE",
"355 -90 OFFCURVE",
"356 0 CURVE SMOOTH",
"359 325 LINE",
"282 0 LINE",
"282 -80 OFFCURVE",
"279 -78 OFFCURVE",
"204 -143 CURVE SMOOTH",
"197 -149 OFFCURVE",
"199 -160 OFFCURVE",
"199 -182 CURVE"
);
}
);
userData = {
RMXScaler = {
adjustSpace = -10;
weight = -10;
width = 90;
};
};
width = 799;
}
);
note = uni121D;
unicode = 121D;
userData = {
RMXScaler = {
source = "me-ethiopic";
};
};
},
{
glyphname = "mo-ethiopic";
lastChange = "2019-03-09 00:17:41 +0000";
layers = (
{
components = (
{
name = "ma-ethiopic";
}
);
layerId = "994FE389-9D54-4FAA-B055-C46A67020E78";
paths = (
{
closed = 1;
nodes = (
"435 -182 LINE",
"435 345 LINE",
"357 345 LINE",
"357 -182 LINE"
);
}
);
width = 983;
},
{
components = (
{
name = "ma-ethiopic";
transform = "{1, 0, 0, 1, 11, 0}";
}
);
layerId = "070DF6F6-38EC-45CA-8FD7-ED5C2C5DB7AE";
paths = (
{
closed = 1;
nodes = (
"371 -182 LINE",
"371 345 LINE",
"309 345 LINE",
"309 -182 LINE"
);
}
);
userData = {
RMXScaler = {
adjustSpace = -10;
weight = -10;
width = 90;
};
};
width = 795;
}
);
note = uni121E;
unicode = 121E;
userData = {
RMXScaler = {
source = "mo-ethiopic";
};
};
},
{
glyphname = "mwa-ethiopic";
lastChange = "2019-03-09 00:17:59 +0000";
layers = (
{
components = (
{
name = "maa-ethiopic";
}
);
layerId = "994FE389-9D54-4FAA-B055-C46A67020E78";
paths = (
{
closed = 1;
nodes = (
"691 -182 LINE",
"903 -182 LINE",
"903 -139 LINE",
"691 -139 LINE"
);
}
);
width = 913;
},
{
components = (
{
name = "maa-ethiopic";
transform = "{1, 0, 0, 1, -3, 0}";
}
);
layerId = "070DF6F6-38EC-45CA-8FD7-ED5C2C5DB7AE";
paths = (
{
closed = 1;
nodes = (
"545 -182 LINE",
"713 -182 LINE",
"713 -139 LINE",
"545 -139 LINE"
);
}
);
userData = {
RMXScaler = {
adjustSpace = -10;
weight = -10;
width = 90;
};
};
width = 785;
}
);
note = uni121F;
unicode = 121F;
userData = {
RMXScaler = {
source = "mwa-ethiopic";
};
};
},
{
glyphname = "sza-ethiopic";
lastChange = "2019-03-09 00:11:00 +0000";
layers = (
{
anchors = (
{
name = connect;
position = "{825, -2}";
}
);
layerId = "994FE389-9D54-4FAA-B055-C46A67020E78";
paths = (
{
closed = 1;
nodes = (
"646 234 LINE SMOOTH",
"646 177 OFFCURVE",
"640 137 OFFCURVE",
"632 118 CURVE SMOOTH",
"618 84 OFFCURVE",
"585 67 OFFCURVE",
"537 67 CURVE SMOOTH",
"502 67 OFFCURVE",
"477 77 OFFCURVE",
"460 96 CURVE SMOOTH",
"443 115 OFFCURVE",
"436 142 OFFCURVE",
"436 179 CURVE SMOOTH",
"436 682 LINE",
"350 682 LINE",
"350 179 LINE SMOOTH",
"350 142 OFFCURVE",
"343 115 OFFCURVE",
"326 96 CURVE SMOOTH",
"309 77 OFFCURVE",
"284 67 OFFCURVE",
"249 67 CURVE SMOOTH",
"201 67 OFFCURVE",
"168 84 OFFCURVE",
"154 118 CURVE SMOOTH",
"146 137 OFFCURVE",
"140 177 OFFCURVE",
"140 234 CURVE SMOOTH",
"140 682 LINE",
"50 682 LINE",
"50 210 LINE SMOOTH",
"50 156 OFFCURVE",
"56 112 OFFCURVE",
"76 77 CURVE SMOOTH",
"111 16 OFFCURVE",
"171 -8 OFFCURVE",
"254 -8 CURVE SMOOTH",
"304 -8 OFFCURVE",
"346 5 OFFCURVE",
"382 33 CURVE SMOOTH",
"386 36 OFFCURVE",
"390 39 OFFCURVE",
"393 43 CURVE",
"396 39 OFFCURVE",
"400 36 OFFCURVE",
"404 33 CURVE SMOOTH",
"440 5 OFFCURVE",
"482 -8 OFFCURVE",
"532 -8 CURVE SMOOTH",
"615 -8 OFFCURVE",
"675 16 OFFCURVE",
"710 77 CURVE SMOOTH",
"730 112 OFFCURVE",
"736 156 OFFCURVE",
"736 210 CURVE SMOOTH",
"736 682 LINE",
"646 682 LINE"
);
}
);
width = 786;
},
{
anchors = (
{
name = connect;
position = "{670, -2}";
}
);
layerId = "070DF6F6-38EC-45CA-8FD7-ED5C2C5DB7AE";
paths = (
{
closed = 1;
nodes = (
"527 234 LINE SMOOTH",
"527 172 OFFCURVE",
"522 136 OFFCURVE",
"517 121 CURVE SMOOTH",
"505 84 OFFCURVE",
"481 67 OFFCURVE",
"441 67 CURVE SMOOTH",
"414 67 OFFCURVE",
"393 77 OFFCURVE",
"380 96 CURVE SMOOTH",
"367 115 OFFCURVE",
"361 142 OFFCURVE",
"361 179 CURVE SMOOTH",
"361 682 LINE",
"293 682 LINE",
"293 179 LINE SMOOTH",
"293 146 OFFCURVE",
"288 115 OFFCURVE",
"273 94 CURVE SMOOTH",
"260 76 OFFCURVE",
"237 67 OFFCURVE",
"213 67 CURVE SMOOTH",
"173 67 OFFCURVE",
"148 86 OFFCURVE",
"138 116 CURVE SMOOTH",
"131 137 OFFCURVE",
"126 178 OFFCURVE",
"126 234 CURVE SMOOTH",
"126 682 LINE",
"55 682 LINE",
"55 210 LINE SMOOTH",
"55 163 OFFCURVE",
"59 112 OFFCURVE",
"76 75 CURVE SMOOTH",
"104 14 OFFCURVE",
"155 -8 OFFCURVE",
"217 -8 CURVE SMOOTH",
"256 -8 OFFCURVE",
"285 3 OFFCURVE",
"319 33 CURVE SMOOTH",
"323 37 OFFCURVE",
"324 38 OFFCURVE",
"327 43 CURVE",
"329 38 OFFCURVE",
"332 37 OFFCURVE",
"336 33 CURVE SMOOTH",
"364 5 OFFCURVE",
"397 -8 OFFCURVE",
"437 -8 CURVE SMOOTH",
"505 -8 OFFCURVE",
"551 18 OFFCURVE",
"578 77 CURVE SMOOTH",
"595 113 OFFCURVE",
"598 161 OFFCURVE",
"598 210 CURVE SMOOTH",
"598 682 LINE",
"527 682 LINE"
);
}
);
userData = {
RMXScaler = {
adjustSpace = -10;
weight = -10;
width = 90;
};
};
width = 651;
}
);
note = uni1220;
unicode = 1220;
userData = {
RMXScaler = {
source = "sza-ethiopic";
};
};
},
{
glyphname = "szu-ethiopic";
lastChange = "2019-03-09 00:18:20 +0000";
layers = (
{
components = (
{
name = "sza-ethiopic";
transform = "{1, 0, 0, 1, 5, 0}";
}
);
layerId = "994FE389-9D54-4FAA-B055-C46A67020E78";
paths = (
{
closed = 1;
nodes = (
"819 329 LINE",
"819 416 LINE",
"706 416 LINE",
"706 329 LINE"
);
}
);
width = 841;
},
{
components = (
{
name = "sza-ethiopic";
transform = "{1, 0, 0, 1, 14, 0}";
}
);
layerId = "070DF6F6-38EC-45CA-8FD7-ED5C2C5DB7AE";
paths = (
{
closed = 1;
nodes = (
"687 319 LINE",
"687 406 LINE",
"597 406 LINE",
"597 319 LINE"
);
}
);
userData = {
RMXScaler = {
adjustSpace = -10;
weight = -10;
width = 90;
};
};
width = 733;
}
);
note = uni1221;
unicode = 1221;
userData = {
RMXScaler = {
source = "szu-ethiopic";
};
};
},
{
glyphname = "szi-ethiopic";
lastChange = "2019-03-09 00:19:05 +0000";
layers = (
{
components = (
{
name = "sza-ethiopic";
},
{
name = _part.hu;
transform = "{1, 0, 0, 1, 636, -410}";
}
);
layerId = "994FE389-9D54-4FAA-B055-C46A67020E78";
paths = (
{
closed = 1;
nodes = (
"737 -181 LINE",
"737 346 LINE",
"647 346 LINE",
"647 -181 LINE"
);
}
);
width = 837;
},
{
components = (
{
name = "sza-ethiopic";
transform = "{1, 0, 0, 1, 13, 0}";
},
{
name = _part.hu;
transform = "{1, 0, 0, 1, 535, -410}";
}
);
layerId = "070DF6F6-38EC-45CA-8FD7-ED5C2C5DB7AE";
paths = (
{
closed = 1;
nodes = (
"612 -181 LINE",
"612 346 LINE",
"541 346 LINE",
"541 -181 LINE"
);
}
);
userData = {
RMXScaler = {
adjustSpace = -10;
weight = -10;
width = 90;
};
};
width = 721;
}
);
note = uni1222;
unicode = 1222;
userData = {
RMXScaler = {
source = "szi-ethiopic";
};
};
},
{
glyphname = "szaa-ethiopic";
lastChange = "2019-03-09 00:18:40 +0000";
layers = (
{
components = (
{
name = "sza-ethiopic";
}
);
layerId = "994FE389-9D54-4FAA-B055-C46A67020E78";
paths = (
{
closed = 1;
nodes = (
"737 -181 LINE",
"737 346 LINE",
"647 346 LINE",
"647 -181 LINE"
);
}
);
width = 807;
},
{
components = (
{
name = "sza-ethiopic";
transform = "{1, 0, 0, 1, 11, 0}";
}
);
layerId = "070DF6F6-38EC-45CA-8FD7-ED5C2C5DB7AE";
paths = (
{
closed = 1;
nodes = (
"609 -181 LINE",
"609 346 LINE",
"538 346 LINE",
"538 -181 LINE"
);
}
);
userData = {
RMXScaler = {
adjustSpace = -10;
weight = -10;
width = 90;
};
};
width = 674;
}
);
note = uni1223;
unicode = 1223;
userData = {
RMXScaler = {
source = "szaa-ethiopic";
};
};
},
{
glyphname = "szee-ethiopic";
lastChange = "2019-03-09 00:19:22 +0000";
layers = (
{
components = (
{
name = "szaa-ethiopic";
},
{
name = _part.new.haa;
transform = "{1, 0, 0, 1, 241, -170}";
}
);
layerId = "994FE389-9D54-4FAA-B055-C46A67020E78";
width = 881;
},
{
components = (
{
name = "szaa-ethiopic";
}
);
layerId = "070DF6F6-38EC-45CA-8FD7-ED5C2C5DB7AE";
paths = (
{
closed = 1;
nodes = (
"544 65 LINE",
"544 -180 LINE",
"551 -180 LINE",
"551 -181 LINE",
"628 -181 LINE SMOOTH",
"666 -181 OFFCURVE",
"692 -161 OFFCURVE",
"704 -135 CURVE SMOOTH",
"712 -118 OFFCURVE",
"716 -94 OFFCURVE",
"716 -77 CURVE SMOOTH",
"716 -52 OFFCURVE",
"710 -25 OFFCURVE",
"695 -9 CURVE SMOOTH",
"668 19 OFFCURVE",
"646 21 OFFCURVE",
"629 21 CURVE SMOOTH",
"609 21 LINE",
"609 65 LINE"
);
},
{
closed = 1;
nodes = (
"609 -3 LINE",
"628 -4 OFFCURVE",
"643 -10 OFFCURVE",
"653 -23 CURVE",
"664 -35 OFFCURVE",
"667 -59 OFFCURVE",
"667 -81 CURVE SMOOTH",
"667 -83 OFFCURVE",
"667 -93 OFFCURVE",
"666 -102 CURVE",
"663 -116 OFFCURVE",
"658 -126 OFFCURVE",
"654 -134 CURVE",
"648 -145 OFFCURVE",
"639 -154 OFFCURVE",
"627 -155 CURVE",
"622 -157 OFFCURVE",
"617 -158 OFFCURVE",
"609 -158 CURVE"
);
}
);
userData = {
RMXScaler = {
adjustSpace = -10;
weight = -10;
width = 90;
};
};
width = 751;
}
);
note = uni1224;
unicode = 1224;
userData = {
RMXScaler = {
source = "szee-ethiopic";
};
};
},
{
glyphname = "szo-ethiopic";
lastChange = "2019-03-09 00:19:37 +0000";
layers = (
{
components = (
{
name = "sza-ethiopic";
}
);
layerId = "994FE389-9D54-4FAA-B055-C46A67020E78";
paths = (
{
closed = 1;
nodes = (
"447 -181 LINE",
"447 96 LINE",
"357 96 LINE",
"357 -181 LINE"
);
}
);
width = 807;
},
{
components = (
{
name = "sza-ethiopic";
transform = "{1, 0, 0, 1, 11, 0}";
}
);
layerId = "070DF6F6-38EC-45CA-8FD7-ED5C2C5DB7AE";
paths = (
{
closed = 1;
nodes = (
"375 -181 LINE",
"375 96 LINE",
"304 96 LINE",
"304 -181 LINE"
);
}
);
userData = {
RMXScaler = {
adjustSpace = -10;
weight = -10;
width = 90;
};
};
width = 666;
}
);
note = uni1226;
unicode = 1226;
userData = {
RMXScaler = {
source = "szo-ethiopic";
};
};
},
{
glyphname = "szwa-ethiopic";
lastChange = "2019-03-09 00:11:00 +0000";
layers = (
{
components = (
{
name = "szaa-ethiopic";
}
);
layerId = "994FE389-9D54-4FAA-B055-C46A67020E78";
paths = (
{
closed = 1;
nodes = (
"591 -182 LINE",
"787 -182 LINE",
"787 -136 LINE",
"591 -136 LINE"
);
}
);
width = 807;
},
{
components = (
{
name = "szaa-ethiopic";
transform = "{1, 0, 0, 1, 19, 0}";
}
);
layerId = "070DF6F6-38EC-45CA-8FD7-ED5C2C5DB7AE";
paths = (
{
closed = 1;
nodes = (
"488 -182 LINE",
"643 -182 LINE",
"643 -136 LINE",
"488 -136 LINE"
);
}
);
userData = {
RMXScaler = {
adjustSpace = -10;
weight = -10;
width = 90;
};
};
width = 697;
}
);
note = uni1227;
unicode = 1227;
userData = {
RMXScaler = {
source = "szwa-ethiopic";
};
};
},
{
glyphname = "ru-ethiopic";
lastChange = "2019-03-09 00:11:00 +0000";
layers = (
{
components = (
{
name = L;
}
);
layerId = "994FE389-9D54-4FAA-B055-C46A67020E78";
paths = (
{
closed = 1;
nodes = (
"283 -104 LINE",
"350 -104 LINE",
"350 9 LINE",
"283 9 LINE"
);
}
);
width = 576;
},
{
components = (
{
name = L;
transform = "{1, 0, 0, 1, 21, 0}";
}
);
layerId = "070DF6F6-38EC-45CA-8FD7-ED5C2C5DB7AE";
paths = (
{
closed = 1;
nodes = (
"246 -104 LINE",
"299 -104 LINE",
"299 9 LINE",
"246 9 LINE"
);
}
);
userData = {
RMXScaler = {
adjustSpace = -10;
weight = -10;
width = 90;
};
};
width = 434;
}
);
note = uni1229;
unicode = 1229;
userData = {
RMXScaler = {
source = "ru-ethiopic";
};
};
},
{
glyphname = "ri-ethiopic";
lastChange = "2019-03-09 00:11:00 +0000";
layers = (
{
components = (
{
name = L;
}
);
layerId = "994FE389-9D54-4FAA-B055-C46A67020E78";
paths = (
{
closed = 1;
nodes = (
"298 0 LINE",
"466 0 LINE SMOOTH",
"467 0 OFFCURVE",
"501 1 OFFCURVE",
"506 62 CURVE",
"506 358 OFFCURVE",
"506 351 OFFCURVE",
"298 351 CURVE",
"337 287 LINE",
"433 289 OFFCURVE",
"423 311 OFFCURVE",
"424 80 CURVE",
"305 78 LINE"
);
}
);
width = 555;
},
{
components = (
{
name = L;
transform = "{1, 0, 0, 1, 21, 0}";
}
);
layerId = "070DF6F6-38EC-45CA-8FD7-ED5C2C5DB7AE";
paths = (
{
closed = 1;
nodes = (
"257 0 LINE",
"390 0 LINE SMOOTH",
"391 0 OFFCURVE",
"418 1 OFFCURVE",
"422 62 CURVE",
"422 358 OFFCURVE",
"422 351 OFFCURVE",
"257 351 CURVE",
"288 287 LINE",
"372 289 OFFCURVE",
"357 269 OFFCURVE",
"356 80 CURVE",
"262 78 LINE"
);
}
);
userData = {
RMXScaler = {
adjustSpace = -10;
weight = -10;
width = 90;
};
};
width = 470;
}
);
note = uni122A;
unicode = 122A;
userData = {
RMXScaler = {
source = "ri-ethiopic";
};
};
},
{
glyphname = "raa-ethiopic";
lastChange = "2019-03-09 00:11:00 +0000";
layers = (
{
components = (
{
name = L;
}
);
layerId = "994FE389-9D54-4FAA-B055-C46A67020E78";
paths = (
{
closed = 1;
nodes = (
"506 80 LINE",
"507 311 OFFCURVE",
"497 289 OFFCURVE",
"593 287 CURVE",
"632 351 LINE",
"424 351 OFFCURVE",
"424 358 OFFCURVE",
"424 62 CURVE",
"429 1 OFFCURVE",
"463 0 OFFCURVE",
"464 0 CURVE SMOOTH",
"506 0 LINE"
);
}
);
width = 648;
},
{
components = (
{
name = L;
transform = "{1, 0, 0, 1, 21, 0}";
}
);
layerId = "070DF6F6-38EC-45CA-8FD7-ED5C2C5DB7AE";
paths = (
{
closed = 1;
nodes = (
"423 80 LINE",
"424 287 OFFCURVE",
"408 289 OFFCURVE",
"492 287 CURVE",
"523 351 LINE",
"358 351 OFFCURVE",
"358 358 OFFCURVE",
"358 62 CURVE",
"361 3 OFFCURVE",
"387 0 OFFCURVE",
"390 0 CURVE SMOOTH",
"423 0 LINE"
);
}
);
userData = {
RMXScaler = {
adjustSpace = -10;
weight = -10;
width = 90;
};
};
width = 570;
}
);
note = uni122B;
unicode = 122B;
userData = {
RMXScaler = {
source = "raa-ethiopic";
};
};
},
{
glyphname = "ree-ethiopic";
lastChange = "2019-03-09 00:11:00 +0000";
layers = (
{
components = (
{
name = L;
}
);
layerId = "994FE389-9D54-4FAA-B055-C46A67020E78";
paths = (
{
closed = 1;
nodes = (
"313 104 LINE SMOOTH",
"313 127 OFFCURVE",
"321 146 OFFCURVE",
"335 156 CURVE",
"349 167 OFFCURVE",
"373 171 OFFCURVE",
"399 171 CURVE SMOOTH",
"406 171 OFFCURVE",
"414 170 OFFCURVE",
"422 169 CURVE",
"436 166 OFFCURVE",
"446 163 OFFCURVE",
"456 157 CURVE SMOOTH",
"467 150 OFFCURVE",
"475 141 OFFCURVE",
"478 128 CURVE",
"480 122 OFFCURVE",
"482 115 OFFCURVE",
"482 105 CURVE SMOOTH",
"482 79 LINE",
"313 78 LINE"
);
},
{
closed = 1;
nodes = (
"273 0 LINE",
"506 -1 LINE",
"506 130 LINE SMOOTH",
"506 167 OFFCURVE",
"489 195 OFFCURVE",
"456 209 CURVE SMOOTH",
"439 216 OFFCURVE",
"416 222 OFFCURVE",
"395 222 CURVE SMOOTH",
"364 222 OFFCURVE",
"338 215 OFFCURVE",
"321 199 CURVE SMOOTH",
"302 182 OFFCURVE",
"289 161 OFFCURVE",
"289 131 CURVE SMOOTH",
"289 78 LINE",
"273 78 LINE"
);
}
);
width = 548;
},
{
components = (
{
name = L;
transform = "{1, 0, 0, 1, 21, 0}";
}
);
layerId = "070DF6F6-38EC-45CA-8FD7-ED5C2C5DB7AE";
paths = (
{
closed = 1;
nodes = (
"270 104 LINE SMOOTH",
"270 125 OFFCURVE",
"276 146 OFFCURVE",
"287 156 CURVE",
"298 167 OFFCURVE",
"319 171 OFFCURVE",
"337 171 CURVE SMOOTH",
"343 171 OFFCURVE",
"350 170 OFFCURVE",
"356 169 CURVE",
"367 166 OFFCURVE",
"378 161 OFFCURVE",
"383 157 CURVE SMOOTH",
"389 152 OFFCURVE",
"398 141 OFFCURVE",
"401 128 CURVE",
"402 124 OFFCURVE",
"404 115 OFFCURVE",
"404 105 CURVE SMOOTH",
"404 79 LINE",
"270 78 LINE"
);
},
{
closed = 1;
nodes = (
"238 0 LINE",
"423 -1 LINE",
"423 130 LINE SMOOTH",
"423 166 OFFCURVE",
"409 195 OFFCURVE",
"385 208 CURVE SMOOTH",
"370 216 OFFCURVE",
"351 222 OFFCURVE",
"335 222 CURVE SMOOTH",
"308 222 OFFCURVE",
"289 213 OFFCURVE",
"276 199 CURVE SMOOTH",
"261 182 OFFCURVE",
"250 160 OFFCURVE",
"250 131 CURVE SMOOTH",
"250 78 LINE",
"238 78 LINE"
);
}
);
userData = {
RMXScaler = {
adjustSpace = -10;
weight = -10;
width = 90;
};
};
width = 470;
}
);
note = uni122C;
unicode = 122C;
userData = {
RMXScaler = {
source = "ree-ethiopic";
};
};
},
{
glyphname = "re-ethiopic";
lastChange = "2019-03-09 00:11:00 +0000";
layers = (
{
components = (
{
name = L;
}
);
layerId = "994FE389-9D54-4FAA-B055-C46A67020E78";
paths = (
{
closed = 1;
nodes = (
"70 601 LINE",
"442 601 LINE",
"442 679 LINE",
"70 679 LINE"
);
}
);
width = 576;
},
{
components = (
{
name = L;
transform = "{1, 0, 0, 1, 20, 0}";
}
);
layerId = "070DF6F6-38EC-45CA-8FD7-ED5C2C5DB7AE";
paths = (
{
closed = 1;
nodes = (
"75 601 LINE",
"370 601 LINE",
"370 679 LINE",
"75 679 LINE"
);
}
);
userData = {
RMXScaler = {
adjustSpace = -10;
weight = -10;
width = 90;
};
};
width = 440;
}
);
note = uni122D;
unicode = 122D;
userData = {
RMXScaler = {
source = "re-ethiopic";
};
};
},
{
glyphname = "ro-ethiopic";
lastChange = "2019-03-09 00:11:00 +0000";
layers = (
{
components = (
{
name = "re-ethiopic";
}
);
layerId = "994FE389-9D54-4FAA-B055-C46A67020E78";
paths = (
{
closed = 1;
nodes = (
"219 600 LINE",
"228 601 OFFCURVE",
"239 601 OFFCURVE",
"251 601 CURVE SMOOTH",
"272 601 LINE",
"272 568 LINE SMOOTH",
"272 536 OFFCURVE",
"286 514 OFFCURVE",
"306 496 CURVE SMOOTH",
"324 480 OFFCURVE",
"351 473 OFFCURVE",
"382 473 CURVE SMOOTH",
"406 473 OFFCURVE",
"428 477 OFFCURVE",
"447 485 CURVE SMOOTH",
"480 499 OFFCURVE",
"499 529 OFFCURVE",
"499 568 CURVE SMOOTH",
"499 600 LINE",
"500 600 LINE",
"499 680 LINE",
"225 679 LINE"
);
},
{
closed = 1;
nodes = (
"359 524 OFFCURVE",
"336 530 OFFCURVE",
"320 540 CURVE SMOOTH",
"305 550 OFFCURVE",
"299 571 OFFCURVE",
"299 595 CURVE SMOOTH",
"299 601 LINE",
"474 600 LINE",
"474 594 LINE SMOOTH",
"474 584 OFFCURVE",
"472 576 OFFCURVE",
"469 570 CURVE",
"464 557 OFFCURVE",
"459 546 OFFCURVE",
"446 540 CURVE SMOOTH",
"436 535 OFFCURVE",
"426 531 OFFCURVE",
"410 527 CURVE SMOOTH",
"402 525 OFFCURVE",
"394 524 OFFCURVE",
"387 524 CURVE SMOOTH"
);
}
);
width = 558;
},
{
components = (
{
name = "re-ethiopic";
transform = "{1, 0, 0, 1, 21, 0}";
}
);
layerId = "070DF6F6-38EC-45CA-8FD7-ED5C2C5DB7AE";
paths = (
{
closed = 1;
nodes = (
"195 600 LINE",
"202 601 OFFCURVE",
"211 601 OFFCURVE",
"221 601 CURVE SMOOTH",
"237 601 LINE",
"237 568 LINE SMOOTH",
"237 539 OFFCURVE",
"248 514 OFFCURVE",
"263 497 CURVE SMOOTH",
"277 482 OFFCURVE",
"297 473 OFFCURVE",
"325 473 CURVE SMOOTH",
"344 473 OFFCURVE",
"358 476 OFFCURVE",
"375 485 CURVE SMOOTH",
"402 499 OFFCURVE",
"417 528 OFFCURVE",
"417 568 CURVE SMOOTH",
"417 600 LINE",
"418 600 LINE",
"417 680 LINE",
"199 679 LINE"
);
},
{
closed = 1;
nodes = (
"307 524 OFFCURVE",
"287 530 OFFCURVE",
"275 540 CURVE SMOOTH",
"263 550 OFFCURVE",
"258 572 OFFCURVE",
"258 595 CURVE SMOOTH",
"258 601 LINE",
"398 600 LINE",
"398 594 LINE SMOOTH",
"398 589 OFFCURVE",
"396 576 OFFCURVE",
"393 570 CURVE",
"389 553 OFFCURVE",
"385 547 OFFCURVE",
"375 540 CURVE SMOOTH",
"357 528 OFFCURVE",
"361 532 OFFCURVE",
"347 527 CURVE SMOOTH",
"340 525 OFFCURVE",
"333 524 OFFCURVE",
"328 524 CURVE SMOOTH"
);
}
);
userData = {
RMXScaler = {
adjustSpace = -10;
weight = -10;
width = 90;
};
};
width = 467;
}
);
note = uni122E;
unicode = 122E;
userData = {
RMXScaler = {
source = "ro-ethiopic";
};
};
},
{
glyphname = "rwa-ethiopic";
lastChange = "2019-03-09 00:11:00 +0000";
layers = (
{
components = (
{
name = "raa-ethiopic";
}
);
layerId = "994FE389-9D54-4FAA-B055-C46A67020E78";
paths = (
{
closed = 1;
nodes = (
"33 631 LINE",
"227 631 LINE",
"227 681 LINE",
"33 681 LINE"
);
}
);
width = 648;
},
{
components = (
{
name = "raa-ethiopic";
transform = "{1, 0, 0, 1, 28, 0}";
}
);
layerId = "070DF6F6-38EC-45CA-8FD7-ED5C2C5DB7AE";
paths = (
{
closed = 1;
nodes = (
"54 631 LINE",
"208 631 LINE",
"208 681 LINE",
"54 681 LINE"
);
}
);
userData = {
RMXScaler = {
adjustSpace = -10;
weight = -10;
width = 90;
};
};
width = 578;
}
);
note = uni122F;
unicode = 122F;
userData = {
RMXScaler = {
source = "rwa-ethiopic";
};
};
},
{
glyphname = "sa-ethiopic";
lastChange = "2019-03-09 00:21:16 +0000";
layers = (
{
components = (
{
name = "ba-ethiopic";
}
);
layerId = "994FE389-9D54-4FAA-B055-C46A67020E78";
paths = (
{
closed = 1;
nodes = (
"348 580 LINE",
"348 803 LINE",
"259 803 LINE",
"259 580 LINE"
);
}
);
width = 641;
},
{
components = (
{
name = "ba-ethiopic";
transform = "{1, 0, 0, 1, 11, 0}";
}
);
layerId = "070DF6F6-38EC-45CA-8FD7-ED5C2C5DB7AE";
paths = (
{
closed = 1;
nodes = (
"298 580 LINE",
"298 803 LINE",
"228 803 LINE",
"228 580 LINE"
);
}
);
userData = {
RMXScaler = {
adjustSpace = -10;
weight = -10;
width = 90;
};
};
width = 518;
}
);
note = uni1230;
unicode = 1230;
userData = {
RMXScaler = {
source = "sa-ethiopic";
};
};
},
{
glyphname = "saa-ethiopic";
lastChange = "2019-03-09 00:22:07 +0000";
layers = (
{
components = (
{
name = "sa-ethiopic";
}
);
layerId = "994FE389-9D54-4FAA-B055-C46A67020E78";
paths = (
{
closed = 1;
nodes = (
"572 -180 LINE",
"572 133 LINE",
"487 133 LINE",
"487 -180 LINE"
);
}
);
width = 638;
},
{
components = (
{
name = "sa-ethiopic";
transform = "{1, 0, 0, 1, -21, 0}";
}
);
layerId = "070DF6F6-38EC-45CA-8FD7-ED5C2C5DB7AE";
paths = (
{
closed = 1;
nodes = (
"442 -180 LINE",
"442 133 LINE",
"375 133 LINE",
"375 -180 LINE"
);
}
);
userData = {
RMXScaler = {
adjustSpace = -10;
weight = -10;
width = 90;
};
};
width = 508;
}
);
note = uni1233;
unicode = 1233;
userData = {
RMXScaler = {
source = "saa-ethiopic";
};
};
},
{
glyphname = "see-ethiopic";
lastChange = "2019-03-09 00:22:19 +0000";
layers = (
{
components = (
{
name = "sa-ethiopic";
},
{
name = _part.new.haa;
transform = "{1, 0, 0, 1, 79, 0}";
}
);
layerId = "994FE389-9D54-4FAA-B055-C46A67020E78";
width = 729;
},
{
components = (
{
name = "sa-ethiopic";
}
);
layerId = "070DF6F6-38EC-45CA-8FD7-ED5C2C5DB7AE";
paths = (
{
closed = 1;
nodes = (
"399 235 LINE",
"399 -10 LINE",
"406 -10 LINE",
"406 -11 LINE",
"483 -11 LINE SMOOTH",
"521 -11 OFFCURVE",
"547 9 OFFCURVE",
"559 35 CURVE SMOOTH",
"567 52 OFFCURVE",
"571 76 OFFCURVE",
"571 93 CURVE SMOOTH",
"571 118 OFFCURVE",
"565 145 OFFCURVE",
"550 161 CURVE SMOOTH",
"523 189 OFFCURVE",
"501 191 OFFCURVE",
"484 191 CURVE SMOOTH",
"464 191 LINE",
"464 235 LINE"
);
},
{
closed = 1;
nodes = (
"464 167 LINE",
"483 166 OFFCURVE",
"498 160 OFFCURVE",
"508 147 CURVE SMOOTH",
"518 134 OFFCURVE",
"522 111 OFFCURVE",
"522 89 CURVE SMOOTH",
"522 87 OFFCURVE",
"522 77 OFFCURVE",
"521 68 CURVE",
"518 54 OFFCURVE",
"513 44 OFFCURVE",
"509 36 CURVE",
"503 25 OFFCURVE",
"494 16 OFFCURVE",
"482 15 CURVE",
"477 13 OFFCURVE",
"472 12 OFFCURVE",
"464 12 CURVE"
);
}
);
userData = {
RMXScaler = {
adjustSpace = -10;
weight = -10;
width = 90;
};
};
width = 610;
}
);
note = uni1234;
unicode = 1234;
userData = {
RMXScaler = {
source = "see-ethiopic";
};
};
},
{
glyphname = "se-ethiopic";
lastChange = "2019-03-09 00:22:29 +0000";
layers = (
{
components = (
{
name = "ba-ethiopic";
}
);
layerId = "994FE389-9D54-4FAA-B055-C46A67020E78";
paths = (
{
closed = 1;
nodes = (
"353 625 LINE",
"192 804 LINE",
"116 758 LINE",
"277 579 LINE"
);
}
);
width = 641;
},
{
components = (
{
name = "ba-ethiopic";
transform = "{1, 0, 0, 1, 1, 0}";
}
);
layerId = "070DF6F6-38EC-45CA-8FD7-ED5C2C5DB7AE";
paths = (
{
closed = 1;
nodes = (
"281 625 LINE",
"153 804 LINE",
"93 758 LINE",
"221 579 LINE"
);
}
);
userData = {
RMXScaler = {
adjustSpace = -10;
weight = -10;
width = 90;
};
};
width = 518;
}
);
note = uni1235;
unicode = 1235;
userData = {
RMXScaler = {
source = "se-ethiopic";
};
};
},
{
glyphname = "swa-ethiopic";
lastChange = "2019-03-09 00:22:37 +0000";
layers = (
{
components = (
{
name = "saa-ethiopic";
}
);
layerId = "994FE389-9D54-4FAA-B055-C46A67020E78";
paths = (
{
closed = 1;
nodes = (
"408 -180 LINE",
"614 -180 LINE",
"614 -138 LINE",
"408 -138 LINE"
);
}
);
width = 638;
},
{
components = (
{
name = "saa-ethiopic";
transform = "{1, 0, 0, 1, 21, 0}";
}
);
layerId = "070DF6F6-38EC-45CA-8FD7-ED5C2C5DB7AE";
paths = (
{
closed = 1;
nodes = (
"344 -180 LINE",
"507 -180 LINE",
"507 -138 LINE",
"344 -138 LINE"
);
}
);
userData = {
RMXScaler = {
adjustSpace = -10;
weight = -10;
width = 90;
};
};
width = 555;
}
);
note = uni1237;
unicode = 1237;
userData = {
RMXScaler = {
source = "swa-ethiopic";
};
};
},
{
glyphname = "sha-ethiopic";
lastChange = "2019-03-09 00:23:04 +0000";
layers = (
{
components = (
{
name = "sa-ethiopic";
}
);
layerId = "994FE389-9D54-4FAA-B055-C46A67020E78";
paths = (
{
closed = 1;
nodes = (
"342 754 LINE",
"342 762 LINE",
"471 762 LINE",
"471 807 LINE",
"154 807 LINE",
"154 762 LINE",
"265 762 LINE",
"265 757 LINE"
);
}
);
width = 641;
},
{
components = (
{
name = "sa-ethiopic";
transform = "{1, 0, 0, 1, -2, 0}";
}
);
layerId = "070DF6F6-38EC-45CA-8FD7-ED5C2C5DB7AE";
paths = (
{
closed = 1;
nodes = (
"287 754 LINE",
"287 762 LINE",
"389 762 LINE",
"389 807 LINE",
"138 807 LINE",
"138 762 LINE",
"226 762 LINE",
"226 757 LINE"
);
}
);
userData = {
RMXScaler = {
adjustSpace = -10;
weight = -10;
width = 90;
};
};
width = 525;
}
);
note = uni1238;
unicode = 1238;
userData = {
RMXScaler = {
source = "sha-ethiopic";
};
};
},
{
glyphname = "shu-ethiopic";
lastChange = "2019-03-09 00:23:19 +0000";
layers = (
{
components = (
{
name = "su-ethiopic";
}
);
layerId = "994FE389-9D54-4FAA-B055-C46A67020E78";
paths = (
{
closed = 1;
nodes = (
"352 754 LINE",
"352 762 LINE",
"481 762 LINE",
"481 807 LINE",
"164 807 LINE",
"164 762 LINE",
"275 762 LINE",
"275 757 LINE"
);
}
);
width = 641;
},
{
components = (
{
name = "su-ethiopic";
transform = "{1, 0, 0, 1, -2, 0}";
}
);
layerId = "070DF6F6-38EC-45CA-8FD7-ED5C2C5DB7AE";
paths = (
{
closed = 1;
nodes = (
"288 754 LINE",
"288 762 LINE",
"390 762 LINE",
"390 807 LINE",
"139 807 LINE",
"139 762 LINE",
"227 762 LINE",
"227 757 LINE"
);
}
);
userData = {
RMXScaler = {
adjustSpace = -10;
weight = -10;
width = 90;
};
};
width = 616;
}
);
note = uni1239;
unicode = 1239;
userData = {
RMXScaler = {
source = "shu-ethiopic";
};
};
},
{
glyphname = "shi-ethiopic";
lastChange = "2019-03-09 00:24:00 +0000";
layers = (
{
components = (
{
name = "si-ethiopic";
}
);
layerId = "994FE389-9D54-4FAA-B055-C46A67020E78";
paths = (
{
closed = 1;
nodes = (
"352 754 LINE",
"352 762 LINE",
"481 762 LINE",
"481 807 LINE",
"164 807 LINE",
"164 762 LINE",
"275 762 LINE",
"275 757 LINE"
);
}
);
width = 685;
},
{
components = (
{
name = "si-ethiopic";
transform = "{1, 0, 0, 1, -2, 0}";
}
);
layerId = "070DF6F6-38EC-45CA-8FD7-ED5C2C5DB7AE";
paths = (
{
closed = 1;
nodes = (
"289 754 LINE",
"289 762 LINE",
"391 762 LINE",
"391 807 LINE",
"140 807 LINE",
"140 762 LINE",
"228 762 LINE",
"228 757 LINE"
);
}
);
userData = {
RMXScaler = {
adjustSpace = -10;
weight = -10;
width = 90;
};
};
width = 606;
}
);
note = uni123A;
unicode = 123A;
userData = {
RMXScaler = {
source = "shi-ethiopic";
};
};
},
{
glyphname = "shaa-ethiopic";
lastChange = "2019-03-09 00:24:19 +0000";
layers = (
{
components = (
{
name = "saa-ethiopic";
}
);
layerId = "994FE389-9D54-4FAA-B055-C46A67020E78";
paths = (
{
closed = 1;
nodes = (
"352 754 LINE",
"352 762 LINE",
"481 762 LINE",
"481 807 LINE",
"164 807 LINE",
"164 762 LINE",
"275 762 LINE",
"275 757 LINE"
);
}
);
width = 638;
},
{
components = (
{
name = "saa-ethiopic";
transform = "{1, 0, 0, 1, 20, 0}";
}
);
layerId = "070DF6F6-38EC-45CA-8FD7-ED5C2C5DB7AE";
paths = (
{
closed = 1;
nodes = (
"291 754 LINE",
"291 762 LINE",
"393 762 LINE",
"393 807 LINE",
"142 807 LINE",
"142 762 LINE",
"230 762 LINE",
"230 757 LINE"
);
}
);
userData = {
RMXScaler = {
adjustSpace = -10;
weight = -10;
width = 90;
};
};
width = 516;
}
);
note = uni123B;
unicode = 123B;
userData = {
RMXScaler = {
source = "shaa-ethiopic";
};
};
},
{
glyphname = "shee-ethiopic";
lastChange = "2019-03-09 00:24:36 +0000";
layers = (
{
components = (
{
name = "see-ethiopic";
}
);
layerId = "994FE389-9D54-4FAA-B055-C46A67020E78";
paths = (
{
closed = 1;
nodes = (
"352 754 LINE",
"352 762 LINE",
"481 762 LINE",
"481 807 LINE",
"164 807 LINE",
"164 762 LINE",
"275 762 LINE",
"275 757 LINE"
);
}
);
width = 729;
},
{
components = (
{
name = "see-ethiopic";
transform = "{1, 0, 0, 1, -2, 0}";
}
);
layerId = "070DF6F6-38EC-45CA-8FD7-ED5C2C5DB7AE";
paths = (
{
closed = 1;
nodes = (
"296 754 LINE",
"296 762 LINE",
"398 762 LINE",
"398 807 LINE",
"147 807 LINE",
"147 762 LINE",
"235 762 LINE",
"235 757 LINE"
);
}
);
userData = {
RMXScaler = {
adjustSpace = -10;
weight = -10;
width = 90;
};
};
width = 591;
}
);
note = uni123C;
unicode = 123C;
userData = {
RMXScaler = {
source = "shee-ethiopic";
};
};
},
{
glyphname = "she-ethiopic";
lastChange = "2019-03-09 00:24:47 +0000";
layers = (
{
components = (
{
name = "se-ethiopic";
transform = "{1, 0, 0, 1, 10, 0}";
}
);
layerId = "994FE389-9D54-4FAA-B055-C46A67020E78";
paths = (
{
closed = 1;
nodes = (
"202 754 LINE",
"202 762 LINE",
"331 762 LINE",
"331 807 LINE",
"14 807 LINE",
"14 762 LINE",
"125 762 LINE",
"125 757 LINE"
);
}
);
width = 651;
},
{
components = (
{
name = "se-ethiopic";
transform = "{1, 0, 0, 1, 48, 0}";
}
);
layerId = "070DF6F6-38EC-45CA-8FD7-ED5C2C5DB7AE";
paths = (
{
closed = 1;
nodes = (
"201 754 LINE",
"201 762 LINE",
"303 762 LINE",
"303 807 LINE",
"52 807 LINE",
"52 762 LINE",
"140 762 LINE",
"140 757 LINE"
);
}
);
userData = {
RMXScaler = {
adjustSpace = -10;
weight = -10;
width = 90;
};
};
width = 566;
}
);
note = uni123D;
unicode = 123D;
userData = {
RMXScaler = {
source = "she-ethiopic";
};
};
},
{
glyphname = "sho-ethiopic";
lastChange = "2019-03-09 00:24:59 +0000";
layers = (
{
components = (
{
name = "so-ethiopic";
}
);
layerId = "994FE389-9D54-4FAA-B055-C46A67020E78";
paths = (
{
closed = 1;
nodes = (
"352 754 LINE",
"352 762 LINE",
"481 762 LINE",
"481 807 LINE",
"164 807 LINE",
"164 762 LINE",
"275 762 LINE",
"275 757 LINE"
);
}
);
width = 638;
},
{
components = (
{
name = "so-ethiopic";
transform = "{1, 0, 0, 1, 2, 0}";
}
);
layerId = "070DF6F6-38EC-45CA-8FD7-ED5C2C5DB7AE";
paths = (
{
closed = 1;
nodes = (
"291 754 LINE",
"291 762 LINE",
"393 762 LINE",
"393 807 LINE",
"142 807 LINE",
"142 762 LINE",
"230 762 LINE",
"230 757 LINE"
);
}
);
userData = {
RMXScaler = {
adjustSpace = -10;
weight = -10;
width = 90;
};
};
width = 520;
}
);
note = uni123E;
unicode = 123E;
userData = {
RMXScaler = {
source = "sho-ethiopic";
};
};
},
{
glyphname = "shwa-ethiopic";
lastChange = "2019-03-09 00:25:13 +0000";
layers = (
{
components = (
{
name = "saa-ethiopic";
}
);
layerId = "994FE389-9D54-4FAA-B055-C46A67020E78";
paths = (
{
closed = 1;
nodes = (
"352 754 LINE",
"352 762 LINE",
"481 762 LINE",
"481 807 LINE",
"164 807 LINE",
"164 762 LINE",
"275 762 LINE",
"275 757 LINE"
);
}
);
width = 638;
},
{
components = (
{
name = "saa-ethiopic";
transform = "{1, 0, 0, 1, 20, 0}";
}
);
layerId = "070DF6F6-38EC-45CA-8FD7-ED5C2C5DB7AE";
paths = (
{
closed = 1;
nodes = (
"291 754 LINE",
"291 762 LINE",
"393 762 LINE",
"393 807 LINE",
"142 807 LINE",
"142 762 LINE",
"230 762 LINE",
"230 757 LINE"
);
}
);
userData = {
RMXScaler = {
adjustSpace = -10;
weight = -10;
width = 90;
};
};
width = 528;
}
);
note = uni123F;
unicode = 123F;
userData = {
RMXScaler = {
source = "shwa-ethiopic";
};
};
},
{
glyphname = "qa-ethiopic";
lastChange = "2019-03-09 00:25:50 +0000";
layers = (
{
components = (
{
name = "wa-ethiopic";
}
);
layerId = "994FE389-9D54-4FAA-B055-C46A67020E78";
paths = (
{
closed = 1;
nodes = (
"434 -180 LINE",
"434 803 LINE",
"341 803 LINE",
"341 -180 LINE"
);
}
);
width = 781;
},
{
components = (
{
name = "wa-ethiopic";
transform = "{1, 0, 0, 1, 7, 0}";
}
);
layerId = "070DF6F6-38EC-45CA-8FD7-ED5C2C5DB7AE";
paths = (
{
closed = 1;
nodes = (
"371 -180 LINE",
"371 803 LINE",
"297 803 LINE",
"297 -180 LINE"
);
}
);
userData = {
RMXScaler = {
adjustSpace = -10;
weight = -10;
width = 90;
};
};
width = 676;
}
);
note = uni1240;
unicode = 1240;
userData = {
RMXScaler = {
source = "qa-ethiopic";
};
};
},
{
glyphname = "qaa-ethiopic";
lastChange = "2019-03-09 00:26:34 +0000";
layers = (
{
components = (
{
name = "wa-ethiopic";
},
{
name = _part.middle_leg;
transform = "{1, 0, 0, 1, 180, 0}";
}
);
layerId = "994FE389-9D54-4FAA-B055-C46A67020E78";
paths = (
{
closed = 1;
nodes = (
"339 603 LINE",
"433 603 LINE",
"433 800 LINE",
"339 800 LINE"
);
}
);
width = 781;
},
{
components = (
{
name = "wa-ethiopic";
transform = "{1, 0, 0, 1, 15, 0}";
},
{
name = _part.middle_leg;
transform = "{1, 0, 0, 1, 156, 0}";
}
);
layerId = "070DF6F6-38EC-45CA-8FD7-ED5C2C5DB7AE";
paths = (
{
closed = 1;
nodes = (
"314 603 LINE",
"389 603 LINE",
"389 800 LINE",
"314 800 LINE"
);
}
);
userData = {
RMXScaler = {
adjustSpace = -10;
weight = -10;
width = 90;
};
};
width = 693;
}
);
note = uni1243;
unicode = 1243;
userData = {
RMXScaler = {
source = "qaa-ethiopic";
};
};
},
{
glyphname = "qe-ethiopic";
lastChange = "2019-03-09 00:27:26 +0000";
layers = (
{
components = (
{
name = "wa-ethiopic";
}
);
layerId = "994FE389-9D54-4FAA-B055-C46A67020E78";
paths = (
{
closed = 1;
nodes = (
"359 -180 LINE",
"430 -180 LINE",
"430 54 LINE",
"359 54 LINE"
);
},
{
closed = 1;
nodes = (
"170 696 LINE",
"260 696 LINE",
"260 800 LINE",
"170 800 LINE"
);
},
{
closed = 1;
nodes = (
"180 696 LINE",
"426 696 LINE",
"426 723 LINE",
"180 723 LINE"
);
},
{
closed = 1;
nodes = (
"353 605 LINE",
"426 605 LINE",
"426 722 LINE",
"353 722 LINE"
);
}
);
width = 781;
},
{
components = (
{
name = "wa-ethiopic";
transform = "{1, 0, 0, 1, 15, 0}";
}
);
layerId = "070DF6F6-38EC-45CA-8FD7-ED5C2C5DB7AE";
paths = (
{
closed = 1;
nodes = (
"297 -180 LINE",
"353 -180 LINE",
"353 54 LINE",
"297 54 LINE"
);
},
{
closed = 1;
nodes = (
"130 696 LINE",
"201 696 LINE",
"201 800 LINE",
"130 800 LINE"
);
},
{
closed = 1;
nodes = (
"138 696 LINE",
"333 696 LINE",
"333 723 LINE",
"138 723 LINE"
);
},
{
closed = 1;
nodes = (
"315 606 LINE",
"373 606 LINE",
"373 723 LINE",
"315 723 LINE"
);
}
);
userData = {
RMXScaler = {
adjustSpace = -10;
weight = -10;
width = 90;
};
};
width = 697;
}
);
note = uni1245;
unicode = 1245;
userData = {
RMXScaler = {
source = "qe-ethiopic";
};
};
},
{
glyphname = "qoa-ethiopic";
lastChange = "2019-03-09 00:28:04 +0000";
layers = (
{
components = (
{
name = "qo-ethiopic";
}
);
layerId = "994FE389-9D54-4FAA-B055-C46A67020E78";
paths = (
{
closed = 1;
nodes = (
"164 -180 LINE",
"388 -180 LINE",
"388 -120 LINE",
"164 -120 LINE"
);
}
);
width = 781;
},
{
components = (
{
name = "qo-ethiopic";
transform = "{1, 0, 0, 1, 13, 0}";
}
);
layerId = "070DF6F6-38EC-45CA-8FD7-ED5C2C5DB7AE";
paths = (
{
closed = 1;
nodes = (
"143 -180 LINE",
"321 -180 LINE",
"321 -120 LINE",
"143 -120 LINE"
);
}
);
userData = {
RMXScaler = {
adjustSpace = -10;
weight = -10;
width = 90;
};
};
width = 694;
}
);
note = uni1247;
unicode = 1247;
userData = {
RMXScaler = {
source = "qoa-ethiopic";
};
};
},
{
glyphname = "qwaa-ethiopic";
lastChange = "2019-03-09 00:28:20 +0000";
layers = (
{
components = (
{
name = "wa-ethiopic";
}
);
layerId = "994FE389-9D54-4FAA-B055-C46A67020E78";
paths = (
{
closed = 1;
nodes = (
"353 -104 LINE",
"603 -104 LINE",
"603 -68 LINE",
"353 -68 LINE"
);
},
{
closed = 1;
nodes = (
"549 -180 LINE",
"603 -180 LINE",
"603 -80 LINE",
"549 -80 LINE"
);
},
{
closed = 1;
nodes = (
"434 -105 LINE",
"434 803 LINE",
"341 803 LINE",
"341 -105 LINE"
);
}
);
width = 781;
},
{
components = (
{
name = "wa-ethiopic";
transform = "{1, 0, 0, 1, 24, 0}";
}
);
layerId = "070DF6F6-38EC-45CA-8FD7-ED5C2C5DB7AE";
paths = (
{
closed = 1;
nodes = (
"304 -104 LINE",
"502 -104 LINE",
"502 -68 LINE",
"304 -68 LINE"
);
},
{
closed = 1;
nodes = (
"459 -180 LINE",
"502 -180 LINE",
"502 -80 LINE",
"459 -80 LINE"
);
},
{
closed = 1;
nodes = (
"388 -104 LINE",
"388 804 LINE",
"314 804 LINE",
"314 -104 LINE"
);
}
);
userData = {
RMXScaler = {
adjustSpace = -10;
weight = -10;
width = 90;
};
};
width = 704;
}
);
unicode = 124B;
userData = {
RMXScaler = {
source = "qwaa-ethiopic";
};
};
},
{
glyphname = "ba-ethiopic";
lastChange = "2019-03-09 00:11:00 +0000";
layers = (
{
layerId = "994FE389-9D54-4FAA-B055-C46A67020E78";
paths = (
{
closed = 1;
nodes = (
"214 645 OFFCURVE",
"138 607 OFFCURVE",
"101 530 CURVE SMOOTH",
"70 466 OFFCURVE",
"70 405 OFFCURVE",
"70 349 CURVE SMOOTH",
"70 -8 LINE",
"157 -8 LINE",
"157 385 LINE SMOOTH",
"157 432 OFFCURVE",
"166 470 OFFCURVE",
"183 500 CURVE SMOOTH",
"209 546 OFFCURVE",
"253 570 OFFCURVE",
"314 570 CURVE SMOOTH",
"386 570 OFFCURVE",
"435 544 OFFCURVE",
"462 494 CURVE SMOOTH",
"476 468 OFFCURVE",
"484 432 OFFCURVE",
"484 385 CURVE SMOOTH",
"484 -8 LINE",
"571 -8 LINE",
"571 349 LINE SMOOTH",
"571 428 OFFCURVE",
"561 488 OFFCURVE",
"540 530 CURVE SMOOTH",
"502 606 OFFCURVE",
"428 645 OFFCURVE",
"320 645 CURVE SMOOTH"
);
}
);
width = 641;
},
{
layerId = "070DF6F6-38EC-45CA-8FD7-ED5C2C5DB7AE";
paths = (
{
closed = 1;
nodes = (
"170 645 OFFCURVE",
"109 607 OFFCURVE",
"80 531 CURVE SMOOTH",
"55 464 OFFCURVE",
"55 406 OFFCURVE",
"55 349 CURVE SMOOTH",
"55 -8 LINE",
"124 -8 LINE",
"124 385 LINE SMOOTH",
"124 417 OFFCURVE",
"128 458 OFFCURVE",
"145 499 CURVE SMOOTH",
"163 543 OFFCURVE",
"196 570 OFFCURVE",
"249 570 CURVE SMOOTH",
"306 570 OFFCURVE",
"345 542 OFFCURVE",
"366 494 CURVE SMOOTH",
"376 471 OFFCURVE",
"384 429 OFFCURVE",
"384 385 CURVE SMOOTH",
"384 -8 LINE",
"452 -8 LINE",
"452 349 LINE SMOOTH",
"452 428 OFFCURVE",
"444 488 OFFCURVE",
"428 529 CURVE SMOOTH",
"398 606 OFFCURVE",
"339 645 OFFCURVE",
"253 645 CURVE SMOOTH"
);
}
);
userData = {
RMXScaler = {
adjustSpace = -10;
weight = -10;
width = 90;
};
};
width = 507;
}
);
note = uni1260;
unicode = 1260;
userData = {
RMXScaler = {
source = "ba-ethiopic";
};
};
},
{
glyphname = "baa-ethiopic";
lastChange = "2019-03-09 00:29:07 +0000";
layers = (
{
components = (
{
name = "ba-ethiopic";
}
);
layerId = "994FE389-9D54-4FAA-B055-C46A67020E78";
paths = (
{
closed = 1;
nodes = (
"484 -180 LINE",
"571 -180 LINE",
"571 53 LINE",
"484 53 LINE"
);
}
);
width = 641;
},
{
components = (
{
name = "ba-ethiopic";
transform = "{1, 0, 0, 1, 1, 0}";
}
);
layerId = "070DF6F6-38EC-45CA-8FD7-ED5C2C5DB7AE";
paths = (
{
closed = 1;
nodes = (
"384 -180 LINE",
"453 -180 LINE",
"453 53 LINE",
"384 53 LINE"
);
}
);
userData = {
RMXScaler = {
adjustSpace = -10;
weight = -10;
width = 90;
};
};
width = 518;
}
);
note = uni1263;
unicode = 1263;
userData = {
RMXScaler = {
source = "baa-ethiopic";
};
};
},
{
glyphname = "bwa-ethiopic";
lastChange = "2019-03-09 00:29:51 +0000";
layers = (
{
components = (
{
name = "baa-ethiopic";
}
);
layerId = "994FE389-9D54-4FAA-B055-C46A67020E78";
paths = (
{
closed = 1;
nodes = (
"404 -180 LINE",
"606 -180 LINE",
"606 -139 LINE",
"404 -139 LINE"
);
}
);
width = 621;
},
{
components = (
{
name = "baa-ethiopic";
transform = "{1, 0, 0, 1, 9, 0}";
}
);
layerId = "070DF6F6-38EC-45CA-8FD7-ED5C2C5DB7AE";
paths = (
{
closed = 1;
nodes = (
"330 -180 LINE",
"490 -180 LINE",
"490 -139 LINE",
"330 -139 LINE"
);
}
);
userData = {
RMXScaler = {
adjustSpace = -10;
weight = -10;
width = 90;
};
};
width = 537;
}
);
note = uni1267;
unicode = 1267;
userData = {
RMXScaler = {
source = "bwa-ethiopic";
};
};
},
{
glyphname = "va-ethiopic";
lastChange = "2019-03-09 00:30:22 +0000";
layers = (
{
components = (
{
name = "ba-ethiopic";
}
);
layerId = "994FE389-9D54-4FAA-B055-C46A67020E78";
paths = (
{
closed = 1;
nodes = (
"458 689 LINE",
"458 729 LINE",
"126 729 LINE",
"126 689 LINE"
);
}
);
width = 568;
},
{
components = (
{
name = "ba-ethiopic";
transform = "{1, 0, 0, 1, 10, 0}";
}
);
layerId = "070DF6F6-38EC-45CA-8FD7-ED5C2C5DB7AE";
paths = (
{
closed = 1;
nodes = (
"406 689 LINE",
"406 729 LINE",
"143 729 LINE",
"143 689 LINE"
);
}
);
userData = {
RMXScaler = {
adjustSpace = -10;
weight = -10;
width = 90;
};
};
width = 527;
}
);
note = uni1268;
unicode = 1268;
userData = {
RMXScaler = {
source = "va-ethiopic";
};
};
},
{
glyphname = "vu-ethiopic";
lastChange = "2019-03-09 00:30:47 +0000";
layers = (
{
components = (
{
name = "bu-ethiopic";
}
);
layerId = "994FE389-9D54-4FAA-B055-C46A67020E78";
paths = (
{
closed = 1;
nodes = (
"458 689 LINE",
"458 729 LINE",
"126 729 LINE",
"126 689 LINE"
);
}
);
width = 677;
},
{
components = (
{
name = "bu-ethiopic";
transform = "{1, 0, 0, 1, 10, 0}";
}
);
layerId = "070DF6F6-38EC-45CA-8FD7-ED5C2C5DB7AE";
paths = (
{
closed = 1;
nodes = (
"402 689 LINE",
"402 729 LINE",
"139 729 LINE",
"139 689 LINE"
);
}
);
userData = {
RMXScaler = {
adjustSpace = -10;
weight = -10;
width = 90;
};
};
width = 594;
}
);
note = uni1269;
unicode = 1269;
userData = {
RMXScaler = {
source = "vu-ethiopic";
};
};
},
{
glyphname = "vaa-ethiopic";
lastChange = "2019-03-09 00:32:15 +0000";
layers = (
{
components = (
{
name = "baa-ethiopic";
}
);
layerId = "994FE389-9D54-4FAA-B055-C46A67020E78";
paths = (
{
closed = 1;
nodes = (
"458 689 LINE",
"458 729 LINE",
"126 729 LINE",
"126 689 LINE"
);
}
);
width = 641;
},
{
components = (
{
name = "baa-ethiopic";
},
{
name = _part.vtop;
}
);
layerId = "070DF6F6-38EC-45CA-8FD7-ED5C2C5DB7AE";
userData = {
RMXScaler = {
adjustSpace = -10;
weight = -10;
width = 90;
};
};
width = 518;
}
);
unicode = 126B;
userData = {
RMXScaler = {
source = "vaa-ethiopic";
};
};
},
{
glyphname = "vee-ethiopic";
lastChange = "2019-03-09 00:32:36 +0000";
layers = (
{
components = (
{
name = "bee-ethiopic";
}
);
layerId = "994FE389-9D54-4FAA-B055-C46A67020E78";
paths = (
{
closed = 1;
nodes = (
"458 689 LINE",
"458 729 LINE",
"126 729 LINE",
"126 689 LINE"
);
}
);
width = 719;
},
{
components = (
{
name = "bee-ethiopic";
},
{
name = _part.vtop;
}
);
layerId = "070DF6F6-38EC-45CA-8FD7-ED5C2C5DB7AE";
userData = {
RMXScaler = {
adjustSpace = -10;
weight = -10;
width = 90;
};
};
width = 619;
}
);
note = uni126C;
unicode = 126C;
userData = {
RMXScaler = {
source = "vee-ethiopic";
};
};
},
{
glyphname = "ve-ethiopic";
lastChange = "2019-03-09 00:32:52 +0000";
layers = (
{
components = (
{
name = "be-ethiopic";
}
);
layerId = "994FE389-9D54-4FAA-B055-C46A67020E78";
paths = (
{
closed = 1;
nodes = (
"508 689 LINE",
"508 729 LINE",
"176 729 LINE",
"176 689 LINE"
);
}
);
width = 677;
},
{
components = (
{
name = "be-ethiopic";
},
{
name = _part.vtop;
transform = "{1, 0, 0, 1, 70, 0}";
}
);
layerId = "070DF6F6-38EC-45CA-8FD7-ED5C2C5DB7AE";
userData = {
RMXScaler = {
adjustSpace = -10;
weight = -10;
width = 90;
};
};
width = 587;
}
);
note = uni126D;
unicode = 126D;
userData = {
RMXScaler = {
source = "ve-ethiopic";
};
};
},
{
glyphname = "vo-ethiopic";
lastChange = "2019-03-09 00:33:49 +0000";
layers = (
{
components = (
{
name = "bo-ethiopic";
}
);
layerId = "994FE389-9D54-4FAA-B055-C46A67020E78";
paths = (
{
closed = 1;
nodes = (
"472 689 LINE",
"472 729 LINE",
"140 729 LINE",
"140 689 LINE"
);
}
);
width = 641;
},
{
components = (
{
name = "bo-ethiopic";
},
{
name = _part.vtop;
}
);
layerId = "070DF6F6-38EC-45CA-8FD7-ED5C2C5DB7AE";
userData = {
RMXScaler = {
adjustSpace = -10;
weight = -10;
width = 90;
};
};
width = 518;
}
);
note = uni126E;
unicode = 126E;
userData = {
RMXScaler = {
source = "vo-ethiopic";
};
};
},
{
glyphname = "vwa-ethiopic";
lastChange = "2019-03-09 00:33:41 +0000";
layers = (
{
components = (
{
name = "bwa-ethiopic";
}
);
layerId = "994FE389-9D54-4FAA-B055-C46A67020E78";
paths = (
{
closed = 1;
nodes = (
"478 689 LINE",
"478 729 LINE",
"146 729 LINE",
"146 689 LINE"
);
}
);
width = 621;
},
{
components = (
{
name = "bwa-ethiopic";
},
{
name = _part.vtop;
}
);
layerId = "070DF6F6-38EC-45CA-8FD7-ED5C2C5DB7AE";
userData = {
RMXScaler = {
adjustSpace = -10;
weight = -10;
width = 90;
};
};
width = 537;
}
);
note = uni126F;
unicode = 126F;
userData = {
RMXScaler = {
source = "vwa-ethiopic";
};
};
},
{
glyphname = "ta-ethiopic";
lastChange = "2019-03-09 00:34:08 +0000";
layers = (
{
components = (
{
name = T;
}
);
layerId = "994FE389-9D54-4FAA-B055-C46A67020E78";
paths = (
{
closed = 1;
nodes = (
"306 620 LINE",
"382 620 LINE",
"382 800 LINE",
"306 800 LINE"
);
}
);
width = 691;
},
{
components = (
{
name = T;
transform = "{1, 0, 0, 1, -1, 0}";
}
);
layerId = "070DF6F6-38EC-45CA-8FD7-ED5C2C5DB7AE";
paths = (
{
closed = 1;
nodes = (
"241 620 LINE",
"301 620 LINE",
"301 800 LINE",
"241 800 LINE"
);
}
);
userData = {
RMXScaler = {
adjustSpace = -10;
weight = -10;
width = 90;
};
};
width = 544;
}
);
note = uni1270;
unicode = 1270;
userData = {
RMXScaler = {
source = "ta-ethiopic";
};
};
},
{
glyphname = "tu-ethiopic";
lastChange = "2019-03-09 00:11:00 +0000";
layers = (
{
layerId = "994FE389-9D54-4FAA-B055-C46A67020E78";
paths = (
{
closed = 1;
nodes = (
"331 0 LINE",
"331 165 LINE",
"473 165 LINE",
"473 246 LINE",
"331 246 LINE",
"331 580 LINE",
"504 580 LINE",
"504 661 LINE",
"331 661 LINE",
"331 807 LINE",
"247 807 LINE",
"247 661 LINE",
"50 661 LINE",
"50 580 LINE",
"247 580 LINE",
"247 0 LINE"
);
}
);
width = 554;
},
{
layerId = "070DF6F6-38EC-45CA-8FD7-ED5C2C5DB7AE";
paths = (
{
closed = 1;
nodes = (
"272 0 LINE",
"272 165 LINE",
"385 165 LINE",
"385 246 LINE",
"272 246 LINE",
"272 580 LINE",
"409 580 LINE",
"409 661 LINE",
"272 661 LINE",
"272 807 LINE",
"205 807 LINE",
"205 661 LINE",
"49 661 LINE",
"49 580 LINE",
"205 580 LINE",
"205 0 LINE"
);
}
);
userData = {
RMXScaler = {
adjustSpace = -10;
weight = -10;
width = 90;
};
};
width = 458;
}
);
note = uni1271;
unicode = 1271;
userData = {
RMXScaler = {
source = "tu-ethiopic";
};
};
},
{
glyphname = "ti-ethiopic";
lastChange = "2019-03-09 00:11:00 +0000";
layers = (
{
layerId = "994FE389-9D54-4FAA-B055-C46A67020E78";
paths = (
{
closed = 1;
nodes = (
"445 0 LINE",
"445 91 LINE",
"322 91 LINE",
"322 590 LINE",
"514 590 LINE",
"514 671 LINE",
"322 671 LINE",
"322 797 LINE",
"238 797 LINE",
"238 671 LINE",
"50 671 LINE",
"50 590 LINE",
"238 590 LINE",
"238 0 LINE"
);
}
);
width = 564;
},
{
layerId = "070DF6F6-38EC-45CA-8FD7-ED5C2C5DB7AE";
paths = (
{
closed = 1;
nodes = (
"363 0 LINE",
"363 91 LINE",
"265 91 LINE",
"265 590 LINE",
"417 590 LINE",
"417 671 LINE",
"265 671 LINE",
"265 797 LINE",
"198 797 LINE",
"198 671 LINE",
"49 671 LINE",
"49 590 LINE",
"198 590 LINE",
"198 0 LINE"
);
}
);
userData = {
RMXScaler = {
adjustSpace = -10;
weight = -10;
width = 90;
};
};
width = 466;
}
);
note = uni1272;
unicode = 1272;
userData = {
RMXScaler = {
source = "ti-ethiopic";
};
};
},
{
glyphname = "taa-ethiopic";
lastChange = "2019-03-09 00:11:00 +0000";
layers = (
{
layerId = "994FE389-9D54-4FAA-B055-C46A67020E78";
paths = (
{
closed = 1;
nodes = (
"243 -2 LINE",
"309 115 OFFCURVE",
"338 162 OFFCURVE",
"338 226 CURVE SMOOTH",
"338 251 OFFCURVE",
"339 438 OFFCURVE",
"339 590 CURVE",
"514 590 LINE",
"514 671 LINE",
"338 671 LINE",
"338 807 LINE",
"247 807 LINE",
"247 671 LINE",
"50 671 LINE",
"50 590 LINE",
"247 590 LINE",
"247 226 LINE SMOOTH",
"247 162 OFFCURVE",
"216 115 OFFCURVE",
"147 -2 CURVE"
);
}
);
width = 564;
},
{
layerId = "070DF6F6-38EC-45CA-8FD7-ED5C2C5DB7AE";
paths = (
{
closed = 1;
nodes = (
"202 -2 LINE",
"254 115 OFFCURVE",
"277 161 OFFCURVE",
"277 226 CURVE SMOOTH",
"277 251 OFFCURVE",
"278 438 OFFCURVE",
"278 590 CURVE",
"417 590 LINE",
"417 671 LINE",
"277 671 LINE",
"277 807 LINE",
"205 807 LINE",
"205 671 LINE",
"49 671 LINE",
"49 590 LINE",
"205 590 LINE",
"205 226 LINE SMOOTH",
"205 159 OFFCURVE",
"180 115 OFFCURVE",
"126 -2 CURVE"
);
}
);
userData = {
RMXScaler = {
adjustSpace = -10;
weight = -10;
width = 90;
};
};
width = 466;
}
);
note = uni1273;
unicode = 1273;
userData = {
RMXScaler = {
source = "taa-ethiopic";
};
};
},
{
glyphname = "tee-ethiopic";
lastChange = "2019-03-09 00:11:00 +0000";
layers = (
{
layerId = "994FE389-9D54-4FAA-B055-C46A67020E78";
paths = (
{
closed = 1;
nodes = (
"379 0 LINE SMOOTH",
"411 0 OFFCURVE",
"433 11 OFFCURVE",
"451 27 CURVE",
"467 43 OFFCURVE",
"475 65 OFFCURVE",
"475 90 CURVE SMOOTH",
"475 109 OFFCURVE",
"470 127 OFFCURVE",
"462 143 CURVE SMOOTH",
"447 171 OFFCURVE",
"418 186 OFFCURVE",
"379 186 CURVE SMOOTH",
"322 186 LINE",
"322 590 LINE",
"514 590 LINE",
"514 671 LINE",
"322 671 LINE",
"322 807 LINE",
"238 807 LINE",
"238 671 LINE",
"50 671 LINE",
"50 590 LINE",
"238 590 LINE",
"238 0 LINE"
);
},
{
closed = 1;
nodes = (
"322 166 LINE",
"353 166 LINE SMOOTH",
"363 166 OFFCURVE",
"371 164 OFFCURVE",
"377 162 CURVE",
"390 157 OFFCURVE",
"401 154 OFFCURVE",
"407 143 CURVE",
"412 135 OFFCURVE",
"417 126 OFFCURVE",
"420 114 CURVE SMOOTH",
"422 106 OFFCURVE",
"423 100 OFFCURVE",
"423 94 CURVE SMOOTH",
"423 72 OFFCURVE",
"417 52 OFFCURVE",
"407 39 CURVE",
"397 27 OFFCURVE",
"377 22 OFFCURVE",
"352 22 CURVE SMOOTH",
"322 22 LINE"
);
}
);
width = 564;
},
{
layerId = "070DF6F6-38EC-45CA-8FD7-ED5C2C5DB7AE";
paths = (
{
closed = 1;
nodes = (
"310 0 LINE SMOOTH",
"335 0 OFFCURVE",
"353 11 OFFCURVE",
"367 27 CURVE",
"379 43 OFFCURVE",
"386 63 OFFCURVE",
"386 90 CURVE SMOOTH",
"386 103 OFFCURVE",
"382 129 OFFCURVE",
"376 143 CURVE SMOOTH",
"366 167 OFFCURVE",
"341 186 OFFCURVE",
"310 186 CURVE SMOOTH",
"265 186 LINE",
"265 590 LINE",
"417 590 LINE",
"417 671 LINE",
"265 671 LINE",
"265 807 LINE",
"198 807 LINE",
"198 671 LINE",
"49 671 LINE",
"49 590 LINE",
"198 590 LINE",
"198 0 LINE"
);
},
{
closed = 1;
nodes = (
"265 166 LINE",
"290 166 LINE SMOOTH",
"295 166 OFFCURVE",
"304 164 OFFCURVE",
"308 162 CURVE",
"320 156 OFFCURVE",
"327 154 OFFCURVE",
"332 143 CURVE",
"337 134 OFFCURVE",
"340 126 OFFCURVE",
"342 114 CURVE SMOOTH",
"342 112 OFFCURVE",
"345 102 OFFCURVE",
"345 94 CURVE SMOOTH",
"345 72 OFFCURVE",
"340 52 OFFCURVE",
"332 39 CURVE",
"324 27 OFFCURVE",
"307 22 OFFCURVE",
"289 22 CURVE SMOOTH",
"265 22 LINE"
);
}
);
userData = {
RMXScaler = {
adjustSpace = -10;
weight = -10;
width = 90;
};
};
width = 466;
}
);
note = uni1274;
unicode = 1274;
userData = {
RMXScaler = {
source = "tee-ethiopic";
};
};
},
{
glyphname = "te-ethiopic";
lastChange = "2019-03-09 00:11:00 +0000";
layers = (
{
layerId = "994FE389-9D54-4FAA-B055-C46A67020E78";
paths = (
{
closed = 1;
nodes = (
"322 0 LINE",
"322 601 LINE",
"514 601 LINE",
"514 662 LINE",
"322 662 LINE",
"322 736 LINE SMOOTH",
"322 747 OFFCURVE",
"307 756 OFFCURVE",
"281 756 CURVE SMOOTH",
"171 756 LINE",
"171 807 LINE",
"77 807 LINE",
"77 799 LINE SMOOTH",
"77 754 OFFCURVE",
"86 731 OFFCURVE",
"118 731 CURVE SMOOTH",
"238 731 LINE",
"238 662 LINE",
"50 662 LINE",
"50 601 LINE",
"238 601 LINE",
"238 0 LINE"
);
}
);
width = 564;
},
{
layerId = "070DF6F6-38EC-45CA-8FD7-ED5C2C5DB7AE";
paths = (
{
closed = 1;
nodes = (
"265 0 LINE",
"265 601 LINE",
"417 601 LINE",
"417 662 LINE",
"265 662 LINE",
"265 736 LINE SMOOTH",
"265 747 OFFCURVE",
"252 756 OFFCURVE",
"232 756 CURVE SMOOTH",
"145 756 LINE",
"145 807 LINE",
"70 807 LINE",
"70 799 LINE SMOOTH",
"70 739 OFFCURVE",
"84 731 OFFCURVE",
"103 731 CURVE SMOOTH",
"198 731 LINE",
"198 662 LINE",
"49 662 LINE",
"49 601 LINE",
"198 601 LINE",
"198 0 LINE"
);
}
);
userData = {
RMXScaler = {
adjustSpace = -10;
weight = -10;
width = 90;
};
};
width = 466;
}
);
note = uni1275;
unicode = 1275;
userData = {
RMXScaler = {
source = "te-ethiopic";
};
};
},
{
glyphname = "to-ethiopic";
lastChange = "2019-03-09 00:11:00 +0000";
layers = (
{
layerId = "994FE389-9D54-4FAA-B055-C46A67020E78";
paths = (
{
closed = 1;
nodes = (
"320 0 LINE",
"320 600 LINE",
"514 600 LINE",
"514 651 LINE",
"317 651 LINE",
"317 697 LINE",
"370 697 LINE",
"370 790 OFFCURVE",
"348 813 OFFCURVE",
"262 813 CURVE SMOOTH",
"155 813 OFFCURVE",
"163 780 OFFCURVE",
"163 697 CURVE",
"229 697 LINE",
"229 651 LINE",
"50 651 LINE",
"50 600 LINE",
"229 600 LINE",
"229 0 LINE"
);
},
{
closed = 1;
nodes = (
"202 748 LINE SMOOTH",
"202 774 OFFCURVE",
"222 785 OFFCURVE",
"262 785 CURVE SMOOTH",
"304 785 OFFCURVE",
"328 774 OFFCURVE",
"328 727 CURVE SMOOTH",
"328 721 LINE",
"202 721 LINE"
);
}
);
width = 564;
},
{
layerId = "070DF6F6-38EC-45CA-8FD7-ED5C2C5DB7AE";
paths = (
{
closed = 1;
nodes = (
"263 0 LINE",
"263 600 LINE",
"417 600 LINE",
"417 651 LINE",
"260 651 LINE",
"260 697 LINE",
"303 697 LINE",
"303 790 OFFCURVE",
"285 813 OFFCURVE",
"217 813 CURVE SMOOTH",
"133 813 OFFCURVE",
"139 782 OFFCURVE",
"139 697 CURVE",
"191 697 LINE",
"191 651 LINE",
"49 651 LINE",
"49 600 LINE",
"191 600 LINE",
"191 0 LINE"
);
},
{
closed = 1;
nodes = (
"170 748 LINE SMOOTH",
"170 768 OFFCURVE",
"181 785 OFFCURVE",
"217 785 CURVE SMOOTH",
"261 785 OFFCURVE",
"269 758 OFFCURVE",
"269 727 CURVE SMOOTH",
"269 721 LINE",
"170 721 LINE"
);
}
);
userData = {
RMXScaler = {
adjustSpace = -10;
weight = -10;
width = 90;
};
};
width = 466;
}
);
note = uni1276;
unicode = 1276;
userData = {
RMXScaler = {
source = "to-ethiopic";
};
};
},
{
glyphname = "twa-ethiopic";
lastChange = "2019-03-09 00:11:00 +0000";
layers = (
{
layerId = "994FE389-9D54-4FAA-B055-C46A67020E78";
paths = (
{
closed = 1;
nodes = (
"471 -12 LINE",
"471 168 LINE",
"313 168 LINE",
"313 600 LINE",
"496 600 LINE",
"496 681 LINE",
"313 681 LINE",
"313 806 LINE",
"229 806 LINE",
"229 681 LINE",
"50 681 LINE",
"50 600 LINE",
"229 600 LINE",
"229 168 LINE",
"146 168 LINE",
"146 128 LINE",
"407 128 LINE",
"407 -12 LINE"
);
}
);
width = 546;
},
{
layerId = "070DF6F6-38EC-45CA-8FD7-ED5C2C5DB7AE";
paths = (
{
closed = 1;
nodes = (
"383 -12 LINE",
"383 168 LINE",
"258 168 LINE",
"258 600 LINE",
"402 600 LINE",
"402 681 LINE",
"258 681 LINE",
"258 806 LINE",
"191 806 LINE",
"191 681 LINE",
"49 681 LINE",
"49 600 LINE",
"191 600 LINE",
"191 168 LINE",
"125 168 LINE",
"125 128 LINE",
"332 128 LINE",
"332 -12 LINE"
);
}
);
userData = {
RMXScaler = {
adjustSpace = -10;
weight = -10;
width = 90;
};
};
width = 451;
}
);
note = uni1277;
unicode = 1277;
userData = {
RMXScaler = {
source = "twa-ethiopic";
};
};
},
{
glyphname = "ca-ethiopic";
lastChange = "2019-03-09 00:11:00 +0000";
layers = (
{
layerId = "994FE389-9D54-4FAA-B055-C46A67020E78";
paths = (
{
closed = 1;
nodes = (
"322 0 LINE",
"322 599 LINE",
"514 599 LINE",
"514 670 LINE",
"322 670 LINE",
"322 781 LINE",
"432 781 LINE",
"432 806 LINE",
"142 806 LINE",
"142 781 LINE",
"238 781 LINE",
"238 670 LINE",
"50 670 LINE",
"50 599 LINE",
"238 599 LINE",
"238 0 LINE"
);
}
);
width = 564;
},
{
layerId = "070DF6F6-38EC-45CA-8FD7-ED5C2C5DB7AE";
paths = (
{
closed = 1;
nodes = (
"265 0 LINE",
"265 599 LINE",
"417 599 LINE",
"417 670 LINE",
"265 670 LINE",
"265 781 LINE",
"352 781 LINE",
"352 806 LINE",
"122 806 LINE",
"122 781 LINE",
"198 781 LINE",
"198 670 LINE",
"49 670 LINE",
"49 599 LINE",
"198 599 LINE",
"198 0 LINE"
);
}
);
userData = {
RMXScaler = {
adjustSpace = -10;
weight = -10;
width = 90;
};
};
width = 466;
}
);
note = uni1278;
unicode = 1278;
userData = {
RMXScaler = {
source = "ca-ethiopic";
};
};
},
{
glyphname = "cu-ethiopic";
lastChange = "2019-03-09 00:11:00 +0000";
layers = (
{
layerId = "994FE389-9D54-4FAA-B055-C46A67020E78";
paths = (
{
closed = 1;
nodes = (
"322 0 LINE",
"322 229 LINE",
"465 229 LINE",
"465 320 LINE",
"322 320 LINE",
"322 530 LINE",
"514 530 LINE",
"514 611 LINE",
"322 611 LINE",
"322 762 LINE",
"432 762 LINE",
"432 807 LINE",
"142 807 LINE",
"142 762 LINE",
"238 762 LINE",
"238 611 LINE",
"50 611 LINE",
"50 530 LINE",
"238 530 LINE",
"238 0 LINE"
);
}
);
width = 564;
},
{
layerId = "070DF6F6-38EC-45CA-8FD7-ED5C2C5DB7AE";
paths = (
{
closed = 1;
nodes = (
"265 0 LINE",
"265 229 LINE",
"379 229 LINE",
"379 320 LINE",
"265 320 LINE",
"265 530 LINE",
"417 530 LINE",
"417 611 LINE",
"265 611 LINE",
"265 762 LINE",
"352 762 LINE",
"352 807 LINE",
"122 807 LINE",
"122 762 LINE",
"198 762 LINE",
"198 611 LINE",
"49 611 LINE",
"49 530 LINE",
"198 530 LINE",
"198 0 LINE"
);
}
);
userData = {
RMXScaler = {
adjustSpace = -10;
weight = -10;
width = 90;
};
};
width = 466;
}
);
note = uni1279;
unicode = 1279;
userData = {
RMXScaler = {
source = "cu-ethiopic";
};
};
},
{
glyphname = "ci-ethiopic";
lastChange = "2019-03-09 00:11:00 +0000";
layers = (
{
layerId = "994FE389-9D54-4FAA-B055-C46A67020E78";
paths = (
{
closed = 1;
nodes = (
"459 0 LINE",
"459 91 LINE",
"322 91 LINE",
"322 600 LINE",
"514 600 LINE",
"514 661 LINE",
"322 661 LINE",
"322 762 LINE",
"432 762 LINE",
"432 807 LINE",
"142 807 LINE",
"142 762 LINE",
"238 762 LINE",
"238 661 LINE",
"50 661 LINE",
"50 600 LINE",
"238 600 LINE",
"238 0 LINE"
);
}
);
width = 564;
},
{
layerId = "070DF6F6-38EC-45CA-8FD7-ED5C2C5DB7AE";
paths = (
{
closed = 1;
nodes = (
"373 0 LINE",
"373 91 LINE",
"265 91 LINE",
"265 600 LINE",
"417 600 LINE",
"417 661 LINE",
"265 661 LINE",
"265 762 LINE",
"352 762 LINE",
"352 807 LINE",
"122 807 LINE",
"122 762 LINE",
"198 762 LINE",
"198 661 LINE",
"49 661 LINE",
"49 600 LINE",
"198 600 LINE",
"198 0 LINE"
);
}
);
userData = {
RMXScaler = {
adjustSpace = -10;
weight = -10;
width = 90;
};
};
width = 466;
}
);
note = uni127A;
unicode = 127A;
userData = {
RMXScaler = {
source = "ci-ethiopic";
};
};
},
{
glyphname = "caa-ethiopic";
lastChange = "2019-03-09 00:11:00 +0000";
layers = (
{
layerId = "994FE389-9D54-4FAA-B055-C46A67020E78";
paths = (
{
closed = 1;
nodes = (
"242 0 LINE",
"308 116 OFFCURVE",
"337 164 OFFCURVE",
"337 228 CURVE",
"338 403 OFFCURVE",
"338 448 OFFCURVE",
"338 600 CURVE",
"514 600 LINE",
"514 671 LINE",
"337 671 LINE",
"337 762 LINE",
"440 762 LINE",
"440 807 LINE",
"150 807 LINE",
"150 762 LINE",
"246 762 LINE",
"246 671 LINE",
"50 671 LINE",
"50 600 LINE",
"246 600 LINE",
"246 228 LINE SMOOTH",
"246 164 OFFCURVE",
"215 116 OFFCURVE",
"147 0 CURVE"
);
}
);
width = 564;
},
{
layerId = "070DF6F6-38EC-45CA-8FD7-ED5C2C5DB7AE";
paths = (
{
closed = 1;
nodes = (
"201 0 LINE",
"253 116 OFFCURVE",
"276 161 OFFCURVE",
"276 228 CURVE",
"277 403 OFFCURVE",
"277 448 OFFCURVE",
"277 600 CURVE",
"417 600 LINE",
"417 671 LINE",
"276 671 LINE",
"276 762 LINE",
"358 762 LINE",
"358 807 LINE",
"128 807 LINE",
"128 762 LINE",
"204 762 LINE",
"204 671 LINE",
"49 671 LINE",
"49 600 LINE",
"204 600 LINE",
"204 228 LINE SMOOTH",
"204 163 OFFCURVE",
"180 118 OFFCURVE",
"126 0 CURVE"
);
}
);
userData = {
RMXScaler = {
adjustSpace = -10;
weight = -10;
width = 90;
};
};
width = 466;
}
);
note = uni127B;
unicode = 127B;
userData = {
RMXScaler = {
source = "caa-ethiopic";
};
};
},
{
glyphname = "cee-ethiopic";
lastChange = "2019-03-09 00:11:00 +0000";
layers = (
{
layerId = "994FE389-9D54-4FAA-B055-C46A67020E78";
paths = (
{
closed = 1;
nodes = (
"372 -1 LINE SMOOTH",
"417 -1 OFFCURVE",
"449 16 OFFCURVE",
"467 46 CURVE SMOOTH",
"477 63 OFFCURVE",
"483 83 OFFCURVE",
"483 104 CURVE SMOOTH",
"483 132 OFFCURVE",
"475 156 OFFCURVE",
"456 173 CURVE",
"434 191 OFFCURVE",
"409 203 OFFCURVE",
"373 203 CURVE SMOOTH",
"331 203 LINE",
"331 600 LINE",
"514 600 LINE",
"514 671 LINE",
"331 671 LINE",
"331 762 LINE",
"441 762 LINE",
"441 807 LINE",
"151 807 LINE",
"151 762 LINE",
"247 762 LINE",
"247 671 LINE",
"50 671 LINE",
"50 600 LINE",
"247 600 LINE",
"247 0 LINE",
"275 0 LINE",
"275 -1 LINE"
);
},
{
closed = 1;
nodes = (
"331 179 LINE",
"340 179 LINE SMOOTH",
"369 179 OFFCURVE",
"391 173 OFFCURVE",
"404 159 CURVE",
"417 146 OFFCURVE",
"422 125 OFFCURVE",
"422 100 CURVE SMOOTH",
"422 93 OFFCURVE",
"421 86 OFFCURVE",
"419 79 CURVE",
"416 65 OFFCURVE",
"411 55 OFFCURVE",
"405 46 CURVE",
"397 36 OFFCURVE",
"385 29 OFFCURVE",
"370 26 CURVE",
"362 23 OFFCURVE",
"353 22 OFFCURVE",
"341 22 CURVE SMOOTH",
"331 22 LINE"
);
}
);
width = 564;
},
{
layerId = "070DF6F6-38EC-45CA-8FD7-ED5C2C5DB7AE";
paths = (
{
closed = 1;
nodes = (
"304 -1 LINE SMOOTH",
"340 -1 OFFCURVE",
"365 16 OFFCURVE",
"380 47 CURVE SMOOTH",
"387 61 OFFCURVE",
"393 83 OFFCURVE",
"393 104 CURVE SMOOTH",
"393 133 OFFCURVE",
"386 156 OFFCURVE",
"370 173 CURVE",
"354 191 OFFCURVE",
"332 203 OFFCURVE",
"305 203 CURVE SMOOTH",
"272 203 LINE",
"272 600 LINE",
"417 600 LINE",
"417 671 LINE",
"272 671 LINE",
"272 762 LINE",
"359 762 LINE",
"359 807 LINE",
"129 807 LINE",
"129 762 LINE",
"205 762 LINE",
"205 671 LINE",
"49 671 LINE",
"49 600 LINE",
"205 600 LINE",
"205 0 LINE",
"228 0 LINE",
"228 -1 LINE"
);
},
{
closed = 1;
nodes = (
"272 179 LINE",
"279 179 LINE SMOOTH",
"301 179 OFFCURVE",
"319 173 OFFCURVE",
"330 159 CURVE",
"340 146 OFFCURVE",
"344 124 OFFCURVE",
"344 100 CURVE SMOOTH",
"344 95 OFFCURVE",
"343 85 OFFCURVE",
"341 79 CURVE",
"339 61 OFFCURVE",
"335 54 OFFCURVE",
"331 46 CURVE",
"324 36 OFFCURVE",
"316 28 OFFCURVE",
"303 26 CURVE",
"296 23 OFFCURVE",
"289 22 OFFCURVE",
"280 22 CURVE SMOOTH",
"272 22 LINE"
);
}
);
userData = {
RMXScaler = {
adjustSpace = -10;
weight = -10;
width = 90;
};
};
width = 466;
}
);
note = uni127C;
unicode = 127C;
userData = {
RMXScaler = {
source = "cee-ethiopic";
};
};
},
{
glyphname = "ce-ethiopic";
lastChange = "2019-03-09 00:11:00 +0000";
layers = (
{
layerId = "994FE389-9D54-4FAA-B055-C46A67020E78";
paths = (
{
closed = 1;
nodes = (
"413 0 LINE",
"413 581 LINE",
"605 581 LINE",
"605 652 LINE",
"413 652 LINE",
"413 706 LINE SMOOTH",
"413 747 OFFCURVE",
"399 756 OFFCURVE",
"373 756 CURVE SMOOTH",
"263 756 LINE",
"263 792 LINE",
"418 792 LINE",
"418 817 LINE",
"70 817 LINE",
"70 792 LINE",
"168 792 LINE",
"168 769 LINE SMOOTH",
"168 724 OFFCURVE",
"177 701 OFFCURVE",
"210 701 CURVE SMOOTH",
"330 701 LINE",
"330 652 LINE",
"142 652 LINE",
"142 581 LINE",
"330 581 LINE",
"330 0 LINE"
);
}
);
width = 655;
},
{
layerId = "070DF6F6-38EC-45CA-8FD7-ED5C2C5DB7AE";
paths = (
{
closed = 1;
nodes = (
"321 0 LINE",
"321 581 LINE",
"474 581 LINE",
"474 652 LINE",
"321 652 LINE",
"321 706 LINE SMOOTH",
"321 757 OFFCURVE",
"304 756 OFFCURVE",
"290 756 CURVE SMOOTH",
"202 756 LINE",
"202 792 LINE",
"325 792 LINE",
"325 817 LINE",
"49 817 LINE",
"49 792 LINE",
"126 792 LINE",
"126 769 LINE SMOOTH",
"126 708 OFFCURVE",
"141 701 OFFCURVE",
"160 701 CURVE SMOOTH",
"255 701 LINE",
"255 652 LINE",
"106 652 LINE",
"106 581 LINE",
"255 581 LINE",
"255 0 LINE"
);
}
);
userData = {
RMXScaler = {
adjustSpace = -10;
weight = -10;
width = 90;
};
};
width = 523;
}
);
note = uni127D;
unicode = 127D;
userData = {
RMXScaler = {
source = "ce-ethiopic";
};
};
},
{
glyphname = "co-ethiopic";
lastChange = "2019-03-09 00:11:00 +0000";
layers = (
{
layerId = "994FE389-9D54-4FAA-B055-C46A67020E78";
paths = (
{
closed = 1;
nodes = (
"322 0 LINE",
"322 600 LINE",
"517 600 LINE",
"516 651 LINE",
"321 651 LINE",
"321 699 LINE",
"368 699 LINE",
"369 771 LINE",
"459 771 LINE",
"459 816 LINE",
"104 816 LINE",
"104 771 LINE",
"184 771 LINE",
"184 699 LINE",
"234 699 LINE",
"234 651 LINE",
"50 651 LINE",
"50 600 LINE",
"231 600 LINE",
"231 0 LINE"
);
},
{
closed = 1;
nodes = (
"205 734 LINE SMOOTH",
"205 770 OFFCURVE",
"229 783 OFFCURVE",
"277 783 CURVE SMOOTH",
"324 783 OFFCURVE",
"347 770 OFFCURVE",
"347 735 CURVE",
"347 719 LINE",
"205 719 LINE"
);
}
);
width = 567;
},
{
layerId = "070DF6F6-38EC-45CA-8FD7-ED5C2C5DB7AE";
paths = (
{
closed = 1;
nodes = (
"265 0 LINE",
"265 600 LINE",
"419 600 LINE",
"418 651 LINE",
"264 651 LINE",
"264 699 LINE",
"301 699 LINE",
"302 771 LINE",
"373 771 LINE",
"373 816 LINE",
"92 816 LINE",
"92 771 LINE",
"156 771 LINE",
"156 699 LINE",
"195 699 LINE",
"195 651 LINE",
"49 651 LINE",
"49 600 LINE",
"193 600 LINE",
"193 0 LINE"
);
},
{
closed = 1;
nodes = (
"172 734 LINE SMOOTH",
"172 762 OFFCURVE",
"186 783 OFFCURVE",
"229 783 CURVE SMOOTH",
"265 783 OFFCURVE",
"284 770 OFFCURVE",
"284 735 CURVE",
"284 719 LINE",
"172 719 LINE"
);
}
);
userData = {
RMXScaler = {
adjustSpace = -10;
weight = -10;
width = 90;
};
};
width = 468;
}
);
note = uni127E;
unicode = 127E;
userData = {
RMXScaler = {
source = "co-ethiopic";
};
};
},
{
glyphname = "cwa-ethiopic";
lastChange = "2019-03-09 00:11:00 +0000";
layers = (
{
layerId = "994FE389-9D54-4FAA-B055-C46A67020E78";
paths = (
{
closed = 1;
nodes = (
"467 -2 LINE",
"467 180 LINE",
"312 180 LINE",
"312 600 LINE",
"504 600 LINE",
"504 671 LINE",
"312 671 LINE",
"312 763 LINE",
"422 763 LINE",
"422 808 LINE",
"132 808 LINE",
"132 763 LINE",
"229 763 LINE",
"229 671 LINE",
"50 671 LINE",
"50 600 LINE",
"229 600 LINE",
"229 180 LINE",
"191 180 LINE",
"191 138 LINE",
"402 138 LINE",
"402 -2 LINE"
);
}
);
width = 554;
},
{
layerId = "070DF6F6-38EC-45CA-8FD7-ED5C2C5DB7AE";
paths = (
{
closed = 1;
nodes = (
"379 -2 LINE",
"379 180 LINE",
"257 180 LINE",
"257 600 LINE",
"409 600 LINE",
"409 671 LINE",
"257 671 LINE",
"257 763 LINE",
"344 763 LINE",
"344 808 LINE",
"114 808 LINE",
"114 763 LINE",
"191 763 LINE",
"191 671 LINE",
"49 671 LINE",
"49 600 LINE",
"191 600 LINE",
"191 180 LINE",
"161 180 LINE",
"161 138 LINE",
"328 138 LINE",
"328 -2 LINE"
);
}
);
userData = {
RMXScaler = {
adjustSpace = -10;
weight = -10;
width = 90;
};
};
width = 458;
}
);
note = uni127F;
unicode = 127F;
userData = {
RMXScaler = {
source = "cwa-ethiopic";
};
};
},
{
glyphname = "xa-ethiopic";
lastChange = "2019-03-09 00:11:00 +0000";
layers = (
{
layerId = "994FE389-9D54-4FAA-B055-C46A67020E78";
paths = (
{
closed = 1;
nodes = (
"70 672 LINE",
"70 590 LINE",
"414 590 LINE",
"414 -7 LINE",
"506 -7 LINE",
"506 672 LINE"
);
},
{
closed = 1;
nodes = (
"161 650 LINE",
"248 650 LINE",
"248 800 LINE",
"161 800 LINE"
);
}
);
width = 576;
},
{
layerId = "070DF6F6-38EC-45CA-8FD7-ED5C2C5DB7AE";
paths = (
{
closed = 1;
nodes = (
"55 672 LINE",
"55 590 LINE",
"328 590 LINE",
"328 -7 LINE",
"400 -7 LINE",
"400 672 LINE"
);
},
{
closed = 1;
nodes = (
"127 650 LINE",
"196 650 LINE",
"196 800 LINE",
"127 800 LINE"
);
}
);
userData = {
RMXScaler = {
adjustSpace = -10;
weight = -10;
width = 90;
};
};
width = 455;
}
);
note = uni1280;
unicode = 1280;
userData = {
RMXScaler = {
source = "xa-ethiopic";
};
};
},
{
glyphname = "xaa-ethiopic";
lastChange = "2019-03-09 00:11:00 +0000";
layers = (
{
layerId = "994FE389-9D54-4FAA-B055-C46A67020E78";
paths = (
{
closed = 1;
nodes = (
"416 324 LINE",
"416 282 LINE SMOOTH",
"416 204 OFFCURVE",
"126 134 OFFCURVE",
"120 0 CURVE",
"211 0 LINE",
"211 78 OFFCURVE",
"506 149 OFFCURVE",
"506 282 CURVE SMOOTH",
"506 336 LINE"
);
},
{
closed = 1;
nodes = (
"70 672 LINE",
"70 590 LINE",
"414 590 LINE",
"414 223 LINE",
"506 293 LINE",
"506 672 LINE"
);
},
{
closed = 1;
nodes = (
"161 650 LINE",
"248 650 LINE",
"248 800 LINE",
"161 800 LINE"
);
}
);
width = 576;
},
{
layerId = "070DF6F6-38EC-45CA-8FD7-ED5C2C5DB7AE";
paths = (
{
closed = 1;
nodes = (
"329 324 LINE",
"329 282 LINE SMOOTH",
"329 204 OFFCURVE",
"99 134 OFFCURVE",
"95 0 CURVE",
"167 0 LINE",
"167 78 OFFCURVE",
"400 149 OFFCURVE",
"400 282 CURVE SMOOTH",
"400 336 LINE"
);
},
{
closed = 1;
nodes = (
"55 672 LINE",
"55 590 LINE",
"328 590 LINE",
"328 223 LINE",
"400 293 LINE",
"400 672 LINE"
);
},
{
closed = 1;
nodes = (
"127 650 LINE",
"196 650 LINE",
"196 800 LINE",
"127 800 LINE"
);
}
);
userData = {
RMXScaler = {
adjustSpace = -10;
weight = -10;
width = 90;
};
};
width = 455;
}
);
note = uni1283;
unicode = 1283;
userData = {
RMXScaler = {
source = "xaa-ethiopic";
};
};
},
{
glyphname = "xe-ethiopic";
lastChange = "2019-03-09 00:11:00 +0000";
layers = (
{
components = (
{
name = "xa-ethiopic";
}
);
layerId = "994FE389-9D54-4FAA-B055-C46A67020E78";
paths = (
{
closed = 1;
nodes = (
"106 478 LINE",
"137 478 LINE",
"137 610 LINE",
"106 610 LINE"
);
}
);
width = 576;
},
{
components = (
{
name = "xa-ethiopic";
transform = "{1, 0, 0, 1, 11, 0}";
}
);
layerId = "070DF6F6-38EC-45CA-8FD7-ED5C2C5DB7AE";
paths = (
{
closed = 1;
nodes = (
"79 518 LINE",
"104 518 LINE",
"104 650 LINE",
"79 650 LINE"
);
}
);
userData = {
RMXScaler = {
adjustSpace = -10;
weight = -10;
width = 90;
};
};
width = 434;
}
);
note = uni1285;
unicode = 1285;
userData = {
RMXScaler = {
source = "xe-ethiopic";
};
};
},
{
glyphname = "xo-ethiopic";
lastChange = "2019-03-09 00:35:20 +0000";
layers = (
{
components = (
{
name = "ro-ethiopic";
transform = "{1, 0, 0, 1, 10, 0}";
},
{
name = _part.hu;
transform = "{1, 0, 0, 1, -60, 0}";
}
);
layerId = "994FE389-9D54-4FAA-B055-C46A67020E78";
paths = (
{
closed = 1;
nodes = (
"461 -180 LINE",
"516 -180 LINE",
"516 60 LINE",
"461 60 LINE"
);
}
);
width = 568;
},
{
components = (
{
name = "ro-ethiopic";
transform = "{1, 0, 0, 1, 17, 0}";
},
{
name = _part.hu;
transform = "{1, 0, 0, 1, -30, 0}";
}
);
layerId = "070DF6F6-38EC-45CA-8FD7-ED5C2C5DB7AE";
paths = (
{
closed = 1;
nodes = (
"415 -181 LINE",
"458 -181 LINE",
"458 59 LINE",
"415 59 LINE"
);
}
);
userData = {
RMXScaler = {
adjustSpace = -10;
weight = -10;
width = 90;
};
};
width = 514;
}
);
note = uni1286;
unicode = 1286;
userData = {
RMXScaler = {
source = "xo-ethiopic";
};
};
},
{
glyphname = "xoa-ethiopic";
lastChange = "2019-03-09 00:35:31 +0000";
layers = (
{
components = (
{
name = "xo-ethiopic";
}
);
layerId = "994FE389-9D54-4FAA-B055-C46A67020E78";
paths = (
{
closed = 1;
nodes = (
"364 -180 LINE",
"564 -180 LINE",
"564 -147 LINE",
"364 -147 LINE"
);
}
);
width = 568;
},
{
components = (
{
name = "xo-ethiopic";
transform = "{1, 0, 0, 1, 41, 0}";
}
);
layerId = "070DF6F6-38EC-45CA-8FD7-ED5C2C5DB7AE";
paths = (
{
closed = 1;
nodes = (
"330 -180 LINE",
"489 -180 LINE",
"489 -147 LINE",
"330 -147 LINE"
);
}
);
userData = {
RMXScaler = {
adjustSpace = -10;
weight = -10;
width = 90;
};
};
width = 560;
}
);
note = uni1287;
unicode = 1287;
userData = {
RMXScaler = {
source = "xoa-ethiopic";
};
};
},
